<svg width="16" height="16" viewBox="0 0 16 16" fill="none" xmlns="http://www.w3.org/2000/svg">
<path d="M10 2C10 1.46957 9.78929 0.960859 9.41421 0.585786C9.03914 0.210714 8.53043 0 8 0L0 0V16H1.33333V8.66667H6.66667V9.33333C6.66667 9.86377 6.87738 10.3725 7.25245 10.7475C7.62753 11.1226 8.13623 11.3333 8.66667 11.3333H16V2.66667H10V2ZM1.33333 1.33333H8C8.17681 1.33333 8.34638 1.40357 8.47141 1.5286C8.59643 1.65362 8.66667 1.82319 8.66667 2V7.33333H1.33333V1.33333ZM14.6667 4V10H8.66667C8.48986 10 8.32029 9.92976 8.19526 9.80474C8.07024 9.67971 8 9.51014 8 9.33333V8.66667H10V4H14.6667Z" fill="white"/>
</svg>
