<svg width="16" height="16" viewBox="0 0 16 16" fill="none" xmlns="http://www.w3.org/2000/svg">
<g clip-path="url(#clip0_564_397)">
<path d="M1.33797 -5.62668e-05H0.00463867V5.33328C0.00587255 6.92339 0.63777 8.44809 1.76171 9.57291C2.88565 10.6977 4.40986 11.3308 5.99997 11.3333L9.22864 11.4359V15.7119L15.42 9.51661C15.7949 9.14156 16.0055 8.63294 16.0055 8.10261C16.0055 7.57228 15.7949 7.06367 15.42 6.68861L9.22997 0.493277V4.76928L5.99997 4.66661C4.76343 4.66432 3.57826 4.17177 2.70433 3.29696C1.83039 2.42215 1.33903 1.23649 1.33797 -5.62668e-05ZM6.00464 5.99994L10.566 6.10261V3.71194L14.482 7.63128C14.607 7.7563 14.6772 7.92584 14.6772 8.10261C14.6772 8.27939 14.607 8.44893 14.482 8.57394L10.5626 12.4933V10.1026L5.99997 9.99994C4.76262 9.99889 3.57625 9.50688 2.70131 8.63194C1.82637 7.757 1.33436 6.57063 1.33331 5.33328V3.76728C1.89471 4.46469 2.6054 5.02731 3.41303 5.4137C4.22066 5.8001 5.10467 6.00043 5.99997 5.99994H6.00464Z" fill="white"/>
</g>
<defs>
<clipPath id="clip0_564_397">
<rect width="16" height="16" fill="white" transform="matrix(1 0 0 -1 0 16)"/>
</clipPath>
</defs>
</svg>
