<svg width="24" height="24" viewBox="0 0 24 24" fill="none" xmlns="http://www.w3.org/2000/svg">
<g clip-path="url(#clip0_578_275)">
<path d="M1.44394 6.669C1.1091 6.76467 0.805039 6.94612 0.561851 7.19538C0.318663 7.44465 0.144775 7.75309 0.0573936 8.09019C-0.0299883 8.42729 -0.0278355 8.78137 0.0636392 9.11738C0.155114 9.4534 0.33274 9.75971 0.578941 10.006L3.99094 13.414V20H10.5839L14.0189 23.43C14.2033 23.6159 14.4226 23.7636 14.6643 23.8645C14.9059 23.9654 15.1651 24.0176 15.427 24.018C15.5991 24.0177 15.7704 23.9955 15.937 23.952C16.2739 23.8671 16.5826 23.695 16.8319 23.4529C17.0811 23.2108 17.2622 22.9073 17.357 22.573L23.991 0.0209961L1.44394 6.669ZM1.99994 8.592L19.028 3.572L5.99294 16.586V12.586L1.99994 8.592ZM15.4399 22.016L11.4129 18H7.41294L20.446 4.978L15.4399 22.016Z" fill="#BAB9C0"/>
</g>
<defs>
<clipPath id="clip0_578_275">
<rect width="24" height="24" fill="white"/>
</clipPath>
</defs>
</svg>
