<svg width="32" height="32" viewBox="0 0 32 32" fill="none" xmlns="http://www.w3.org/2000/svg">
<path d="M28 2.66667H24V0H21.3333V2.66667H10.6667V0H8V2.66667H4C2.93913 2.66667 1.92172 3.08809 1.17157 3.83824C0.421427 4.58839 0 5.6058 0 6.66667L0 32H32V6.66667C32 5.6058 31.5786 4.58839 30.8284 3.83824C30.0783 3.08809 29.0609 2.66667 28 2.66667ZM2.66667 6.66667C2.66667 6.31305 2.80714 5.97391 3.05719 5.72386C3.30724 5.47381 3.64638 5.33333 4 5.33333H28C28.3536 5.33333 28.6928 5.47381 28.9428 5.72386C29.1929 5.97391 29.3333 6.31305 29.3333 6.66667V10.6667H2.66667V6.66667ZM2.66667 29.3333V13.3333H29.3333V29.3333H2.66667Z" fill="white" fill-opacity="0.7"/>
<path d="M22.6667 17.3333H20V19.9999H22.6667V17.3333Z" fill="white" fill-opacity="0.7"/>
<path d="M17.3333 17.3333H14.6667V19.9999H17.3333V17.3333Z" fill="white" fill-opacity="0.7"/>
<path d="M12 17.3333H9.33334V19.9999H12V17.3333Z" fill="white" fill-opacity="0.7"/>
<path d="M22.6667 22.6667H20V25.3334H22.6667V22.6667Z" fill="white" fill-opacity="0.7"/>
<path d="M17.3333 22.6667H14.6667V25.3334H17.3333V22.6667Z" fill="white" fill-opacity="0.7"/>
<path d="M12 22.6667H9.33334V25.3334H12V22.6667Z" fill="white" fill-opacity="0.7"/>
</svg>
