<svg width="32" height="32" viewBox="0 0 32 32" fill="none" xmlns="http://www.w3.org/2000/svg">
<path d="M28 0H4C2.93913 0 1.92172 0.421427 1.17157 1.17157C0.421427 1.92172 0 2.93913 0 4L0 26.6667H9.2L14.2773 30.9573C14.7586 31.3641 15.3685 31.5873 15.9987 31.5873C16.6289 31.5873 17.2387 31.3641 17.72 30.9573L22.8 26.6667H32V4C32 2.93913 31.5786 1.92172 30.8284 1.17157C30.0783 0.421427 29.0609 0 28 0V0ZM29.3333 24H21.8213L16 28.92L10.1787 24H2.66667V4C2.66667 3.64638 2.80714 3.30724 3.05719 3.05719C3.30724 2.80714 3.64638 2.66667 4 2.66667H28C28.3536 2.66667 28.6928 2.80714 28.9428 3.05719C29.1929 3.30724 29.3333 3.64638 29.3333 4V24Z" fill="white" fill-opacity="0.7"/>
<path d="M16 6.66675H8V9.33342H16V6.66675Z" fill="white" fill-opacity="0.7"/>
<path d="M24 12H8V14.6667H24V12Z" fill="white" fill-opacity="0.7"/>
<path d="M24 17.3333H8V19.9999H24V17.3333Z" fill="white" fill-opacity="0.7"/>
</svg>
