<svg width="32" height="32" viewBox="0 0 32 32" fill="none" xmlns="http://www.w3.org/2000/svg">
<g clip-path="url(#clip0_2777_864)">
<path d="M31.1453 13.0667C31.6773 12.3847 31.9753 11.5494 31.995 10.6848C32.0147 9.8201 31.7551 8.97212 31.2547 8.26667L26.5467 1.676C26.1767 1.15776 25.6884 0.735322 25.1223 0.443814C24.5562 0.152306 23.9287 0.000150849 23.292 0L8.70801 0C8.07127 0.000150849 7.44378 0.152306 6.87769 0.443814C6.3116 0.735322 5.82329 1.15776 5.45334 1.676L0.745342 8.26667C0.245933 8.9727 -0.0127304 9.82085 0.00768304 10.6854C0.0280965 11.55 0.3265 12.385 0.858676 13.0667L16 32.144L31.1453 13.0667ZM9.67068 12L13.404 24.576L3.41601 12H9.67068ZM28.584 12L18.6027 24.576L22.3293 12H28.584ZM19.548 12L16 23.972L12.452 12H19.548ZM12.4347 9.33333L14.3387 2.66667H17.6613L19.5653 9.33333H12.4347ZM24.3773 3.22533L28.74 9.33333H22.34L20.4347 2.66667H23.292C23.5043 2.66665 23.7136 2.71733 23.9024 2.8145C24.0911 2.91168 24.254 3.05253 24.3773 3.22533ZM7.62268 3.22533C7.74603 3.05253 7.90888 2.91168 8.09766 2.8145C8.28643 2.71733 8.49569 2.66665 8.70801 2.66667H11.5653L9.66134 9.33333H3.26134L7.62268 3.22533Z" fill="#BAB9C0"/>
</g>
<defs>
<clipPath id="clip0_2777_864">
<rect width="32" height="32" fill="white"/>
</clipPath>
</defs>
</svg>
