<svg width="34" height="32" viewBox="0 0 34 32" fill="none" xmlns="http://www.w3.org/2000/svg">
<path d="M27.414 10.586L23.121 6.29297L21.707 7.70697L25 11H15V13H25L21.707 16.293L23.121 17.707L27.414 13.414C27.7889 13.0389 27.9996 12.5303 27.9996 12C27.9996 11.4696 27.7889 10.961 27.414 10.586Z" fill="white" fill-opacity="0.7"/>
<path d="M6.586 18.586L10.879 14.293L12.293 15.707L9 19H19V21H9L12.293 24.293L10.879 25.707L6.586 21.414C6.21106 21.0389 6.00043 20.5303 6.00043 20C6.00043 19.4696 6.21106 18.961 6.586 18.586Z" fill="white" fill-opacity="0.7"/>
</svg>
