<svg width="32" height="32" viewBox="0 0 32 32" fill="none" xmlns="http://www.w3.org/2000/svg">
<g clip-path="url(#clip0_203_17)">
<path d="M25.0133 21.3333C24.095 21.3307 23.1854 21.5102 22.3369 21.8615C21.4885 22.2128 20.7182 22.7289 20.0707 23.38L16.0706 27.38C15.4529 28.001 14.7181 28.4933 13.9088 28.8286C13.0996 29.1639 12.2319 29.3354 11.356 29.3333H4.16398C3.86823 29.3335 3.57908 29.2459 3.33312 29.0817C3.08716 28.9175 2.89544 28.684 2.78224 28.4108C2.66904 28.1375 2.63944 27.8369 2.69719 27.5468C2.75493 27.2568 2.89743 26.9904 3.10664 26.7813L7.35998 22.5333L25.0307 17.82C25.8828 17.5928 26.6359 17.0903 27.1729 16.3908C27.7099 15.6913 28.0007 14.8339 28 13.952V4C28 2.93913 27.5786 1.92172 26.8284 1.17157C26.0783 0.421428 25.0609 3.74849e-07 24 3.74849e-07H14.048C13.1663 -0.00038118 12.3093 0.290532 11.61 0.827512C10.9107 1.36449 10.4085 2.11745 10.1813 2.96933L5.46664 20.6467L1.22131 24.896C0.63927 25.478 0.24289 26.2195 0.0822976 27.0267C-0.0782949 27.834 0.00411394 28.6708 0.319102 29.4312C0.63409 30.1916 1.16751 30.8415 1.85189 31.2988C2.53628 31.756 3.34089 32.0001 4.16398 32H11.356C12.5823 32.0032 13.797 31.7632 14.9299 31.2937C16.0628 30.8243 17.0913 30.1349 17.956 29.2653L21.956 25.2653C22.5609 24.6621 23.331 24.2515 24.169 24.0855C25.0071 23.9195 25.8755 24.0054 26.6648 24.3325C27.454 24.6596 28.1287 25.2131 28.6036 25.9233C29.0785 26.6334 29.3325 27.4683 29.3333 28.3227V32H32V28.3227C31.9975 26.4702 31.2607 24.6943 29.9511 23.3841C28.6414 22.074 26.8658 21.3365 25.0133 21.3333ZM25.3333 4.55467V12.7813L21.22 8.66667L25.3333 4.55467ZM19.3333 6.78267L15.2186 2.66667H23.4507L19.3333 6.78267ZM24.088 15.308L11.1226 18.7653L19.3333 10.5533L24.088 15.308ZM12.692 3.91067L17.4493 8.66667L9.23331 16.884L12.692 3.91067Z" fill="white" fill-opacity="0.7"/>
</g>
<defs>
<clipPath id="clip0_203_17">
<rect width="32" height="32" fill="white"/>
</clipPath>
</defs>
</svg>
