<svg width="32" height="32" viewBox="0 0 32 32" fill="none" xmlns="http://www.w3.org/2000/svg">
<path d="M20.0893 21.3333C28.8747 21.2973 32 16.6507 32 12.6667C31.9991 11.601 31.6336 10.5678 30.9641 9.73872C30.2946 8.90963 29.3615 8.33465 28.32 8.10934C28.7053 7.02532 29.0171 5.91659 29.2533 4.79067C29.3717 4.21427 29.3598 3.61868 29.2184 3.04748C29.077 2.47629 28.8097 1.94392 28.436 1.48934C28.0576 1.02339 27.5799 0.647853 27.0378 0.390179C26.4957 0.132505 25.9029 -0.000799292 25.3027 5.62981e-06H6.69733C6.09688 -0.000998046 5.50379 0.132211 4.96144 0.389892C4.41909 0.647573 3.94118 1.02321 3.56267 1.48934C3.18901 1.94392 2.9217 2.47629 2.78029 3.04748C2.63887 3.61868 2.62693 4.21427 2.74533 4.79067C2.98097 5.91675 3.2928 7.02552 3.67867 8.10934C2.63737 8.33491 1.70461 8.91001 1.03539 9.73907C0.366181 10.5681 0.000809995 11.6012 0 12.6667C0 16.6507 3.12533 21.2973 11.9107 21.3333C11.9605 21.614 11.9904 21.8978 12 22.1827V26.6667C12.0229 27.0228 11.9696 27.3797 11.8437 27.7137C11.7178 28.0476 11.5222 28.3508 11.2698 28.6032C11.0175 28.8555 10.7142 29.0512 10.3803 29.1771C10.0464 29.303 9.68947 29.3563 9.33333 29.3333H6.66667V32H25.3333V29.3333H22.6773C22.3204 29.3574 21.9625 29.305 21.6275 29.1796C21.2925 29.0543 20.9881 28.8589 20.7347 28.6064C20.4812 28.354 20.2846 28.0504 20.1579 27.7159C20.0312 27.3814 19.9774 27.0237 20 26.6667V22.1827C20.0096 21.8978 20.0395 21.614 20.0893 21.3333ZM27.3333 10.6667C27.8638 10.6667 28.3725 10.8774 28.7475 11.2525C29.1226 11.6275 29.3333 12.1362 29.3333 12.6667C29.3333 15.3973 27.1587 18.3 21.168 18.6333C21.4038 18.3236 21.676 18.0434 21.9787 17.7987C24.2517 15.8482 26.056 13.4104 27.2573 10.6667H27.3333ZM2.66667 12.6667C2.66667 12.1362 2.87738 11.6275 3.25245 11.2525C3.62753 10.8774 4.13623 10.6667 4.66667 10.6667H4.74267C5.94306 13.4106 7.74694 15.8485 10.02 17.7987C10.3231 18.0434 10.5957 18.3236 10.832 18.6333C4.84133 18.3 2.66667 15.3973 2.66667 12.6667ZM17.3333 22.1827V26.6667C17.3183 27.5965 17.5419 28.5146 17.9827 29.3333H14.0173C14.4581 28.5146 14.6817 27.5965 14.6667 26.6667V22.1827C14.6893 20.9496 14.4329 19.7273 13.9166 18.6073C13.4003 17.4873 12.6376 16.4984 11.6853 15.7147C8.4 13.088 6.13333 8.06667 5.35733 4.25334C5.31748 4.06508 5.32076 3.87023 5.36695 3.68342C5.41313 3.49661 5.50101 3.32268 5.624 3.17467C5.75343 3.01501 5.91708 2.88646 6.10286 2.79854C6.28864 2.71061 6.4918 2.66554 6.69733 2.66667H25.3027C25.5071 2.66654 25.7089 2.71208 25.8935 2.79998C26.078 2.88787 26.2406 3.01589 26.3693 3.17467C26.492 3.32287 26.5796 3.49681 26.6258 3.68356C26.672 3.87031 26.6755 4.06506 26.636 4.25334C25.8547 8.06667 23.5933 13.088 20.3067 15.72C19.3567 16.5041 18.596 17.4925 18.0812 18.6114C17.5664 19.7304 17.3108 20.9512 17.3333 22.1827Z" fill="white"/>
</svg>
