<svg width="32" height="32" viewBox="0 0 32 32" fill="none" xmlns="http://www.w3.org/2000/svg">
<path d="M24 11.3332C24 12.2173 23.6488 13.0651 23.0237 13.6902C22.3986 14.3154 21.5507 14.6665 20.6667 14.6665C19.7826 14.6665 18.9348 14.3154 18.3096 13.6902C17.6845 13.0651 17.3333 12.2173 17.3333 11.3332C17.3333 10.4492 17.6845 9.60131 18.3096 8.97619C18.9348 8.35107 19.7826 7.99988 20.6667 7.99988C21.5507 7.99988 22.3986 8.35107 23.0237 8.97619C23.6488 9.60131 24 10.4492 24 11.3332ZM23.992 20.4879C23.9188 22.6064 23.3899 24.6842 22.4413 26.5799C21.5674 28.2326 20.2551 29.6128 18.6484 30.5689C17.0418 31.525 15.2028 32.0201 13.3333 31.9999H12V24.6665C11.994 23.4307 11.5005 22.2472 10.6266 21.3733C9.7527 20.4994 8.56918 20.0058 7.33334 19.9999H3.09944e-06V18.6665C-0.0201813 16.797 0.474928 14.9581 1.43102 13.3514C2.38711 11.7448 3.76724 10.4325 5.42 9.55854C7.31569 8.61001 9.39352 8.08112 11.512 8.00788C13.4545 5.49886 15.949 3.47125 18.802 2.08245C21.655 0.693646 24.7897 -0.0189856 27.9627 -0.00012338C28.4907 -0.00345967 29.0141 0.0974538 29.503 0.296831C29.9919 0.496208 30.4366 0.790128 30.8117 1.16174C31.1868 1.53335 31.4848 1.97534 31.6888 2.46237C31.8927 2.9494 31.9984 3.47189 32 3.99988C32.0226 7.17883 31.3118 10.3202 29.923 13.1798C28.5341 16.0394 26.5045 18.5402 23.992 20.4879ZM2.77867 17.3332H5.79467C6.78486 15.1279 7.94805 13.0043 9.27334 10.9825C8.35282 11.1967 7.46085 11.5189 6.616 11.9425C5.59992 12.4791 4.72361 13.2461 4.05725 14.1822C3.39089 15.1183 2.95301 16.1975 2.77867 17.3332ZM21.0173 22.7265C18.9955 24.0518 16.872 25.215 14.6667 26.2052V29.2212C15.8024 29.0469 16.8816 28.609 17.8176 27.9426C18.7537 27.2763 19.5208 26.4 20.0573 25.3839C20.4809 24.539 20.8032 23.6471 21.0173 22.7265ZM29.3333 3.96254C29.3236 3.61543 29.1789 3.28581 28.9299 3.04378C28.6809 2.80175 28.3473 2.66641 28 2.66654C21.12 2.86254 16.4667 5.49854 11.976 11.7625C10.7229 13.5668 9.6209 15.4715 8.68134 17.4572C10.1372 17.7284 11.4769 18.434 12.5241 19.4811C13.5713 20.5283 14.2769 21.868 14.548 23.3239C16.5337 22.3843 18.4384 21.2824 20.2427 20.0292C26.5013 15.5332 29.1373 10.8799 29.3333 3.96254ZM8.16267 23.8385C8.90769 24.5912 9.32561 25.6075 9.32561 26.6665C9.32561 27.7256 8.90769 28.7419 8.16267 29.4945C6.95334 30.7025 3.33334 31.4479 1.832 31.7132L-0.0426636 32.0425L0.28667 30.1679C0.553337 28.6665 1.29734 25.0465 2.50534 23.8372C3.26767 23.1101 4.28078 22.7045 5.33427 22.7048C6.38776 22.705 7.40068 23.1111 8.16267 23.8385ZM6.66667 26.6665C6.66714 26.4914 6.63286 26.3179 6.5658 26.1561C6.49874 25.9942 6.40024 25.8473 6.276 25.7239C6.02597 25.4739 5.68689 25.3335 5.33334 25.3335C4.97978 25.3335 4.64071 25.4739 4.39067 25.7239C3.88233 26.6415 3.5253 27.6352 3.33334 28.6665C4.36508 28.4738 5.3591 28.1163 6.27734 27.6079C6.40117 27.4844 6.49933 27.3377 6.56616 27.1762C6.63298 27.0146 6.66714 26.8414 6.66667 26.6665Z" fill="white"/>
</svg>
