<svg width="849" height="232" viewBox="0 0 849 232" fill="none" xmlns="http://www.w3.org/2000/svg">
<g clip-path="url(#clip0_3685_1109)">
<path fill-rule="evenodd" clip-rule="evenodd" d="M840.67 190.09C841.81 189.88 841.93 190.53 842 191.22C838.49 201.14 835.88 192.29 836.68 202.57C810.61 234.8 738.25 229.5 677.06 230.93C583.12 233.13 464.48 225.93 368.45 226.39C363.24 228.19 365.69 223.45 363.13 222.99C355.89 225.99 328.42 228.21 313.91 224.12C281.15 230.23 234.29 226.93 203.5 227.53C185.68 227.87 168.36 228.43 150.29 227.53C133.84 226.71 117.5 222.8 101.07 221.86C77.29 207.86 44.19 205.81 23.92 184.41C-18.53 139.59 -1.28999 50.7001 50.53 23.3001C82.53 6.40009 145.38 9.68009 198.18 9.69009C359.53 9.69009 485.18 -4.91991 619.86 1.74009C646.31 2.51009 673.15 1.11009 705 4.00009C733.17 6.57009 772 9.22009 791.46 22.1601C797.6 26.2401 807.27 39.8801 814.07 49.3801C836.76 81.0401 863.82 145.83 839.35 192.38C840.63 192.33 840.38 191 840.67 190.09ZM610.55 15.3601C597.68 14.3601 592.14 12.2401 579.95 17.6201C610.05 18.4001 670.63 20.0201 714.31 18.7601C672.37 14.7601 645.31 14.8801 619.86 14.2201C619.86 13.0901 620.93 12.8701 621.19 11.9501C616.91 10.9501 619.37 15.6901 615.87 15.3601C617 12.0801 611.28 9.87009 610.55 15.3601ZM481.55 17.6201C485.74 16.3301 484.79 19.4101 486.88 19.9001C487.25 17.2701 490.43 17.2901 492.19 18.7601C491.32 15.7601 487.32 15.3601 485.54 13.0901C485.9 16.0701 480.35 14.0001 481.51 17.6201H481.55ZM442.98 16.4901C437.51 19.4201 437.32 17.5901 430.98 16.4901C430.59 17.1901 427.67 20.8601 430.98 21.0301C431.47 15.1801 439.39 24.2701 440.29 18.7601C439.76 23.4501 449.41 20.9701 453.59 16.4901C451.52 14.3501 448.41 18.1201 445.59 15.3601C441.54 17.3601 449.22 18.8701 445.59 19.9001C443.73 19.6001 444.08 17.4101 442.94 16.4901H442.98ZM416.33 21.0001C418.58 22.7801 422.44 19.5401 425.65 18.7301C421.58 19.5501 421.74 16.7301 417.65 17.5901C417.67 18.8551 417.196 20.078 416.33 21.0001V21.0001ZM717 21.0001H725V18.7601C723.66 18.7601 723.41 17.8401 722.33 17.6201C721.92 20.0001 717.33 18.7001 717 21.0001ZM57.18 46.0001C64.62 40.6301 79.26 41.3801 83.78 33.5201C71.12 33.6901 56.65 38.3401 57.18 46.0001ZM73.18 64.1501C75.59 61.3001 80.93 60.9301 82.49 57.3501C78.79 58.4301 70.57 61.5101 73.14 64.1401L73.18 64.1501ZM93.18 77.7701C95.38 74.4201 109.18 69.8601 103.83 67.5601C100.29 70.3101 90.41 73.5401 93.09 77.7601L93.18 77.7701ZM662.43 130C658.49 130.17 653.03 126.71 651.78 131.14C657.31 129.86 659.1 132 662.43 130ZM90.43 139C94.79 140.59 99.55 133.8 94.43 134.46C96.38 138.81 88.48 134.71 90.43 139ZM738.24 140.13C740.55 137.94 749.14 141.13 748.89 136.73C746 137.8 735.91 138.47 738.24 140.16V140.13ZM755.54 153.75C763.39 154.86 777.67 150.33 772.83 148.08C768.51 151.23 759.67 150.5 755.54 153.78V153.75ZM750.22 162.83C754.874 162.864 759.457 161.689 763.52 159.42C758.61 160.18 753.35 160.61 750.22 162.86V162.83ZM760.86 175.31C763.93 179.94 752.94 178.21 758.2 180.98C764.4 179.08 771.2 177.73 774.2 173.04C769.4 173.55 767.06 176.09 760.86 175.34V175.31ZM820.72 212.75C823.37 208.75 835.67 201.63 831.36 199.13C826.92 206.58 820.75 205.38 820.72 212.78V212.75ZM790.12 210.48C796.73 210.82 800.87 209.06 803.42 205.94C798.81 207.33 793.1 207.75 790.12 210.51V210.48ZM779.48 223C795.48 220.52 812.48 219.95 815.4 210.52C804.77 215.81 789.69 217.33 779.48 223Z" fill="#FF6961"/>
<path d="M135.423 100.504C135.423 106.258 133.1 109.134 128.453 109.134C126.314 109.134 124.986 108.323 124.47 106.7C124.028 105.004 122.294 104.155 119.27 104.155C115.803 104.155 111.673 104.893 106.878 106.368C87.627 112.269 78.0013 122.854 78.0013 138.122C78.0013 149.481 85.0454 155.16 99.1335 155.16C105.551 155.16 110.566 154.497 114.181 153.169C118.754 151.399 122.479 148.153 125.355 143.433C126.683 141.294 128.084 140.224 129.56 140.224C131.182 140.224 132.51 141.109 133.543 142.879C134.575 144.65 135.092 146.383 135.092 148.079C135.092 149.26 134.833 150.403 134.317 151.509C131.809 157.115 126.72 161.578 119.049 164.897C112.484 167.7 105.698 169.101 98.691 169.101C77.3743 169.101 66.716 158.701 66.716 137.901C66.716 129.861 68.4494 122.854 71.9161 116.879C76.3417 109.282 83.1645 102.975 92.3845 97.9596C101.309 93.0914 110.308 90.6573 119.381 90.6573C123.511 90.6573 126.978 91.2843 129.781 92.5382C133.543 94.2347 135.423 96.8901 135.423 100.504ZM205 158.59C205 160.139 204.963 161.061 204.889 161.356C204.889 163.348 204.188 165.155 202.787 166.778C201.385 168.4 199.726 169.212 197.808 169.212C195.448 169.212 194.046 167.773 193.604 164.897C193.53 164.528 193.493 162.205 193.493 157.926C193.493 145.24 192.866 138.491 191.612 137.679C190.875 137.163 189.989 136.905 188.957 136.905C186.08 136.905 180.032 138.048 170.812 140.335C161.002 142.695 155.654 144.576 154.769 145.977C154.4 146.567 154.216 148.522 154.216 151.841C154.216 152.579 154.253 153.685 154.326 155.16C154.474 156.562 154.548 157.595 154.548 158.258C154.548 164.454 152.077 167.552 147.135 167.552C144.775 167.552 143.336 165.634 142.82 161.799C142.746 161.061 142.709 158.148 142.709 153.058C142.709 140.445 144.037 124.55 146.692 105.372C147.282 101.316 149.2 99.2873 152.446 99.2873C154.216 99.2873 155.617 99.9511 156.65 101.279C157.683 102.533 158.199 104.045 158.199 105.815C158.199 107.954 157.83 111.199 157.092 115.551C156.355 119.903 155.986 123.185 155.986 125.398C155.986 127.169 155.986 128.091 155.986 128.164C156.207 129.271 156.761 129.824 157.646 129.824C158.531 129.824 161.149 129.271 165.501 128.164C170.369 126.837 173.283 126.062 174.242 125.841C179.11 125.029 184.531 123.849 190.506 122.3C191.391 121.784 191.833 119.977 191.833 116.879C191.833 109.282 191.17 104.561 189.842 102.717C188.736 101.094 188.182 99.6929 188.182 98.5128C188.182 97.0376 188.92 95.4886 190.395 93.8659C191.87 92.1694 193.346 91.3212 194.821 91.3212C196.222 91.3212 197.66 92.1694 199.136 93.8659C202.234 97.3326 203.783 102.828 203.783 110.351C203.783 115.736 203.967 123.776 204.336 134.471C204.778 145.166 205 153.206 205 158.59ZM271.252 103.823C271.326 104.414 271.437 105.004 271.584 105.594C272.838 112.453 273.465 118.944 273.465 125.066C273.465 149.997 261.663 164.675 238.06 169.101C235.7 169.544 233.45 169.765 231.311 169.765C223.271 169.765 217.813 166.409 214.936 159.697C213.092 155.345 212.17 148.485 212.17 139.118C212.17 123.628 213.793 110.646 217.039 100.172C217.997 97.1482 219.51 95.6361 221.575 95.6361C223.345 95.6361 224.82 96.4844 226 98.1809C227.181 99.8036 227.771 101.537 227.771 103.381C227.771 103.897 227.697 104.487 227.549 105.151C224.747 120.272 223.345 132.074 223.345 140.556C223.345 145.35 223.64 148.78 224.23 150.845C225.337 154.755 227.623 156.709 231.09 156.709C232.934 156.709 235.847 156.082 239.83 154.829C248.239 152.173 253.992 148.78 257.09 144.65C260.188 140.519 261.737 134.065 261.737 125.288C261.737 122.411 261.553 119.313 261.184 115.994C260.815 112.306 259.635 107.143 257.643 100.504C257.422 99.6192 257.312 98.8078 257.312 98.0702C257.312 96.3 257.902 94.6404 259.082 93.0914C260.336 91.4687 261.848 90.6573 263.618 90.6573C264.503 90.6573 265.315 90.9893 266.052 91.6531C266.2 91.6531 266.31 91.69 266.384 91.7637C266.605 91.9113 266.937 92.1325 267.38 92.4276C267.896 92.7226 268.265 92.907 268.486 92.9808C269.076 93.2758 269.556 93.4602 269.925 93.534C270.367 93.534 270.847 93.4233 271.363 93.2021C272.322 92.5382 273.022 91.69 273.465 90.6573C274.571 88.297 274.645 86.4899 273.686 85.236C273.096 84.4984 271.51 83.5026 268.929 82.2487C265.978 80.8473 265.278 78.4869 266.827 75.1677C268.449 71.7748 271.4 71.0741 275.678 73.0656C279.735 74.9096 282.206 77.9706 283.091 82.2487C284.05 86.158 283.533 90.1779 281.542 94.3085C279.771 98.0702 277.337 100.799 274.239 102.496C273.207 103.086 272.211 103.528 271.252 103.823ZM348.829 124.624C349.05 118.649 346.874 113.855 342.301 110.241C338.171 106.848 333.007 105.151 326.812 105.151C318.846 105.151 311.027 108.028 303.356 113.781C295.021 120.051 290.854 127.021 290.854 134.692C290.854 140.667 292.735 145.682 296.496 149.739C300.258 153.722 305.163 155.714 311.211 155.714C318.882 155.714 326.996 152.874 335.552 147.194C344.182 141.441 348.608 134.397 348.829 126.062V124.624ZM357.348 109.245C359.34 113.375 360.336 117.949 360.336 122.964C360.336 135.798 355.172 146.678 344.846 155.603C334.225 164.749 322.939 169.322 310.99 169.322C301.918 169.322 294.394 166.151 288.42 159.807C282.519 153.39 279.568 145.609 279.568 136.462C279.568 126.21 283.441 116.879 291.186 108.47C298.34 100.578 307.081 95.1936 317.407 92.3169C320.358 91.5793 323.345 91.2105 326.369 91.2105C335.663 91.2105 343.592 94.1241 350.157 99.9511C350.23 100.025 350.341 100.135 350.489 100.283H350.599C351.189 100.578 351.669 100.762 352.038 100.836C352.48 100.836 352.96 100.726 353.476 100.504C354.435 99.8405 355.135 98.9922 355.578 97.9596C356.684 95.5992 356.758 93.7921 355.799 92.5382C355.209 91.8006 353.623 90.8048 351.042 89.5509C348.091 88.1495 347.391 85.7892 348.94 82.47C350.562 79.077 353.513 78.3763 357.791 80.3678C361.848 82.2118 364.319 85.2729 365.204 89.5509C366.163 93.4602 365.646 97.4801 363.655 101.611C362.032 105.004 359.93 107.548 357.348 109.245ZM427.208 111.236C427.208 113.007 427.097 115.699 426.876 119.313C426.728 122.927 426.655 125.62 426.655 127.39C426.655 129.308 426.692 132.221 426.765 136.13C426.765 140.04 426.765 142.953 426.765 144.871C426.765 152.911 426.655 158.553 426.433 161.799C426.138 165.782 424.147 167.773 420.459 167.773C419.352 167.773 418.209 167.405 417.029 166.667C407.44 160.545 398.183 151.104 389.258 138.343C386.013 133.696 383.874 131.373 382.841 131.373C382.546 131.373 382.325 131.594 382.177 132.037C380.924 135.872 379.743 140.925 378.637 147.194C377.162 155.455 376.203 160.545 375.76 162.463C374.875 166.372 372.773 168.327 369.454 168.327C367.905 168.327 366.651 167.773 365.692 166.667C364.733 165.561 364.254 164.196 364.254 162.573C364.254 160.139 365.028 155.234 366.577 147.858C367.757 142.769 368.938 137.679 370.118 132.59C372.035 123.517 372.994 113.892 372.994 103.713C372.994 101.721 373.695 99.8405 375.096 98.0702C376.572 96.3 378.268 95.4148 380.186 95.4148C381.882 95.4148 383.21 96.8532 384.169 99.7298C389.332 115.514 397.077 129.123 407.403 140.556C410.501 144.023 412.603 145.756 413.71 145.756C414.742 145.756 415.259 143.359 415.259 138.564C415.259 127.427 415.111 119.202 414.816 113.892C414.742 112.933 414.558 110.831 414.263 107.585C414.042 104.93 413.931 102.791 413.931 101.168C413.931 94.8248 415.369 91.6531 418.246 91.6531C420.016 91.6531 421.713 92.6857 423.336 94.751C424.737 96.5213 425.659 98.3653 426.102 100.283C426.839 103.307 427.208 106.958 427.208 111.236ZM524.026 129.824C524.026 130.93 523.915 132.037 523.694 133.143C521.407 144.871 514.474 154.386 502.893 161.688C492.346 168.4 480.729 171.756 468.042 171.756C460.813 171.756 454.249 170.503 448.348 167.995C440.972 164.897 436.509 160.361 434.961 154.386C434.297 152.099 433.965 149.628 433.965 146.973C433.965 139.228 436.436 131.299 441.378 123.185C446.025 115.367 451.741 109.282 458.527 104.93C460.223 103.823 463.764 101.832 469.148 98.9553C481.392 92.3169 491.35 88.9977 499.021 88.9977C501.824 88.9977 504.111 89.8091 505.881 91.4318C507.725 92.9808 508.647 95.1198 508.647 97.8489C508.647 99.988 507.983 101.758 506.655 103.16C505.328 104.487 503.594 105.151 501.455 105.151C500.423 105.151 499.132 104.856 497.583 104.266C496.108 103.676 495.186 103.381 494.817 103.381C493.71 103.381 491.424 103.971 487.957 105.151C480.434 107.733 473.943 110.646 468.484 113.892C463.026 117.137 457.826 121.784 452.884 127.832C447.205 134.766 444.365 140.925 444.365 146.309C444.365 150.514 447.684 153.648 454.323 155.714C459.043 157.189 464.169 157.926 469.701 157.926C484.527 157.926 496.919 152.173 506.877 140.667C509.606 137.569 510.97 135.171 510.97 133.475C510.97 130.746 508.278 129.381 502.893 129.381C499.427 129.381 495.112 130.082 489.949 131.483C484.195 133.032 480.286 134.766 478.221 136.684C476.598 138.233 475.307 139.007 474.348 139.007C473.094 139.007 471.914 137.974 470.808 135.909C469.849 134.139 469.37 132.516 469.37 131.041C469.37 126.173 473.98 122.263 483.2 119.313C490.133 117.1 496.735 115.994 503.004 115.994C508.61 115.994 513.22 116.879 516.834 118.649C521.629 121.01 524.026 124.734 524.026 129.824ZM656.459 157.926C656.459 159.623 655.722 161.246 654.246 162.795C652.771 164.27 651.222 165.007 649.599 165.007C647.829 165.007 646.391 163.606 645.285 160.803C642.334 153.796 639.605 144.576 637.097 133.143C636.581 131.004 636.175 129.455 635.88 128.496C635.143 126.062 634.479 124.808 633.889 124.734C633.594 124.808 633.372 124.993 633.225 125.288C630.864 129.049 628.393 134.803 625.812 142.547C623.009 150.809 620.722 156.636 618.952 160.029C617.698 162.315 616.26 163.458 614.637 163.458C612.719 163.458 610.912 162.573 609.216 160.803C607.519 159.033 606.634 157.189 606.561 155.271C606.265 150.845 604.495 144.502 601.25 136.241C599.701 132.405 598.521 130.488 597.709 130.488C597.414 130.488 596.972 131.115 596.382 132.369C594.464 136.057 591.145 145.092 586.424 159.475C583.842 167.441 580.302 171.425 575.803 171.425C574.18 171.425 572.852 170.613 571.82 168.99C570.861 167.589 570.381 166.04 570.381 164.344C570.381 162.721 571.156 160.619 572.705 158.037C574.844 154.423 576.024 152.358 576.245 151.841C582.441 136.573 587.162 120.235 590.407 102.828C591.218 98.4021 593.689 96.1893 597.82 96.1893C600.402 96.1893 602.135 96.8532 603.02 98.1809C603.61 99.1397 603.905 100.91 603.905 103.492C603.905 109.687 606.081 117.985 610.433 128.386C612.203 132.811 613.494 135.024 614.305 135.024C614.527 135.024 614.674 134.987 614.748 134.913C616.297 134.397 619.579 127.058 624.595 112.896C625.775 109.355 628.209 103.528 631.897 95.4148C633.003 92.8333 634.405 91.2474 636.101 90.6573C636.839 90.4361 637.613 90.3254 638.425 90.3254C640.343 90.3254 641.965 91.0261 643.293 92.4276C644.621 93.829 645.285 95.4886 645.285 97.4064C645.285 98.144 645.1 99.1397 644.731 100.394C644.436 101.574 644.289 102.496 644.289 103.16C644.289 111.79 646.354 123.407 650.485 138.011C650.485 138.233 651.628 141.736 653.914 148.522C655.611 153.833 656.459 156.968 656.459 157.926ZM729.37 124.624C729.591 118.649 727.415 113.855 722.842 110.241C718.712 106.848 713.549 105.151 707.353 105.151C699.387 105.151 691.568 108.028 683.897 113.781C675.562 120.051 671.395 127.021 671.395 134.692C671.395 140.667 673.276 145.682 677.037 149.739C680.799 153.722 685.704 155.714 691.752 155.714C699.424 155.714 707.537 152.874 716.093 147.194C724.723 141.441 729.149 134.397 729.37 126.062V124.624ZM737.889 109.245C739.881 113.375 740.877 117.949 740.877 122.964C740.877 135.798 735.713 146.678 725.387 155.603C714.766 164.749 703.48 169.322 691.531 169.322C682.459 169.322 674.935 166.151 668.961 159.807C663.06 153.39 660.109 145.609 660.109 136.462C660.109 126.21 663.982 116.879 671.727 108.47C678.881 100.578 687.622 95.1936 697.948 92.3169C700.899 91.5793 703.886 91.2105 706.91 91.2105C716.204 91.2105 724.133 94.1241 730.698 99.9511C730.772 100.025 730.882 100.135 731.03 100.283H731.14C731.73 100.578 732.21 100.762 732.579 100.836C733.021 100.836 733.501 100.726 734.017 100.504C734.976 99.8405 735.677 98.9922 736.119 97.9596C737.226 95.5992 737.299 93.7921 736.34 92.5382C735.75 91.8006 734.164 90.8048 731.583 89.5509C728.632 88.1495 727.932 85.7892 729.481 82.47C731.103 79.077 734.054 78.3763 738.332 80.3678C742.389 82.2118 744.86 85.2729 745.745 89.5509C746.704 93.4602 746.187 97.4801 744.196 101.611C742.573 105.004 740.471 107.548 737.889 109.245ZM734.238 71.406C734.238 73.1762 732.874 74.8358 730.145 76.3848C721.736 81.2529 717.31 83.7977 716.868 84.0189C711.705 86.8956 707.131 89.219 703.148 90.9893C702.19 91.4318 701.231 91.6531 700.272 91.6531C698.206 91.6531 696.805 90.8786 696.067 89.3296C694.961 86.6743 696.842 84.2771 701.71 82.138C704.513 80.8841 708.533 78.6713 713.77 75.4996C719.081 72.2542 723.137 70.0045 725.94 68.7506C727.194 68.1605 728.448 67.8655 729.702 67.8655C732.726 67.8655 734.238 69.0456 734.238 71.406ZM765.485 100.615C765.485 104.598 765.226 110.609 764.71 118.649C764.267 126.615 764.046 132.627 764.046 136.684C764.046 139.191 764.194 143.027 764.489 148.19C764.784 153.28 764.931 157.078 764.931 159.586C764.931 161.799 764.231 163.68 762.829 165.229C761.501 166.704 759.731 167.441 757.518 167.441C753.757 167.441 751.876 165.155 751.876 160.582C751.876 159.402 751.95 157.89 752.097 156.046C752.318 153.611 752.466 152.099 752.54 151.509C753.203 139.708 753.535 129.861 753.535 121.968C753.535 117.543 753.462 113.449 753.314 109.687C753.24 108.95 753.093 107.29 752.872 104.709C752.65 102.643 752.54 100.984 752.54 99.7298C752.54 95.4517 754.494 93.3127 758.404 93.3127C760.469 93.3127 762.165 94.0134 763.493 95.4148C764.821 96.8163 765.485 98.5496 765.485 100.615Z" fill="white"/>
</g>
<defs>
<clipPath id="clip0_3685_1109">
<rect width="849" height="231.35" fill="white"/>
</clipPath>
</defs>
</svg>
