<svg width="24" height="24" viewBox="0 0 24 24" fill="none" xmlns="http://www.w3.org/2000/svg">
<path d="M17.4978 0C16.3722 0.0187735 15.2711 0.3557 14.3058 0.976755C13.3405 1.59781 12.5451 2.481 12 3.53714C11.4549 2.481 10.6595 1.59781 9.69417 0.976755C8.72886 0.3557 7.62781 0.0187735 6.50222 0C4.70788 0.0835951 3.01733 0.925287 1.7999 2.34119C0.582466 3.75709 -0.0628841 5.63211 0.00483915 7.55661C0.00483915 14.8185 10.9564 23.2058 11.4222 23.5616L12 24L12.5778 23.5616C13.0436 23.2079 23.9952 14.8185 23.9952 7.55661C24.0629 5.63211 23.4175 3.75709 22.2001 2.34119C20.9827 0.925287 19.2921 0.0835951 17.4978 0V0Z" fill="#BAB9C0"/>
</svg>
