<svg width="703" height="233" viewBox="0 0 703 233" fill="none" xmlns="http://www.w3.org/2000/svg">
<g clip-path="url(#clip0_3685_1112)">
<path fill-rule="evenodd" clip-rule="evenodd" d="M695.39 191.06C696.33 190.86 696.39 191.49 696.49 192.16C693.58 201.77 691.42 193.16 692.09 203.16C670.52 234.42 610.67 229.28 560.09 230.67C482.39 232.8 384.25 225.8 304.81 226.27C300.51 228.01 302.53 223.41 300.42 222.97C294.42 225.86 271.7 228.03 259.7 224.07C232.6 229.98 193.84 226.79 168.37 227.37C153.63 227.7 139.3 228.24 124.37 227.37C110.76 226.58 97.24 222.78 83.66 221.87C63.98 208.3 36.6 206.31 19.84 185.56C-15.28 142.09 -1.02 55.8799 41.84 29.3099C68.28 12.9199 120.31 16.0999 163.98 16.1099C297.45 16.1099 401.38 1.93987 512.79 8.39987C534.67 9.14987 556.87 7.77988 583.2 10.5999C606.51 13.0999 638.64 15.6599 654.73 28.2099C659.81 32.2099 667.8 45.3999 673.43 54.6099C692.2 85.3099 714.58 148.15 694.34 193.26C695.36 193.23 695.14 191.91 695.39 191.06ZM505 21.6099C494.36 20.6099 489.77 18.6099 479.69 23.7999C504.6 24.5499 554.69 26.1199 590.83 24.9099C556.14 21.0399 533.72 21.1499 512.71 20.5099C512.71 19.3999 513.6 19.1999 513.8 18.2999C510.27 17.2999 512.3 21.9299 509.4 21.6099C510.33 18.4199 505.64 16.2799 505 21.6099ZM398.3 23.7999C401.76 22.5499 400.97 25.5299 402.7 26.0099C403.01 23.4599 405.64 23.4799 407.1 24.9099C406.38 21.9599 403.1 21.6099 401.6 19.4099C401.93 22.2999 397.33 20.2699 398.3 23.7999ZM366.39 22.6999C361.87 25.5499 361.71 23.7699 356.49 22.6999C356.17 23.3799 353.75 26.9399 356.49 27.1099C356.89 21.4299 363.49 30.2499 364.19 24.9099C363.75 29.4499 371.74 27.0499 375.19 22.6999C373.48 20.6299 370.9 24.2799 368.58 21.6099C365.23 23.5399 371.58 25.0099 368.58 26.0099C367.05 25.7199 367.34 23.5999 366.39 22.6999ZM344.39 27.1099C346.25 28.8299 349.45 25.6999 352.1 24.9099C348.73 25.6999 348.86 23.0099 345.5 23.7999C345.519 24.9992 345.123 26.1684 344.38 27.1099H344.39ZM593.07 27.1099H599.67V24.9099C598.57 24.9099 598.36 24.0199 597.47 23.7999C597.16 26.0699 593.36 24.8499 593.06 27.1099H593.07ZM47.29 51.3099C53.45 46.0999 65.56 46.8399 69.29 39.2099C58.83 39.3799 46.86 43.8899 47.29 51.3099ZM60.5 68.9199C62.5 66.1499 66.91 65.7899 68.2 62.3199C65.17 63.3699 58.37 66.3599 60.5 68.9199ZM77 82.1199C78.81 78.8699 90.18 74.4599 85.8 72.2199C83 74.8999 74.79 77.9999 77 82.1199ZM548 132.74C544.74 132.9 540.23 129.54 539.19 133.84C543.72 132.65 545.19 134.75 548 132.74ZM74.8 141.54C78.4 143.08 82.34 136.54 78.1 137.14C79.72 141.33 73.19 137.36 74.8 141.54ZM610.66 142.64C612.57 140.52 619.66 143.64 619.47 139.34C617.11 140.35 608.73 141 610.66 142.64ZM625 155.85C631.49 156.93 643.31 152.53 639.31 150.35C635.7 153.37 628.39 152.67 625 155.85ZM620.6 164.65C624.512 164.661 628.34 163.513 631.6 161.35C627.51 162.06 623.16 162.47 620.57 164.65H620.6ZM629.4 176.76C631.94 181.25 622.85 179.57 627.2 182.26C632.33 180.41 637.98 179.1 640.4 174.55C636.44 175 634.5 177.48 629.37 176.76H629.4ZM678.91 213.06C681.11 209.15 691.28 202.28 687.72 199.86C684 207.06 678.91 205.89 678.88 213.06H678.91ZM653.61 210.86C659.07 211.19 662.5 209.48 664.61 206.46C660.76 207.78 656 208.18 653.58 210.86H653.61ZM644.78 223C657.98 220.6 672.08 220 674.48 210.89C665.69 216 653.22 217.47 644.78 223Z" fill="#77DD77"/>
<path d="M246.08 69.3458C246.08 72.2786 245.435 75.0941 244.145 77.7924C242.502 80.9598 240.391 82.5435 237.81 82.5435C236.754 82.5435 235.288 82.2503 233.411 81.6637C231.651 81.0771 230.243 80.7838 229.187 80.7838C225.668 80.7838 216.928 82.3089 202.968 85.3591C189.125 88.2919 181.265 90.4035 179.388 91.694C177.511 92.8671 175.986 97.0904 174.812 104.364C173.874 110.229 173.405 115.039 173.405 118.793C173.405 120.905 174.343 121.961 176.22 121.961C178.097 121.961 181.441 121.316 186.251 120.025C205.373 114.746 221.855 112.107 235.698 112.107C240.86 112.107 243.441 114.863 243.441 120.377C243.441 129.058 239.98 133.633 233.059 134.103C222.266 134.807 213.702 135.804 207.367 137.094C199.624 138.737 193.465 140.203 188.89 141.493C179.857 143.957 174.343 146.362 172.349 148.708C170.472 151.055 169.533 158.211 169.533 170.177C169.533 176.394 169.123 180.793 168.302 183.374C166.894 188.536 163.902 191.117 159.327 191.117C152.406 191.117 148.945 184.899 148.945 172.464C148.945 167.889 150.177 157.859 152.64 142.373C152.406 141.318 152.288 140.262 152.288 139.206C152.288 137.212 152.758 135.393 153.696 133.751C155.338 112.869 156.16 102.252 156.16 101.9C156.16 99.6713 155.456 97.325 154.048 94.8614C152.64 92.2805 151.936 89.1717 151.936 85.535C151.936 80.9598 153.755 77.7337 157.391 75.8567C164.548 72.1027 175.106 68.7592 189.066 65.8264C200.211 63.8321 211.356 61.7791 222.5 59.6674C225.433 59.0809 228.131 58.7876 230.595 58.7876C240.919 58.7876 246.08 62.307 246.08 69.3458ZM366.207 115.802C366.207 137.27 360.4 153.87 348.786 165.601C338.228 176.277 322.215 183.316 300.747 186.718C296.523 187.422 292.593 187.774 288.957 187.774C274.058 187.774 264.086 182.729 259.042 172.64C255.522 165.719 253.763 153.987 253.763 137.446C253.763 114.453 256.754 94.3335 262.737 77.0885C264.497 72.2786 267.019 69.8737 270.304 69.8737C273.119 69.8737 275.407 71.1641 277.167 73.745C279.044 76.2086 279.982 78.8482 279.982 81.6637C279.982 82.7195 279.806 83.834 279.454 85.0071C274.292 107.297 271.711 128.002 271.711 147.125C271.711 153.459 272.533 158.093 274.175 161.026C276.521 165.249 280.686 167.361 286.669 167.361C288.311 167.361 290.247 167.126 292.476 166.657C311.481 163.255 325.676 158.035 335.061 150.996C343.273 144.896 347.379 133.399 347.379 116.506C347.379 111.461 346.968 106.299 346.147 101.02C345.443 95.624 343.273 87.8226 339.636 77.6164C339.049 75.974 338.756 74.5076 338.756 73.2171C338.756 70.4016 339.695 67.8794 341.572 65.6504C343.566 63.4215 345.912 62.307 348.61 62.307C354.476 62.307 359.11 69.9324 362.512 85.1831C364.976 96.3279 366.207 106.534 366.207 115.802ZM477.794 148.532C477.794 154.281 475.155 157.448 469.876 158.035C448.055 160.498 428.757 166.423 411.982 175.808C408.462 178.037 404.943 180.324 401.423 182.67C397.317 185.134 393.446 186.366 389.809 186.366C382.067 186.366 378.195 179.092 378.195 164.546C378.195 161.847 378.371 158.856 378.723 155.571C379.896 145.717 380.894 131.991 381.715 114.394C382.536 95.1547 383.357 81.4291 384.178 73.2171C384.765 66.7649 387.58 63.5388 392.625 63.5388C395.675 63.5388 398.021 64.7119 399.664 67.0582C401.423 69.4044 402.303 72.1613 402.303 75.3288C402.303 83.3061 401.717 95.272 400.544 111.227C399.37 127.181 398.784 139.206 398.784 147.301C398.784 153.635 399.898 156.803 402.127 156.803C403.77 156.803 406.116 155.923 409.166 154.163C411.512 152.873 413.8 151.582 416.029 150.292C435.151 141.024 452.396 136.39 467.764 136.39C474.451 136.39 477.794 140.438 477.794 148.532ZM586.573 148.532C586.573 154.281 583.933 157.448 578.654 158.035C556.834 160.498 537.536 166.423 520.76 175.808C517.241 178.037 513.721 180.324 510.202 182.67C506.096 185.134 502.224 186.366 498.588 186.366C490.845 186.366 486.974 179.092 486.974 164.546C486.974 161.847 487.15 158.856 487.502 155.571C488.675 145.717 489.672 131.991 490.493 114.394C491.314 95.1547 492.135 81.4291 492.957 73.2171C493.543 66.7649 496.359 63.5388 501.403 63.5388C504.453 63.5388 506.8 64.7119 508.442 67.0582C510.202 69.4044 511.082 72.1613 511.082 75.3288C511.082 83.3061 510.495 95.272 509.322 111.227C508.149 127.181 507.562 139.206 507.562 147.301C507.562 153.635 508.677 156.803 510.906 156.803C512.548 156.803 514.894 155.923 517.944 154.163C520.291 152.873 522.578 151.582 524.807 150.292C543.929 141.024 561.174 136.39 576.542 136.39C583.229 136.39 586.573 140.438 586.573 148.532Z" fill="white"/>
</g>
<defs>
<clipPath id="clip0_3685_1112">
<rect width="702.28" height="232.17" fill="white"/>
</clipPath>
</defs>
</svg>
