<svg width="36" height="36" viewBox="0 0 36 36" fill="none" xmlns="http://www.w3.org/2000/svg">
<g clip-path="url(#clip0_727_183)">
<path d="M18.4988 14.4647H16.4487V18.5922H18.4988C19.7974 18.5922 20.8531 17.6661 20.8531 16.529C20.8531 15.3908 19.7974 14.4647 18.4988 14.4647Z" fill="white"/>
<path d="M18 5.34593C11.0215 5.34593 5.34595 11.0215 5.34595 18C5.34595 24.9785 11.0215 30.6541 18 30.6541C24.9785 30.6541 30.6541 24.9785 30.6541 18C30.6541 11.0215 24.9785 5.34593 18 5.34593ZM18.4988 20.885H16.4488V23.8909C16.4488 24.4688 15.9808 24.9368 15.4029 24.9368H14.8777C14.2998 24.9368 13.8318 24.4688 13.8318 23.8909V13.2166C13.8318 12.6398 14.2998 12.1718 14.8777 12.1718H18.4988C21.2399 12.1718 23.4712 14.1263 23.4712 16.529C23.4712 18.9317 21.2399 20.885 18.4988 20.885Z" fill="white"/>
<path d="M18 0C8.05957 0 0 8.05957 0 18C0 27.9416 8.05957 36 18 36C27.9404 36 36 27.9416 36 18C36 8.05957 27.9404 0 18 0ZM18 31.9197C10.325 31.9197 4.0803 25.675 4.0803 18C4.0803 10.325 10.325 4.0803 18 4.0803C25.675 4.0803 31.9197 10.325 31.9197 18C31.9197 25.675 25.675 31.9197 18 31.9197Z" fill="white"/>
</g>
<defs>
<clipPath id="clip0_727_183">
<rect width="36" height="36" fill="white"/>
</clipPath>
</defs>
</svg>
