<svg width="36" height="36" viewBox="0 0 36 36" fill="none" xmlns="http://www.w3.org/2000/svg">
<path d="M36 36H0V4.5C0 3.30653 0.474106 2.16193 1.31802 1.31802C2.16193 0.474106 3.30653 0 4.5 0L31.5 0C32.6935 0 33.8381 0.474106 34.682 1.31802C35.5259 2.16193 36 3.30653 36 4.5V36ZM3 33H33V4.5C33 4.10218 32.842 3.72064 32.5607 3.43934C32.2794 3.15804 31.8978 3 31.5 3H4.5C4.10218 3 3.72064 3.15804 3.43934 3.43934C3.15804 3.72064 3 4.10218 3 4.5V33ZM12 26.5845V9.4155L27.024 18L12 26.5845ZM15 14.5845V21.4155L20.976 18L15 14.5845Z" fill="white"/>
</svg>
