<svg width="24" height="24" viewBox="0 0 24 24" fill="none" xmlns="http://www.w3.org/2000/svg">
<g clip-path="url(#clip0_727_892)">
<path d="M19.3327 14.6671C18.5761 14.6673 17.8309 14.8516 17.1614 15.204C16.4919 15.5564 15.9182 16.0665 15.4897 16.6901L8.98974 13.7551C9.44557 12.6357 9.44916 11.3831 8.99974 10.2611L15.4937 7.3121C16.127 8.23084 17.0686 8.89217 18.1477 9.1761C19.2268 9.46003 20.3719 9.34777 21.3754 8.85966C22.3788 8.37156 23.174 7.53995 23.6168 6.51572C24.0595 5.49148 24.1205 4.34247 23.7886 3.27713C23.4567 2.21179 22.754 1.3007 21.8078 0.709152C20.8617 0.117601 19.7349 -0.115223 18.6318 0.0529191C17.5287 0.221061 16.5224 0.77903 15.7955 1.6256C15.0686 2.47217 14.6692 3.55126 14.6697 4.66709C14.6697 4.93251 14.6921 5.19745 14.7367 5.4591L7.84574 8.5871C7.18143 7.96753 6.35075 7.55529 5.45556 7.40095C4.56038 7.24661 3.63961 7.35687 2.80618 7.7182C1.97275 8.07954 1.26288 8.67625 0.763638 9.43515C0.264393 10.194 -0.0025252 11.0822 -0.00438475 11.9905C-0.0062443 12.8989 0.257036 13.7881 0.753169 14.5491C1.2493 15.31 1.95672 15.9096 2.78866 16.2743C3.62061 16.6391 4.54092 16.7531 5.43673 16.6024C6.33253 16.4518 7.1649 16.0429 7.83174 15.4261L14.7317 18.5431C14.5696 19.4861 14.7012 20.4563 15.1088 21.322C15.5164 22.1878 16.1802 22.9073 17.0104 23.3831C17.8406 23.859 18.797 24.0681 19.7501 23.9823C20.7031 23.8964 21.6067 23.5196 22.3385 22.9031C23.0702 22.2865 23.5948 21.4598 23.841 20.5352C24.0873 19.6105 24.0434 18.6325 23.7152 17.7336C23.3871 16.8348 22.7905 16.0585 22.0065 15.51C21.2224 14.9614 20.2886 14.6672 19.3317 14.6671H19.3327Z" fill="#BAB9C0"/>
</g>
<defs>
<clipPath id="clip0_727_892">
<rect width="24" height="24" fill="white"/>
</clipPath>
</defs>
</svg>
