<svg width="36" height="36" viewBox="0 0 36 36" fill="none" xmlns="http://www.w3.org/2000/svg">
<path d="M18.0313 8.60385e-05C8.13649 -0.0303178 0.0595226 8.00108 0.000315468 17.9391C-0.0580916 27.8372 8.00128 35.9502 17.9489 35.9998C27.8509 36.0494 35.9598 27.9828 35.9998 18.0415C36.0406 8.1355 27.9685 0.0304898 18.0313 8.60385e-05ZM17.9905 34.3996C8.94379 34.3908 1.58851 27.0291 1.59971 17.9903C1.61091 8.9516 8.97099 1.59148 18.0097 1.60029C27.0484 1.60909 34.4117 8.97 34.4005 18.0095C34.3893 27.0491 27.03 34.4092 17.9913 34.3996H17.9905Z" fill="white"/>
<path d="M17.2281 27.6883C17.2511 27.876 17.3415 28.0489 17.4826 28.1746C17.6237 28.3004 17.8058 28.3705 17.9949 28.3718C18.1839 28.3731 18.3669 28.3054 18.5097 28.1816C18.6525 28.0577 18.7453 27.8861 18.7707 27.6987C18.8082 27.4751 18.816 27.2475 18.7939 27.0219C18.7547 26.6698 18.8739 26.5154 19.2324 26.4194C21.1022 25.9209 22.4512 24.3847 22.6544 22.4693C22.9304 19.8674 21.6655 18.0063 19.1716 17.4183C18.6115 17.287 18.0458 17.2054 17.481 17.1062C15.8216 16.8142 14.9807 15.8925 14.9031 14.0986C14.9031 12.9569 15.4175 11.9136 16.6441 11.3319C17.8362 10.7662 18.9788 10.9182 20.0101 11.7519C20.7182 12.324 21.0214 13.0953 21.0942 13.9858C21.1422 14.5763 21.4871 14.9155 21.9527 14.8875C22.4328 14.8587 22.7528 14.4499 22.6784 13.8474C22.6208 13.3497 22.5368 12.8361 22.3544 12.3744C21.7711 10.9014 20.679 9.96453 19.1492 9.55888C18.8771 9.48687 18.7731 9.37485 18.7955 9.09562C18.8165 8.84314 18.8106 8.58916 18.7779 8.33792C18.7588 8.14607 18.6694 7.96807 18.5269 7.8382C18.3844 7.70832 18.1989 7.63575 18.0061 7.63446C17.8133 7.63317 17.6269 7.70325 17.4826 7.8312C17.3384 7.95916 17.2466 8.13594 17.2249 8.32752C17.1899 8.52454 17.1837 8.7256 17.2065 8.9244C17.2649 9.32925 17.1113 9.49487 16.7105 9.60528C15.8034 9.85347 14.9936 10.3724 14.389 11.0927C13.7845 11.813 13.414 12.7006 13.3269 13.637C13.0716 16.1453 14.3934 18.0151 16.8473 18.5976C17.4074 18.7288 17.9738 18.8064 18.5379 18.9072C20.2061 19.2049 21.0454 20.1506 21.091 21.7876C21.1358 23.3806 20.0277 24.74 18.5043 24.96C16.8633 25.2 15.4119 24.2551 15.0055 22.6749C14.9327 22.3933 14.9255 22.094 14.8743 21.8068C14.7895 21.3619 14.4422 21.0923 14.0246 21.1275C13.6325 21.1611 13.3357 21.4772 13.3085 21.9092C13.3009 22.0824 13.3083 22.2558 13.3309 22.4277C13.4292 23.3698 13.8138 24.2591 14.4329 24.9759C15.052 25.6928 15.8759 26.2027 16.7937 26.437C17.1137 26.5234 17.2369 26.6522 17.2041 26.9794C17.1836 27.2159 17.1917 27.4539 17.2281 27.6883Z" fill="white"/>
<path d="M30.791 23.643C30.4102 23.4134 30.0262 23.483 29.7349 23.8639C29.5969 24.0597 29.4703 24.2632 29.3557 24.4735C26.8946 28.5807 23.2752 30.7764 18.4976 31.0607C18.2714 31.0649 18.0457 31.0847 17.8223 31.12C17.6454 31.1598 17.4878 31.2599 17.3768 31.4033C17.2657 31.5467 17.2081 31.7242 17.2138 31.9055C17.2194 32.0867 17.2881 32.2603 17.4079 32.3965C17.5277 32.5326 17.6912 32.6227 17.8703 32.6513C18.11 32.6685 18.3505 32.6704 18.5904 32.6569V32.6882C19.1728 32.6225 19.7593 32.5849 20.3362 32.4873C24.3695 31.8024 27.5859 29.7894 29.9813 26.4794C30.3854 25.9193 30.719 25.3072 31.0495 24.6992C31.1525 24.5241 31.1831 24.3158 31.1349 24.1186C31.0866 23.9213 30.9632 23.7507 30.791 23.643Z" fill="white"/>
<path d="M18.1626 4.88069C18.3438 4.84468 18.5062 4.74549 18.6211 4.60082C18.7359 4.45616 18.7956 4.27541 18.7895 4.09081C18.7835 3.90621 18.7121 3.72976 18.588 3.59293C18.464 3.45609 18.2953 3.36777 18.1122 3.3437C17.8991 3.32919 17.6854 3.32758 17.4721 3.3389V3.3093C16.8897 3.3717 16.3024 3.40531 15.7255 3.50132C11.6746 4.175 8.44465 6.18645 6.03316 9.50607C5.62831 10.0661 5.29227 10.6766 4.96263 11.2847C4.7226 11.7255 4.87142 12.156 5.27386 12.3848C5.64671 12.5969 6.06996 12.4704 6.33559 12.06C6.44441 11.8928 6.53722 11.7143 6.63963 11.5431C9.09912 7.42154 12.7268 5.2202 17.5225 4.9391C17.7369 4.93295 17.9507 4.91345 18.1626 4.88069Z" fill="white"/>
<path d="M32.6761 18.1479C32.6761 17.6023 32.3712 17.2334 31.9072 17.2142C31.4431 17.195 31.1199 17.5407 31.0783 18.0943C31.0303 18.7344 30.9839 19.3673 30.9327 20.0034C30.8879 20.5634 31.1431 20.9499 31.6016 21.0123C32.0768 21.0771 32.4433 20.7539 32.5185 20.177C32.5873 19.6497 32.6321 19.1201 32.6785 18.6936C32.6761 18.4408 32.6761 18.2944 32.6761 18.1479Z" fill="white"/>
<path d="M4.39444 14.9923C4.29499 14.9762 4.1933 14.9805 4.09557 15.005C3.99785 15.0295 3.90613 15.0736 3.82602 15.1347C3.74591 15.1958 3.67909 15.2726 3.62963 15.3604C3.58017 15.4481 3.5491 15.5451 3.53834 15.6452C3.43593 16.4205 3.36872 17.2022 3.33511 17.9831C3.33181 18.0866 3.34912 18.1896 3.38604 18.2863C3.42297 18.383 3.47876 18.4714 3.55017 18.5463C3.62158 18.6212 3.70718 18.6811 3.80199 18.7226C3.8968 18.7641 3.99892 18.7864 4.10241 18.788C4.51926 18.8008 4.8673 18.4864 4.9081 18.0175C4.97131 17.2902 5.00892 16.5605 5.05772 15.8324C5.0786 15.6336 5.02093 15.4344 4.89701 15.2774C4.77309 15.1205 4.59274 15.0182 4.39444 14.9923Z" fill="white"/>
</svg>
