<svg width="24" height="24" viewBox="0 0 24 24" fill="none" xmlns="http://www.w3.org/2000/svg">
<path d="M12.0209 5.7359e-05C5.42433 -0.0202118 0.0396817 5.33406 0.000210312 11.9594C-0.0387277 18.5581 5.33419 23.9668 11.9659 23.9998C18.5672 24.0329 23.9732 18.6552 23.9999 12.0277C24.0271 5.42367 18.6457 0.0203266 12.0209 5.7359e-05ZM11.9937 22.933C5.96253 22.9272 1.059 18.0194 1.06647 11.9936C1.07394 5.96773 5.98066 1.06099 12.0065 1.06686C18.0322 1.07272 22.9411 5.98 22.9336 12.0064C22.9262 18.0327 18.02 22.9394 11.9942 22.933H11.9937Z" fill="#FC5A15"/>
<path d="M11.4854 18.4589C11.5007 18.584 11.561 18.6992 11.6551 18.7831C11.7492 18.8669 11.8706 18.9136 11.9966 18.9145C12.1226 18.9153 12.2446 18.8703 12.3398 18.7877C12.435 18.7051 12.4969 18.5907 12.5138 18.4658C12.5388 18.3167 12.544 18.165 12.5293 18.0145C12.5032 17.7798 12.5826 17.6769 12.8216 17.6129C14.0681 17.2806 14.9674 16.2565 15.1029 14.9795C15.287 13.2449 14.4437 12.0042 12.7811 11.6121C12.4077 11.5247 12.0306 11.4703 11.654 11.4041C10.5477 11.2094 9.98712 10.5949 9.93538 9.39906C9.93538 8.6379 10.2784 7.94235 11.0961 7.55457C11.8908 7.17745 12.6525 7.2788 13.3401 7.8346C13.8121 8.21598 14.0143 8.73018 14.0628 9.32385C14.0948 9.7175 14.3247 9.94367 14.6351 9.925C14.9552 9.90579 15.1685 9.63323 15.1189 9.23158C15.0805 8.8998 15.0245 8.55736 14.9029 8.24959C14.5141 7.2676 13.786 6.64299 12.7661 6.37255C12.5848 6.32455 12.5154 6.24987 12.5304 6.06371C12.5443 5.8954 12.5404 5.72607 12.5186 5.55858C12.5059 5.43068 12.4463 5.31202 12.3513 5.22543C12.2563 5.13885 12.1326 5.09047 12.0041 5.08961C11.8755 5.08875 11.7512 5.13547 11.6551 5.22077C11.5589 5.30607 11.4978 5.42393 11.4833 5.55165C11.4599 5.68299 11.4558 5.81704 11.471 5.94957C11.51 6.21947 11.4076 6.32988 11.1403 6.40349C10.5356 6.56895 9.99572 6.91487 9.59269 7.3951C9.18965 7.87533 8.94264 8.46704 8.88458 9.09129C8.71443 10.7635 9.5956 12.0101 11.2315 12.3984C11.6049 12.4858 11.9826 12.5376 12.3586 12.6048C13.4707 12.8032 14.0303 13.4337 14.0607 14.525C14.0905 15.587 13.3518 16.4933 12.3362 16.64C11.2422 16.8 10.2746 16.17 10.0037 15.1166C9.95511 14.9288 9.95031 14.7293 9.91617 14.5378C9.85963 14.2413 9.62814 14.0615 9.34971 14.085C9.08834 14.1074 8.89045 14.3181 8.87232 14.6061C8.86723 14.7215 8.87223 14.8372 8.88725 14.9518C8.95277 15.5798 9.20917 16.1727 9.62193 16.6506C10.0347 17.1285 10.584 17.4684 11.1958 17.6246C11.4092 17.6822 11.4913 17.7681 11.4694 17.9863C11.4558 18.1439 11.4611 18.3025 11.4854 18.4589Z" fill="#FC5A15"/>
<path d="M20.5274 15.762C20.2735 15.6089 20.0174 15.6553 19.8233 15.9092C19.7313 16.0397 19.6469 16.1754 19.5704 16.3156C17.9297 19.0538 15.5168 20.5176 12.3317 20.7071C12.1809 20.7099 12.0305 20.7231 11.8815 20.7466C11.7636 20.7731 11.6586 20.8399 11.5845 20.9355C11.5105 21.0311 11.4721 21.1494 11.4758 21.2703C11.4796 21.3911 11.5254 21.5069 11.6053 21.5976C11.6852 21.6883 11.7941 21.7484 11.9135 21.7675C12.0733 21.779 12.2336 21.7802 12.3936 21.7713V21.7921C12.7819 21.7483 13.1729 21.7233 13.5575 21.6582C16.2463 21.2016 18.3906 19.8596 19.9876 17.6529C20.2569 17.2795 20.4794 16.8714 20.6996 16.4661C20.7683 16.3494 20.7888 16.2105 20.7566 16.079C20.7244 15.9475 20.6422 15.8337 20.5274 15.762Z" fill="#FC5A15"/>
<path d="M12.1084 3.25377C12.2292 3.22976 12.3375 3.16364 12.414 3.0672C12.4906 2.97075 12.5304 2.85025 12.5264 2.72719C12.5223 2.60412 12.4747 2.48649 12.392 2.39526C12.3093 2.30404 12.1969 2.24516 12.0748 2.22911C11.9328 2.21944 11.7903 2.21837 11.6481 2.22591V2.20618C11.2598 2.24778 10.8683 2.27018 10.4837 2.33419C7.78309 2.78332 5.62976 4.12428 4.0221 6.33736C3.75221 6.71074 3.52818 7.11772 3.30842 7.52311C3.1484 7.81701 3.24761 8.10398 3.51591 8.25653C3.76447 8.39788 4.04664 8.3136 4.22373 8.03997C4.29627 7.92849 4.35814 7.80954 4.42642 7.69539C6.06608 4.94767 8.48451 3.48011 11.6817 3.29271C11.8246 3.28862 11.9671 3.27561 12.1084 3.25377Z" fill="#FC5A15"/>
<path d="M21.7841 12.0987C21.7841 11.7349 21.5808 11.489 21.2715 11.4762C20.9621 11.4634 20.7466 11.6938 20.7189 12.063C20.6869 12.4897 20.6559 12.9116 20.6218 13.3356C20.5919 13.709 20.7621 13.9667 21.0677 14.0083C21.3845 14.0515 21.6288 13.836 21.679 13.4514C21.7248 13.0999 21.7547 12.7468 21.7857 12.4625C21.7841 12.2939 21.7841 12.1963 21.7841 12.0987Z" fill="#FC5A15"/>
<path d="M2.92963 9.99489C2.86333 9.98415 2.79553 9.98702 2.73038 10.0033C2.66523 10.0197 2.60409 10.0491 2.55068 10.0898C2.49727 10.1305 2.45272 10.1817 2.41975 10.2402C2.38678 10.2988 2.36607 10.3634 2.35889 10.4301C2.29062 10.947 2.24581 11.4681 2.22341 11.9887C2.22121 12.0577 2.23275 12.1264 2.25736 12.1909C2.28198 12.2553 2.31917 12.3142 2.36678 12.3642C2.41439 12.4141 2.47146 12.4541 2.53466 12.4818C2.59787 12.5094 2.66595 12.5242 2.73494 12.5253C3.01284 12.5339 3.24487 12.3243 3.27207 12.0117C3.31421 11.5268 3.33928 11.0404 3.37181 10.555C3.38573 10.4224 3.34729 10.2896 3.26467 10.185C3.18206 10.0803 3.06183 10.0121 2.92963 9.99489Z" fill="#FC5A15"/>
</svg>
