<svg width="32" height="32" viewBox="0 0 32 32" fill="none" xmlns="http://www.w3.org/2000/svg">
<g clip-path="url(#clip0_165_148)">
<path d="M13.7867 25.6603V22.0864H18.2126V25.6603C18.2126 29.0019 20.1362 29.7634 20.1362 29.7634H11.8633C11.8633 29.7634 13.7867 29.0019 13.7867 25.6603Z" fill="#B5B9C4"/>
<path d="M11.8633 29.7634H20.1362V30.9765H11.8633V29.7634Z" fill="#9CA2B0"/>
<path d="M5.55591 4.27515V1.99756H26.4438V4.27515H32V8.79949C32.001 10.6122 31.3322 12.365 30.1155 13.7382C28.8989 15.1114 27.2153 16.0137 25.3718 16.2805C23.6692 19.6406 20.1121 21.9521 16 21.9521C11.8876 21.9521 8.33055 19.6406 6.62738 16.2805C4.78371 16.014 3.09998 15.1118 1.88324 13.7385C0.6665 12.3652 -0.00218582 10.6123 -0.000865936 8.79949V4.27515H5.55591ZM30.0617 8.79949V6.16033H26.4438V11.794C26.4443 12.5892 26.349 13.3818 26.1599 14.1554C28.4303 13.3774 30.0617 11.2705 30.0617 8.79949ZM1.93804 8.79949C1.93804 11.2705 3.56945 13.3774 5.83977 14.1557C5.65069 13.3821 5.55542 12.5895 5.55591 11.7943V6.16061H1.93804V8.79949Z" fill="#B5B9C4"/>
<path d="M8.74821 1.99756V10.7144C8.74821 16.3243 13.424 20.8722 19.1923 20.8722C19.7921 20.8723 20.3909 20.8225 20.9819 20.7233C19.4531 21.532 17.7401 21.9545 15.9998 21.9521C10.2318 21.9521 5.55571 17.4045 5.55571 11.7943V1.99756H8.74821Z" fill="#9CA2B0"/>
<path d="M18.8125 21.1536V21.9602C18.8125 22.1149 18.7493 22.2633 18.6368 22.3727C18.5244 22.482 18.3718 22.5435 18.2128 22.5435H13.7869C13.6278 22.5435 13.4753 22.482 13.3628 22.3727C13.2503 22.2633 13.1871 22.1149 13.1871 21.9602V21.1536H18.8125Z" fill="#9CA2B0"/>
<path d="M5.02292 0H26.9771C27.2494 0 27.5106 0.105215 27.7032 0.292498C27.8957 0.479782 28.0039 0.733792 28.0039 0.998651C28.0039 1.12982 27.9774 1.25971 27.9258 1.3809C27.8742 1.5021 27.7986 1.61222 27.7033 1.70499C27.6079 1.79775 27.4947 1.87133 27.3701 1.92154C27.2455 1.97174 27.112 1.99758 26.9771 1.99758H5.02292C4.7506 1.99758 4.48943 1.89237 4.29687 1.70508C4.10431 1.5178 3.99612 1.26379 3.99612 0.998931C3.99609 0.867763 4.02262 0.737872 4.0742 0.616678C4.12579 0.495484 4.20141 0.38536 4.29676 0.292597C4.39212 0.199834 4.50532 0.126249 4.62992 0.0760446C4.75451 0.0258402 4.88806 -5.16615e-09 5.02292 0V0Z" fill="#B5B9C4"/>
<path d="M25.1252 0.710589H26.8085C26.8482 0.709385 26.8877 0.715951 26.9248 0.729896C26.9618 0.743841 26.9956 0.764882 27.0241 0.791769C27.0526 0.818657 27.0753 0.850843 27.0908 0.886417C27.1063 0.921992 27.1143 0.96023 27.1143 0.998861C27.1143 1.03749 27.1063 1.07573 27.0908 1.11131C27.0753 1.14688 27.0526 1.17907 27.0241 1.20595C26.9956 1.23284 26.9618 1.25388 26.9248 1.26783C26.8877 1.28177 26.8482 1.28834 26.8085 1.28713H25.1252C25.0855 1.28834 25.0459 1.28177 25.0089 1.26783C24.9719 1.25388 24.9381 1.23284 24.9096 1.20595C24.881 1.17907 24.8584 1.14688 24.8429 1.11131C24.8274 1.07573 24.8194 1.03749 24.8194 0.998861C24.8194 0.96023 24.8274 0.921992 24.8429 0.886417C24.8584 0.850843 24.881 0.818657 24.9096 0.791769C24.9381 0.764882 24.9719 0.743841 25.0089 0.729896C25.0459 0.715951 25.0855 0.709385 25.1252 0.710589Z" fill="white"/>
<path d="M23.0429 0.710449H23.6316C23.7087 0.712785 23.7817 0.74418 23.8353 0.797987C23.889 0.851793 23.9189 0.923786 23.9189 0.998721C23.9189 1.07366 23.889 1.14565 23.8353 1.19946C23.7817 1.25326 23.7087 1.28466 23.6316 1.28699H23.0429C22.9659 1.28466 22.8928 1.25326 22.8392 1.19946C22.7856 1.14565 22.7556 1.07366 22.7556 0.998721C22.7556 0.923786 22.7856 0.851793 22.8392 0.797987C22.8928 0.74418 22.9659 0.712785 23.0429 0.710449Z" fill="white"/>
<path d="M11.1644 30.9763H20.8348C21.1139 30.9763 21.3816 31.0842 21.579 31.2761C21.7763 31.4681 21.8872 31.7284 21.8872 31.9999H10.1131C10.1131 31.7286 10.2239 31.4684 10.421 31.2765C10.6181 31.0846 10.8855 30.9766 11.1644 30.9763Z" fill="#B5B9C4"/>
<path opacity="0.1" d="M5.55595 1.99756H26.4438V3.12542H5.55595V1.99756Z" fill="black"/>
<path d="M19.1375 15.6642L16.0262 13.3775L12.915 15.6642L14.1096 11.9713L11 9.69917H14.8392L16.0262 6L17.2133 9.69917H21.0521L17.9429 11.9713L19.1375 15.6642Z" fill="#677080"/>
</g>
<defs>
<clipPath id="clip0_165_148">
<rect width="32" height="32" fill="white" transform="matrix(-1 0 0 1 32 0)"/>
</clipPath>
</defs>
</svg>
