<svg width="32" height="32" viewBox="0 0 32 32" fill="none" xmlns="http://www.w3.org/2000/svg">
<g clip-path="url(#clip0_171_23)">
<path d="M18.2133 25.6603V22.0864H13.7874V25.6603C13.7874 29.0019 11.8638 29.7634 11.8638 29.7634H20.1367C20.1367 29.7634 18.2133 29.0019 18.2133 25.6603Z" fill="#EC7E33"/>
<path d="M20.1367 29.7632H11.8638V30.9763H20.1367V29.7632Z" fill="#E85F0F"/>
<path d="M26.4441 4.27514V1.99756H5.5562V4.27514H1.17026e-06V8.79949C-0.00102113 10.6122 0.667769 12.365 1.88446 13.7382C3.10114 15.1114 4.78471 16.0137 6.62824 16.2805C8.33084 19.6406 11.8879 21.9521 16 21.9521C20.1124 21.9521 23.6695 19.6406 25.3726 16.2805C27.2163 16.014 28.9 15.1118 30.1168 13.7385C31.3335 12.3652 32.0022 10.6123 32.0009 8.79949V4.27514H26.4441ZM1.93833 8.79949V6.16033H5.5562V11.794C5.55571 12.5892 5.65098 13.3818 5.84006 14.1554C3.56974 13.3774 1.93833 11.2705 1.93833 8.79949ZM30.062 8.79949C30.062 11.2705 28.4305 13.3774 26.1602 14.1557C26.3493 13.3821 26.4446 12.5895 26.4441 11.7943V6.16061H30.062V8.79949Z" fill="#EC7E33"/>
<path d="M23.2518 1.99756V10.7144C23.2518 16.3243 18.576 20.8721 12.8077 20.8721C12.2079 20.8723 11.6091 20.8225 11.0181 20.7233C12.5469 21.532 14.2599 21.9545 16.0002 21.9521C21.7682 21.9521 26.4443 17.4045 26.4443 11.7943V1.99756H23.2518Z" fill="#E85F0F"/>
<path d="M13.1875 21.1536V21.9602C13.1875 22.1149 13.2507 22.2633 13.3632 22.3727C13.4756 22.482 13.6282 22.5435 13.7872 22.5435H18.2131C18.3722 22.5435 18.5247 22.482 18.6372 22.3727C18.7497 22.2633 18.8129 22.1149 18.8129 21.9602V21.1536H13.1875Z" fill="#E85F0F"/>
<path d="M26.9771 0H5.02289C4.75057 0 4.4894 0.105215 4.29684 0.292498C4.10427 0.479782 3.99609 0.733792 3.99609 0.998651C3.99606 1.12982 4.02259 1.25971 4.07417 1.3809C4.12576 1.5021 4.20138 1.61222 4.29673 1.70499C4.39209 1.79775 4.50529 1.87133 4.62989 1.92154C4.75448 1.97174 4.88803 1.99758 5.02289 1.99758H26.9771C27.2494 1.99758 27.5106 1.89237 27.7031 1.70508C27.8957 1.5178 28.0039 1.26379 28.0039 0.998932C28.0039 0.867763 27.9774 0.737872 27.9258 0.616678C27.8742 0.495484 27.7986 0.38536 27.7032 0.292597C27.6079 0.199834 27.4947 0.126249 27.3701 0.0760446C27.2455 0.0258402 27.1119 -5.16615e-09 26.9771 0V0Z" fill="#EC7E33"/>
<path d="M20.8356 30.9763H11.1652C10.8861 30.9763 10.6184 31.0842 10.421 31.2761C10.2237 31.4681 10.1128 31.7284 10.1128 31.9999H21.8869C21.8869 31.7286 21.7761 31.4684 21.579 31.2765C21.3819 31.0846 21.1145 30.9766 20.8356 30.9763Z" fill="#EC7E33"/>
<path opacity="0.1" d="M26.444 1.99756H5.55615V3.12542H26.444V1.99756Z" fill="black"/>
<g clip-path="url(#clip1_171_23)">
<path d="M19.1116 14.7149L16.0004 12.4283L12.8891 14.7149L14.0837 11.022L10.9741 8.74995H14.8133L16.0004 5.05078L17.1875 8.74995H21.0262L17.917 11.022L19.1116 14.7149Z" fill="#EE4E2C"/>
</g>
</g>
<defs>
<clipPath id="clip0_171_23">
<rect width="32" height="32" fill="white"/>
</clipPath>
<clipPath id="clip1_171_23">
<rect width="10" height="10" fill="white" transform="translate(11 5)"/>
</clipPath>
</defs>
</svg>
