<svg width="32" height="32" viewBox="0 0 32 32" fill="none" xmlns="http://www.w3.org/2000/svg">
<g clip-path="url(#clip0_171_50)">
<path d="M13.7867 25.6603V22.0864H18.2126V25.6603C18.2126 29.0019 20.1362 29.7634 20.1362 29.7634H11.8633C11.8633 29.7634 13.7867 29.0019 13.7867 25.6603Z" fill="#FBD55D"/>
<path d="M11.8633 29.7634H20.1362V30.9765H11.8633V29.7634Z" fill="#FBBB26"/>
<path d="M5.55591 4.27515V1.99756H26.4438V4.27515H32V8.79949C32.001 10.6122 31.3322 12.365 30.1155 13.7382C28.8989 15.1114 27.2153 16.0137 25.3718 16.2805C23.6692 19.6406 20.1121 21.9521 16 21.9521C11.8876 21.9521 8.33055 19.6406 6.62738 16.2805C4.78371 16.014 3.09998 15.1118 1.88324 13.7385C0.6665 12.3652 -0.00218582 10.6123 -0.000865936 8.79949V4.27515H5.55591ZM30.0617 8.79949V6.16033H26.4438V11.794C26.4443 12.5892 26.349 13.3818 26.1599 14.1554C28.4303 13.3774 30.0617 11.2705 30.0617 8.79949ZM1.93804 8.79949C1.93804 11.2705 3.56945 13.3774 5.83977 14.1557C5.65069 13.3821 5.55542 12.5895 5.55591 11.7943V6.16061H1.93804V8.79949Z" fill="#FBD55D"/>
<path d="M8.74821 1.99756V10.7144C8.74821 16.3243 13.424 20.8722 19.1923 20.8722C19.7921 20.8723 20.3909 20.8225 20.9819 20.7233C19.4531 21.532 17.7401 21.9545 15.9998 21.9521C10.2318 21.9521 5.55571 17.4045 5.55571 11.7943V1.99756H8.74821Z" fill="#FBBB26"/>
<path d="M18.8125 21.1536V21.9602C18.8125 22.1149 18.7493 22.2633 18.6368 22.3727C18.5244 22.482 18.3718 22.5435 18.2128 22.5435H13.7869C13.6278 22.5435 13.4753 22.482 13.3628 22.3727C13.2503 22.2633 13.1871 22.1149 13.1871 21.9602V21.1536H18.8125Z" fill="#FBBB26"/>
<path d="M5.02292 0H26.9771C27.2494 0 27.5106 0.105215 27.7032 0.292498C27.8957 0.479782 28.0039 0.733792 28.0039 0.998651C28.0039 1.12982 27.9774 1.25971 27.9258 1.3809C27.8742 1.5021 27.7986 1.61222 27.7033 1.70499C27.6079 1.79775 27.4947 1.87133 27.3701 1.92154C27.2455 1.97174 27.112 1.99758 26.9771 1.99758H5.02292C4.7506 1.99758 4.48943 1.89237 4.29687 1.70508C4.10431 1.5178 3.99612 1.26379 3.99612 0.998931C3.99609 0.867763 4.02262 0.737872 4.0742 0.616678C4.12579 0.495484 4.20141 0.38536 4.29676 0.292597C4.39212 0.199834 4.50532 0.126249 4.62992 0.0760446C4.75451 0.0258402 4.88806 -5.16615e-09 5.02292 0V0Z" fill="#FBD55D"/>
<path d="M25.1256 0.710589H26.8089C26.8859 0.712925 26.959 0.74432 27.0126 0.798127C27.0662 0.851933 27.0962 0.923926 27.0962 0.998861C27.0962 1.0738 27.0662 1.14579 27.0126 1.1996C26.959 1.2534 26.8859 1.2848 26.8089 1.28713H25.1256C25.0859 1.28834 25.0464 1.28177 25.0093 1.26783C24.9723 1.25388 24.9385 1.23284 24.91 1.20595C24.8815 1.17907 24.8588 1.14688 24.8433 1.11131C24.8278 1.07573 24.8198 1.03749 24.8198 0.998861C24.8198 0.96023 24.8278 0.921992 24.8433 0.886417C24.8588 0.850843 24.8815 0.818657 24.91 0.791769C24.9385 0.764882 24.9723 0.743841 25.0093 0.729896C25.0464 0.715951 25.0859 0.709385 25.1256 0.710589Z" fill="white"/>
<path d="M23.0429 0.710589H23.6317C23.6714 0.709385 23.711 0.715951 23.748 0.729896C23.785 0.743841 23.8188 0.764882 23.8474 0.791769C23.8759 0.818657 23.8985 0.850843 23.914 0.886417C23.9295 0.921992 23.9375 0.96023 23.9375 0.998861C23.9375 1.03749 23.9295 1.07573 23.914 1.11131C23.8985 1.14688 23.8759 1.17907 23.8474 1.20595C23.8188 1.23284 23.785 1.25388 23.748 1.26783C23.711 1.28177 23.6714 1.28834 23.6317 1.28713H23.0429C23.0032 1.28834 22.9637 1.28177 22.9267 1.26783C22.8896 1.25388 22.8558 1.23284 22.8273 1.20595C22.7988 1.17907 22.7761 1.14688 22.7606 1.11131C22.7451 1.07573 22.7372 1.03749 22.7372 0.998861C22.7372 0.96023 22.7451 0.921992 22.7606 0.886417C22.7761 0.850843 22.7988 0.818657 22.8273 0.791769C22.8558 0.764882 22.8896 0.743841 22.9267 0.729896C22.9637 0.715951 23.0032 0.709385 23.0429 0.710589Z" fill="white"/>
<path d="M11.1644 30.9763H20.8348C21.1139 30.9763 21.3816 31.0842 21.579 31.2761C21.7763 31.4681 21.8872 31.7284 21.8872 31.9999H10.1131C10.1131 31.7286 10.2239 31.4684 10.421 31.2765C10.6181 31.0846 10.8855 30.9766 11.1644 30.9763Z" fill="#FBD55D"/>
<path opacity="0.1" d="M5.55595 1.99756H26.4438V3.12542H5.55595V1.99756Z" fill="black"/>
<path d="M19.1375 15.6642L16.0262 13.3775L12.915 15.6642L14.1096 11.9713L11 9.69917H14.8392L16.0262 6L17.2133 9.69917H21.0521L17.9429 11.9713L19.1375 15.6642Z" fill="#E6A729"/>
</g>
<defs>
<clipPath id="clip0_171_50">
<rect width="32" height="32" fill="white" transform="matrix(-1 0 0 1 32 0)"/>
</clipPath>
</defs>
</svg>
