<svg width="32" height="32" viewBox="0 0 32 32" fill="none" xmlns="http://www.w3.org/2000/svg">
<g clip-path="url(#clip0_96_32)">
<path d="M16.5615 31.9997C25.0878 31.9997 31.9997 25.0878 31.9997 16.5615C31.9997 8.03521 25.0878 1.12329 16.5615 1.12329C8.03521 1.12329 1.12329 8.03521 1.12329 16.5615C1.12329 25.0878 8.03521 31.9997 16.5615 31.9997Z" fill="#3BD4B5"/>
<path d="M11 13C9.8 11.8 9.16667 11.5 9 11.5L5.5 15L7.5 17.5L13.5 23L17 20L24.5 11.5L22 8H20.5L13.5 15C13.1667 14.8333 12.2 14.2 11 13Z" fill="white"/>
<path d="M15.362 30.3505C23.6399 30.3505 30.3505 23.6399 30.3505 15.362C30.3505 7.08411 23.6399 0.373535 15.362 0.373535C7.08411 0.373535 0.373535 7.08411 0.373535 15.362C0.373535 23.6399 7.08411 30.3505 15.362 30.3505Z" stroke="#1F1F1F" stroke-linecap="round" stroke-linejoin="round"/>
<path d="M20.4983 8.36288L13.9475 14.9137C13.9031 14.9582 13.8504 14.9935 13.7924 15.0176C13.7343 15.0417 13.6721 15.0541 13.6092 15.0541C13.5464 15.0541 13.4842 15.0417 13.4261 15.0176C13.3681 14.9935 13.3153 14.9582 13.271 14.9137L10.2258 11.8698C10.1166 11.7606 9.98698 11.674 9.84433 11.6149C9.70169 11.5558 9.5488 11.5254 9.3944 11.5254C9.24 11.5254 9.08711 11.5558 8.94447 11.6149C8.80182 11.674 8.67221 11.7606 8.56304 11.8698L6.25845 14.1744C6.14927 14.2836 6.06266 14.4132 6.00357 14.5558C5.94448 14.6985 5.91406 14.8513 5.91406 15.0057C5.91406 15.1601 5.94448 15.313 6.00357 15.4557C6.06266 15.5983 6.14927 15.7279 6.25845 15.8371L12.7705 22.3599C12.8797 22.4693 13.0094 22.556 13.1522 22.6153C13.295 22.6745 13.448 22.7049 13.6026 22.7049C13.7571 22.7049 13.9102 22.6745 14.0529 22.6153C14.1957 22.556 14.3254 22.4693 14.4346 22.3599L24.4656 12.3302C24.5748 12.221 24.6614 12.0914 24.7205 11.9488C24.7796 11.8061 24.81 11.6532 24.81 11.4988C24.81 11.3444 24.7796 11.1915 24.7205 11.0489C24.6614 10.9062 24.5748 10.7766 24.4656 10.6675L22.1624 8.36288C22.0532 8.2535 21.9235 8.16672 21.7807 8.10751C21.6379 8.0483 21.4849 8.01782 21.3303 8.01782C21.1758 8.01782 21.0227 8.0483 20.88 8.10751C20.7372 8.16672 20.6075 8.2535 20.4983 8.36288Z" stroke="#1F1F1F" stroke-linecap="round" stroke-linejoin="round"/>
</g>
<defs>
<clipPath id="clip0_96_32">
<rect width="32" height="32" fill="white"/>
</clipPath>
</defs>
</svg>
