<svg width="173" height="278" viewBox="0 0 173 278" fill="none" xmlns="http://www.w3.org/2000/svg">
<g clip-path="url(#clip0_77_16)">
<path d="M140.96 55.8998C140.62 56.3163 140.131 56.5912 139.593 56.6695C139.335 56.7165 139.07 56.7063 138.816 56.6397C138.562 56.5732 138.327 56.4519 138.127 56.2847C137.922 56.1238 137.758 55.9193 137.646 55.6867C137.533 55.4541 137.477 55.1994 137.48 54.9421C137.459 54.4103 137.641 53.89 137.99 53.4832C138.322 53.0721 138.801 52.8002 139.329 52.7224C139.584 52.6783 139.846 52.6903 140.096 52.7576C140.346 52.8249 140.577 52.9459 140.773 53.1118C140.982 53.2717 141.152 53.4751 141.271 53.7072C141.39 53.9394 141.455 54.1945 141.461 54.4543C141.49 54.9815 141.31 55.4991 140.96 55.8998ZM152.919 48.2338C152.047 49.3039 150.831 50.0518 149.47 50.355C149.303 50.3849 148.147 50.4953 146.003 50.6862C144.725 50.7876 143.782 51.1397 143.174 51.7423L142.719 52.1899C142.632 52.2423 142.532 52.2719 142.43 52.2758C142.328 52.2798 142.227 52.2579 142.136 52.2122C141.914 52.141 141.705 52.0369 141.516 51.9035C141.274 51.7266 141.05 51.5272 140.846 51.3083C140.719 51.0905 140.778 50.8324 141.024 50.534C141.613 49.7542 142.398 49.1375 143.302 48.744C144.359 48.5023 145.422 48.2547 146.491 48.0011C147.57 47.8014 148.554 47.2608 149.292 46.4616C149.847 45.8574 150.138 45.0637 150.103 44.2508C150.069 43.8547 149.949 43.4702 149.752 43.123C149.555 42.7758 149.285 42.4737 148.96 42.237C148.256 41.7208 147.427 41.3938 146.554 41.2883C146.06 41.1871 145.559 41.1138 145.056 41.069C144.816 40.875 145.306 40.0486 146.527 38.5897C146.615 38.4823 146.843 38.4435 147.21 38.4734C148.991 38.5775 150.693 39.2253 152.08 40.3261C152.686 40.7782 153.194 41.3449 153.574 41.9928C153.953 42.6408 154.197 43.3568 154.29 44.0987C154.368 44.8438 154.286 45.5966 154.049 46.3087C153.813 47.0208 153.428 47.6766 152.919 48.2338Z" fill="white"/>
<path d="M75.5095 15.9361C75.759 17.1936 75.5662 18.497 74.9628 19.6327C74.8839 19.7669 74.2658 20.6426 73.1087 22.2596C72.4102 23.2143 72.0958 24.087 72.1657 24.8776L72.2204 25.4862C72.206 25.5795 72.1674 25.6677 72.1084 25.7421C72.0493 25.8166 71.9718 25.8748 71.8832 25.9114C71.6984 26.0231 71.4971 26.1061 71.2864 26.1575C71.0127 26.2196 70.7335 26.2556 70.4528 26.2649C70.2159 26.2232 70.064 26.0262 69.9972 25.6742C69.7902 24.7865 69.8216 23.8612 70.0883 22.9891C70.553 22.094 71.0086 21.199 71.455 20.3039C71.9634 19.4279 72.1665 18.4128 72.0336 17.413C71.9308 16.6605 71.5317 15.9776 70.922 15.511C70.6141 15.2958 70.2632 15.1475 69.8924 15.0757C69.5217 15.004 69.1397 15.0105 68.7717 15.0948C67.9719 15.2756 67.2339 15.6581 66.6306 16.2047C66.2582 16.4828 65.9023 16.7816 65.5646 17.0997C65.2791 17.1504 64.9754 16.3076 64.6535 14.5712C64.6292 14.4459 64.7385 14.2639 64.9815 14.0252C66.1318 12.8437 67.6288 12.0442 69.2637 11.7384C69.9574 11.588 70.6747 11.5755 71.3733 11.7015C72.072 11.8276 72.7379 12.0897 73.3319 12.4723C73.9214 12.8679 74.4197 13.3806 74.7948 13.9773C75.1699 14.5739 75.4134 15.2413 75.5095 15.9361ZM73.8376 28.9142C73.9344 29.4029 73.8401 29.9095 73.5734 30.3329C73.4517 30.5426 73.2838 30.723 73.082 30.8608C72.8803 30.9987 72.6497 31.0905 72.4071 31.1295C72.1673 31.1766 71.9197 31.1697 71.683 31.1092C71.4462 31.0488 71.2266 30.9363 71.0404 30.7804C70.6427 30.4733 70.3762 30.0311 70.2933 29.5408C70.1957 29.0604 70.2868 28.5615 70.5484 28.1445C70.671 27.9394 70.8383 27.7635 71.0384 27.6296C71.2385 27.4957 71.4664 27.4072 71.7056 27.3703C71.9435 27.3233 72.189 27.3278 72.4251 27.3835C72.6611 27.4391 72.8819 27.5446 73.0723 27.6925C73.4801 27.9943 73.7515 28.4408 73.8285 28.9366L73.8376 28.9142Z" fill="white"/>
<path d="M35.4883 38.8538C36.5783 40.2971 37.1372 42.0611 37.0737 43.8571C37.0554 44.0749 36.814 45.5502 36.3493 48.2831C36.0456 49.9061 36.1868 51.1964 36.773 52.1541L37.2285 52.888C37.2673 53.014 37.2726 53.1475 37.2439 53.276C37.2152 53.4045 37.1534 53.5236 37.0645 53.622C36.9003 53.8734 36.6975 54.0983 36.4632 54.2888C36.1535 54.5299 35.8209 54.7412 35.4701 54.9198C35.133 55.0033 34.8125 54.8437 34.5088 54.4409C33.6973 53.4407 33.165 52.2499 32.9645 50.9861C33.004 49.5898 33.0358 48.1921 33.0601 46.7928C33.0905 45.1191 32.7413 43.7855 32.0123 42.792C31.4178 41.8998 30.4901 41.2729 29.4293 41.0466C28.9075 40.9577 28.3725 40.9787 27.8596 41.1083C27.3467 41.2379 26.8678 41.4732 26.4545 41.7985C25.5539 42.5054 24.8567 43.4309 24.4318 44.4836C24.1378 45.0653 23.8777 45.663 23.6528 46.2737C23.3217 46.5064 22.4197 45.6203 20.9467 43.6154C20.8404 43.4692 20.8647 43.1709 21.0196 42.7204C21.7452 40.5412 23.1451 38.6388 25.024 37.2785C25.8115 36.6762 26.7139 36.2351 27.6779 35.9814C28.642 35.7278 29.648 35.6666 30.6366 35.8017C31.6165 35.9522 32.5538 36.3012 33.3891 36.8266C34.2243 37.3521 34.9392 38.0424 35.4883 38.8538ZM41.4106 56.3071C41.8343 56.8691 42.0263 57.5676 41.9482 58.2628C41.9233 58.6003 41.8221 58.9281 41.6519 59.2223C41.4816 59.5166 41.2467 59.7697 40.9642 59.9634C40.6911 60.1618 40.3764 60.2977 40.0429 60.3612C39.7095 60.4247 39.3659 60.4141 39.0371 60.3303C38.3451 60.1779 37.736 59.7774 37.3288 59.207C36.9055 58.6567 36.7117 57.9685 36.7866 57.2827C36.8142 56.9508 36.9169 56.6291 37.0871 56.341C37.2573 56.053 37.4909 55.806 37.7707 55.6179C38.0437 55.4138 38.359 55.2711 38.6944 55.2C39.0298 55.1289 39.3769 55.131 39.7114 55.2062C40.3914 55.3443 40.9924 55.7315 41.3924 56.2892L41.4106 56.3071Z" fill="white"/>
<path d="M126.492 8.38653C126.279 10.1976 125.447 11.8841 124.132 13.1705C123.965 13.3197 122.742 14.2461 120.464 15.9496C119.098 16.9491 118.288 17.9933 118.036 19.0823L117.845 19.9281C117.786 20.0509 117.697 20.1568 117.584 20.2352C117.471 20.3137 117.34 20.362 117.203 20.3756C116.905 20.4482 116.598 20.4754 116.291 20.4562C115.892 20.4234 115.497 20.353 115.112 20.2458C114.808 20.0877 114.691 19.7565 114.761 19.2523C114.87 17.9664 115.315 16.73 116.055 15.6632C117.072 14.6578 118.085 13.6464 119.093 12.629C120.308 11.4118 120.993 10.1871 121.148 8.95488C121.339 7.89004 121.097 6.79408 120.474 5.90279C120.151 5.48021 119.74 5.12996 119.269 4.87534C118.797 4.62071 118.276 4.46753 117.74 4.42597C116.577 4.33302 115.408 4.53971 114.351 5.02565C113.721 5.25497 113.105 5.51944 112.506 5.81776C112.096 5.76704 112.055 4.49608 112.383 2.00489C112.407 1.82289 112.635 1.62151 113.066 1.40073C115.151 0.281353 117.541 -0.169307 119.9 0.111872C120.907 0.200976 121.885 0.487233 122.778 0.953769C123.671 1.42031 124.459 2.05768 125.098 2.82832C126.315 4.34094 126.78 6.19368 126.492 8.38653ZM118.524 25.3118C118.439 26.016 118.088 26.6631 117.54 27.1242C117.281 27.3582 116.973 27.5323 116.637 27.6338C116.301 27.7353 115.947 27.7615 115.599 27.7105C115.256 27.6735 114.926 27.5604 114.634 27.3797C114.342 27.1991 114.096 26.9556 113.913 26.6678C113.514 26.0812 113.352 25.3696 113.458 24.6718C113.536 23.977 113.879 23.3371 114.419 22.8817C114.675 22.6562 114.978 22.4891 115.307 22.3924C115.637 22.2956 115.984 22.2717 116.323 22.3223C116.67 22.3579 117.004 22.4677 117.302 22.644C117.6 22.8203 117.856 23.0588 118.05 23.3427C118.458 23.9154 118.628 24.62 118.524 25.3118Z" fill="white"/>
<path d="M119.03 80.0034C114.84 78.5786 110.502 77.615 106.096 77.1303C104.998 77.005 103.973 76.0921 104.365 74.8927C105.861 70.1935 106.436 65.2581 106.06 60.3483C105.904 57.7748 105.524 55.2191 104.925 52.7091C104.848 52.3914 104.78 52.0199 104.675 51.6753C104.838 51.4261 105.052 51.2128 105.303 51.0488C104.474 50.7221 104.187 50.7624 104.452 51.1607C104.544 51.3256 104.619 51.4996 104.675 51.6798C104.584 51.8051 104.497 51.9349 104.42 52.0602C102.552 55.0586 101.604 58.4419 101.08 61.9057C100.556 65.3695 100.447 69.066 99.3629 72.4716L99.0531 72.3777C98.4784 70.3975 97.7785 68.4545 96.9575 66.5599C97.3903 63.3377 97.5543 59.9724 98.4518 56.8666C99.2581 54.0919 100.73 49.1647 103.709 47.9162C108.72 45.8218 109.221 55.6269 109.481 58.3031C110.053 63.527 109.686 68.809 108.397 73.9082C107.625 73.7948 106.858 73.6949 106.096 73.6083L107.827 75.8459C108.034 75.2075 108.224 74.5645 108.397 73.9171C122.751 76.007 137.097 82.3663 144.842 94.9506C149.534 102.558 152.222 111.294 154.19 119.936C156.714 131.039 158.29 142.352 159.825 153.621C162.795 175.46 165.255 197.357 168.258 219.223C169.597 228.916 170.895 238.618 171.825 248.356C172.485 255.226 173.059 262.158 173 269.068C172.253 269.197 171.506 269.314 170.763 269.43L169.397 269.636C169.406 263.495 169.102 257.358 168.485 251.247C167.716 242.404 166.622 233.606 165.429 224.79C162.938 206.337 160.554 187.875 158.276 169.405C156.727 156.825 155.087 144.25 152.905 131.768C151.138 121.694 149.065 111.303 144.614 101.99C141.256 94.973 136.71 89.285 129.986 85.1633C126.54 83.0492 122.865 81.3186 119.03 80.0034Z" fill="black"/>
<path d="M173 269.068C173 270.318 172.968 271.565 172.904 272.809C171.702 273.019 170.494 273.207 169.287 273.377C169.351 272.13 169.389 270.883 169.401 269.636L170.768 269.43C171.506 269.314 172.253 269.197 173 269.068Z" fill="black"/>
<path d="M172.9 272.813C172.9 273.283 172.854 273.758 172.827 274.227C172.695 276.487 169.101 276.501 169.237 274.227C169.237 273.945 169.269 273.664 169.283 273.382C170.49 273.212 171.702 273.024 172.9 272.813Z" fill="black"/>
<path d="M168.499 251.252C169.116 257.362 169.42 263.5 169.41 269.64C164.736 270.347 160.044 270.907 155.356 271.489C153.388 271.73 151.414 271.966 149.434 272.196C149.334 270.481 148.986 268.788 148.4 267.17C141.534 269.752 136.272 267.976 132.168 264.037C127.234 259.303 123.968 251.449 121.585 244.253C122.575 246.159 123.647 248.015 124.801 249.82C128.259 255.221 132.865 260.596 138.992 263.129C141.152 264.024 145.129 265.367 147.37 264.118C149.611 262.869 149.283 260.18 148.869 257.897C149.78 257.978 150.691 258.278 151.625 258.17C152.27 258.062 152.874 257.787 153.374 257.373C153.875 256.96 154.254 256.422 154.472 255.816C155.383 253.4 154.472 250.67 153.511 248.267C154.978 247.985 155.907 246.853 155.543 244.879C154.996 241.912 153.178 239.133 151.698 236.542C149.976 233.534 149.42 230.536 149.046 227.086C148.559 222.49 148.322 217.531 149.352 212.989C149.392 212.807 149.389 212.619 149.343 212.438C149.297 212.258 149.209 212.09 149.087 211.948C148.964 211.806 148.81 211.694 148.637 211.62C148.463 211.546 148.274 211.512 148.085 211.521C148.368 205.026 148.51 198.565 148.513 192.139C148.578 165.467 145.866 138.86 140.418 112.731C137.994 102.505 133.074 92.7175 125.753 85.4587C123.705 83.424 121.454 81.5964 119.034 80.0034C122.87 81.3186 126.544 83.0492 129.99 85.1633C136.714 89.285 141.261 94.973 144.618 101.99C149.069 111.303 151.142 121.681 152.91 131.768C155.096 144.254 156.732 156.829 158.281 169.405C160.552 187.887 162.937 206.349 165.433 224.79C166.622 233.606 167.715 242.404 168.499 251.252Z" fill="#BE9C67"/>
<path d="M169.396 269.64C169.396 270.887 169.359 272.135 169.283 273.382C165.119 273.954 160.918 274.321 156.91 274.823C154.407 275.136 151.904 275.434 149.402 275.718C149.503 274.54 149.518 273.357 149.447 272.178C151.415 271.951 153.39 271.715 155.37 271.471C160.035 270.907 164.727 270.347 169.396 269.64Z" fill="#BE9C67"/>
<path d="M148.081 211.521C148.27 211.512 148.459 211.546 148.632 211.62C148.806 211.694 148.96 211.806 149.082 211.948C149.205 212.09 149.292 212.258 149.338 212.438C149.384 212.619 149.387 212.807 149.347 212.989C148.318 217.527 148.559 222.49 149.042 227.086C149.411 230.536 149.953 233.534 151.693 236.542C153.174 239.133 154.992 241.912 155.538 244.879C155.903 246.853 154.978 247.985 153.506 248.267C153.297 247.734 153.074 247.22 152.873 246.727L151.402 248.168L150.974 248.343C150.837 248.012 150.7 247.681 150.564 247.349C150.204 246.454 151.238 245.702 152.035 245.904C153.019 246.141 153.429 246.325 153.183 245.25C152.853 243.964 152.364 242.723 151.725 241.554C150.586 239.339 149.124 237.244 148.14 234.953C146.773 231.78 146.614 227.721 146.422 224.329C146.199 220.364 146.149 216.274 147.038 212.367C147.077 212.125 147.205 211.906 147.397 211.751C147.589 211.595 147.832 211.513 148.081 211.521Z" fill="black"/>
<path d="M153.511 248.262C154.486 250.665 155.392 253.395 154.472 255.812C154.254 256.418 153.875 256.955 153.374 257.369C152.874 257.783 152.27 258.058 151.625 258.166C150.687 258.273 149.803 257.973 148.869 257.893C148.778 257.401 148.691 256.926 148.623 256.488L148.687 255.642C150.509 255.785 152.563 256.197 152.44 253.735C152.349 251.86 151.684 250.075 150.978 248.338L151.406 248.164C152.092 248.35 152.811 248.383 153.511 248.262Z" fill="black"/>
<path d="M153.188 245.241C153.429 246.316 153.024 246.137 152.04 245.895C151.242 245.693 150.217 246.463 150.568 247.34C150.705 247.672 150.841 247.998 150.978 248.334C151.684 250.07 152.345 251.856 152.44 253.731C152.563 256.192 150.523 255.781 148.687 255.637C148.176 255.579 147.66 255.588 147.151 255.664C146.849 255.752 146.592 255.951 146.436 256.221C146.279 256.491 146.235 256.809 146.313 257.11C146.55 258.263 146.71 259.431 146.792 260.605C146.828 262.462 145.22 262.176 143.808 262.028C141.22 261.755 138.796 260.591 136.646 259.2C131.425 255.812 127.703 250.352 124.738 245.067C121.535 239.233 119.034 233.053 117.285 226.651C115.781 221.33 114.624 215.75 114.688 210.205C114.688 208.688 112.31 208.688 112.292 210.205C112.219 216.56 113.658 222.964 115.481 229.028C117.028 234.276 119.072 239.37 121.585 244.244C123.968 251.435 127.234 259.294 132.168 264.028C136.268 267.976 141.539 269.752 148.4 267.161C148.99 268.779 149.343 270.471 149.447 272.187C140.25 273.252 131.024 274.107 121.763 274.353C110.534 274.698 99.2933 274.317 88.115 273.212C78.7076 272.24 69.3048 270.826 59.8701 271.242C57.6652 259.101 58.4123 246.432 58.7084 234.192C58.8861 226.813 59.0729 219.424 59.0638 212.049C59.0638 210.823 59.0638 209.596 59.0364 208.37C59.0091 207.144 59 206.048 58.9727 204.884C70.7307 196.829 84.6983 193.66 99.3355 191.508C101.422 190.945 103.416 190.093 105.258 188.979C105.713 188.814 106.169 188.639 106.625 188.438C109.408 187.167 110.62 184.316 110.046 181.461C108.971 176.091 102.301 173.244 97.4313 172.56C91.5591 171.311 86.0194 168.917 80.1654 167.606C74.48 166.33 68.7764 164.92 62.9087 164.706C60.0162 164.642 57.1296 164.991 54.3396 165.744C53.1369 158.53 52.5857 151.155 51.875 143.887C53.6335 141.323 55.4922 138.817 56.9409 136.082C58.8952 132.788 62.6263 124.241 55.5742 124.379C54.4526 124.416 53.3427 124.615 52.2805 124.97C52.654 122.343 53.1642 119.739 53.7975 117.165C55.7861 108.89 59.57 101.134 64.8904 94.4269C70.0611 88.0184 76.7351 83.0107 83.6596 78.6071C84.4113 78.1282 84.9124 76.9826 84.3065 76.1904C81.4228 72.4178 78.5072 68.1798 73.8286 66.4255C72.5302 65.9377 66.8903 64.9621 65.6922 63.2347C68.4256 62.7872 71.159 62.5321 73.8923 63.2705C79.7463 64.8324 84.1243 70.0818 87.4863 74.7047C88.3975 75.9891 90.9896 75.7295 90.8302 73.8096C90.8074 73.5053 90.7755 73.1965 90.7345 72.9146C90.0375 67.4548 87.1857 62.9528 83.7507 58.6566C80.7941 54.9556 77.3045 51.3799 75.5506 46.9584C77.8011 47.3388 80.1062 49.196 81.6278 50.4446C84.0314 52.3128 86.1594 54.4997 87.951 56.9426C91.2027 61.7103 93.6788 66.9463 95.2901 72.4626C95.3812 72.7714 95.4678 73.0802 95.5544 73.3845C96.0509 75.1746 98.4244 74.9463 99.0166 73.3845C99.1305 73.0846 99.2307 72.7893 99.3264 72.4894C100.411 69.1062 100.525 65.4052 101.044 61.9235C101.563 58.4418 102.515 55.0854 104.383 52.078C104.465 51.9527 104.547 51.8229 104.638 51.6976C104.748 52.0422 104.816 52.4137 104.889 52.7314C105.488 55.2414 105.867 57.7971 106.023 60.3706C106.4 65.2804 105.824 70.2157 104.328 74.915C103.937 76.1099 104.962 77.0228 106.06 77.1526C110.466 77.6373 114.803 78.6009 118.993 80.0257C121.426 81.6153 123.689 83.4414 125.749 85.4765C133.07 92.7353 137.99 102.523 140.414 112.748C145.861 138.877 148.574 165.485 148.509 192.157C148.509 198.589 148.366 205.05 148.081 211.539C147.833 211.531 147.591 211.611 147.4 211.765C147.208 211.919 147.079 212.136 147.038 212.376C146.154 216.273 146.199 220.373 146.423 224.338C146.614 227.73 146.778 231.785 148.14 234.962C149.124 237.253 150.591 239.348 151.725 241.563C152.364 242.726 152.855 243.961 153.188 245.241ZM86.5023 225.148C86.9943 223.707 84.6801 223.089 84.1972 224.521L82.999 228.048C82.507 229.489 84.8213 230.106 85.3042 228.674L86.5023 225.148ZM84.6208 150.26C85.6595 149.982 85.9875 149.042 85.8736 148.094C85.7591 146.806 85.7363 145.513 85.8053 144.223C85.8053 141.949 82.22 141.949 82.2155 144.223C82.1649 145.829 82.2303 147.436 82.4114 149.033C82.5526 149.982 83.7826 150.488 84.6208 150.26ZM78.5664 228.365V224.839C78.5664 223.322 76.1702 223.322 76.1702 224.839V228.365C76.1702 229.883 78.5664 229.883 78.5664 228.365ZM71.0269 229.856C71.3959 231.324 73.7056 230.702 73.332 229.229C72.8994 227.667 72.6457 226.063 72.5758 224.445C72.553 222.928 70.1567 222.928 70.1795 224.445C70.254 226.274 70.5382 228.089 71.0269 229.856ZM58.9453 149.302C58.9727 151.575 62.5625 151.58 62.5352 149.302C62.5352 147.816 62.2892 146.348 62.2709 144.863C62.2436 142.589 58.6538 142.585 58.6811 144.863C58.6993 146.339 58.9317 147.83 58.9453 149.315V149.302Z" fill="#FDD089"/>
<path d="M152.873 246.723C153.078 247.215 153.297 247.73 153.507 248.262C152.806 248.383 152.087 248.35 151.402 248.164L152.873 246.723Z" fill="black"/>
<path d="M149.443 272.196C149.514 273.375 149.498 274.558 149.397 275.736C140.477 276.778 131.521 277.633 122.519 277.87C111.075 278.17 99.4813 277.982 88.0922 276.751C78.8489 275.753 69.569 274.393 60.271 274.76C60.3847 274.437 60.4036 274.09 60.3257 273.757C60.1465 272.925 59.981 272.091 59.8291 271.256C69.282 270.835 78.6849 272.249 88.074 273.225C99.2523 274.33 110.493 274.711 121.722 274.366C131.02 274.116 140.245 273.261 149.443 272.196Z" fill="#FDD089"/>
<path d="M120.465 240.735C120.351 240.359 120.232 239.983 120.123 239.612C120.232 239.983 120.342 240.359 120.465 240.735ZM121.54 244.109C121.426 243.756 121.307 243.402 121.198 243.053C121.198 243.053 121.198 243.017 121.198 242.999C120.967 242.277 120.744 241.567 120.528 240.869C120.744 241.57 120.967 242.28 121.198 242.999C121.204 243.024 121.211 243.048 121.221 243.071C121.303 243.407 121.417 243.76 121.521 244.109H121.54ZM121.585 244.244C119.072 239.37 117.028 234.276 115.481 229.028C113.658 222.964 112.219 216.56 112.292 210.205C112.292 208.688 114.702 208.688 114.688 210.205C114.624 215.75 115.781 221.33 117.285 226.651C119.025 233.052 121.517 239.232 124.71 245.067C127.681 250.357 131.403 255.808 136.619 259.2C138.755 260.592 141.174 261.755 143.78 262.028C145.192 262.176 146.801 262.476 146.764 260.605C146.683 259.431 146.523 258.263 146.286 257.11C146.208 256.809 146.252 256.491 146.408 256.221C146.565 255.952 146.821 255.752 147.124 255.664C147.632 255.588 148.149 255.579 148.659 255.637L148.596 256.483L147.757 257.929C148.115 257.863 148.48 257.849 148.842 257.888C149.256 260.171 149.63 262.838 147.343 264.109C145.056 265.38 141.143 264.037 138.983 263.142C132.86 260.605 128.255 255.23 124.792 249.833C123.635 248.043 122.563 246.187 121.576 244.266L121.585 244.244Z" fill="black"/>
<path d="M148.618 256.488C148.687 256.935 148.773 257.383 148.864 257.893C148.503 257.854 148.137 257.867 147.78 257.933L148.618 256.488Z" fill="black"/>
<path d="M121.193 243.058C121.307 243.407 121.421 243.76 121.535 244.114C121.417 243.76 121.303 243.407 121.193 243.058Z" fill="black"/>
<path d="M121.175 243.004C121.175 243.004 121.175 243.044 121.175 243.058C121.166 243.034 121.158 243.01 121.152 242.986L121.175 243.004Z" fill="black"/>
<path d="M120.496 240.856C120.712 241.557 120.935 242.267 121.166 242.986C120.935 242.264 120.712 241.554 120.496 240.856Z" fill="black"/>
<path d="M120.118 239.612C120.232 239.983 120.346 240.359 120.46 240.735C120.341 240.359 120.232 239.983 120.118 239.612Z" fill="black"/>
<path d="M105.244 188.993C101.345 190.402 96.7617 190.68 92.739 191.208C81.35 192.707 69.9108 193.674 58.5217 195.235C58.4077 194.559 58.2167 193.897 57.9523 193.262C57.7788 192.857 57.4693 192.523 57.0756 192.316C56.6818 192.108 56.2275 192.039 55.7883 192.121V192.009C60.5216 191.36 65.2549 190.698 70.0019 190.129C80.8944 188.836 91.9646 188.339 102.702 186.008C105.34 185.43 107.786 183.873 106 181.022C104.042 177.89 100.238 176.547 96.6979 176.001C98.7798 176.202 99.5907 173.025 97.4131 172.564C102.283 173.249 108.948 176.077 110.028 181.465C110.602 184.32 109.394 187.171 106.606 188.442C106.155 188.652 105.704 188.827 105.244 188.993Z" fill="black"/>
<path d="M108.401 73.9036C108.228 74.551 108.038 75.194 107.832 75.8324L106.101 73.5948C106.866 73.6873 107.633 73.7903 108.401 73.9036Z" fill="black"/>
<path d="M105.987 181.031C107.772 183.882 105.326 185.439 102.688 186.017C91.9507 188.371 80.8805 188.845 69.988 190.138C65.2411 190.702 60.5078 191.364 55.7745 192.018C51.0412 192.671 46.4309 193.293 41.7431 193.808C40.3765 193.96 39.0325 194.103 37.675 194.229C36.0137 194.39 34.3509 194.531 32.6866 194.654C27.2608 195.043 21.7166 195.437 16.2863 195.222C14.9476 195.171 13.6201 194.962 12.332 194.6C11.7773 194.472 11.2549 194.235 10.7968 193.902C10.4414 193.607 10.6555 193.454 11.102 192.801C11.2134 192.642 11.298 192.467 11.3525 192.282C15.4207 191.933 19.4479 191.154 23.5024 190.72C27.1879 190.322 30.8825 189.995 34.5771 189.655L38.4221 189.292C40.4903 189.087 42.554 188.872 44.6132 188.626C51.7291 187.78 58.7356 186.276 65.847 185.381C73.2457 184.426 80.7106 184.057 88.1695 184.276C90.4884 184.352 90.4793 180.821 88.1695 180.749C75.2726 180.338 62.8129 182.298 50.1437 184.329C45.6109 185.059 41.0325 185.529 36.4768 185.945C35.2286 186.061 33.9804 186.173 32.7321 186.281C27.1697 186.768 21.6027 187.27 16.0858 188.138C12.7466 188.666 9.14762 189.275 5.76734 188.818C5.31178 188.755 3.48953 188.576 3.6262 187.793C3.89042 186.509 6.15001 185.609 7.17959 185.108C10.651 183.421 14.6827 182.28 18.3682 181.219C22.0537 180.159 25.803 179.402 29.5158 178.485C30.673 178.198 31.8301 177.899 32.9736 177.59C34.117 177.281 35.1739 176.927 36.2536 176.543C40.996 174.864 45.4833 172.578 50.1847 170.801C51.2143 170.412 52.2393 170.062 53.2689 169.758C57.317 168.519 61.5735 168.072 65.7969 168.442C70.9903 168.912 76.2748 170.233 81.3088 171.539C86.3427 172.846 91.1125 174.806 96.1738 175.921C96.2747 175.953 96.3783 175.977 96.4836 175.992C96.5631 176.009 96.6438 176.021 96.725 176.028C100.224 176.547 104.028 177.894 105.987 181.031ZM67.3594 171.208C67.5188 170.939 67.5632 170.619 67.483 170.318C67.4027 170.017 67.2043 169.759 66.9312 169.602C66.8037 169.534 66.6807 169.458 66.5485 169.396C66.2728 169.263 65.9717 169.188 65.6647 169.176C65.3655 169.181 65.079 169.296 64.862 169.499C64.6451 169.702 64.5135 169.977 64.4935 170.27C64.4734 170.564 64.5663 170.854 64.7537 171.083C64.9411 171.312 65.2094 171.464 65.5053 171.508L65.724 171.629C65.9989 171.781 66.3231 171.822 66.6283 171.743C66.9334 171.665 67.1956 171.473 67.3594 171.208ZM58.5306 171.848C58.7529 171.627 58.8776 171.329 58.8776 171.018C58.8776 170.707 58.7529 170.409 58.5306 170.188C58.3542 170.016 58.1269 169.904 57.8814 169.867C57.6358 169.83 57.3847 169.87 57.1639 169.982C56.8855 170.039 56.6371 170.193 56.4636 170.414C56.2901 170.636 56.2029 170.911 56.2177 171.19C56.2326 171.47 56.3484 171.734 56.5445 171.937C56.7406 172.14 57.0039 172.267 57.2869 172.296C57.744 172.305 58.1879 172.145 58.5306 171.848Z" fill="#F7931E"/>
<path d="M105.308 51.0488C105.057 51.2128 104.843 51.4261 104.679 51.6753C104.624 51.4951 104.549 51.3211 104.456 51.1562C104.21 50.7624 104.479 50.7221 105.308 51.0488Z" fill="black"/>
<path d="M105.244 188.993C103.402 190.107 101.408 190.958 99.3219 191.521C84.6801 193.678 70.7171 196.829 58.959 204.898C58.9317 203.698 58.8952 202.503 58.8497 201.317C58.7859 199.438 58.8861 197.236 58.5308 195.258C69.9198 193.687 81.3499 192.716 92.7481 191.23C96.7616 190.68 101.345 190.402 105.244 188.993Z" fill="#BE9C67"/>
<path d="M99.0529 72.3597L99.3627 72.4537C99.267 72.7535 99.1623 73.0534 99.0529 73.3487C98.4561 74.9105 96.0827 75.1388 95.5906 73.3487C95.5086 73.0444 95.4175 72.7356 95.3264 72.4268L95.5906 72.3552L99.0529 72.3597Z" fill="black"/>
<path d="M99.0531 72.3596H95.5908C96.2867 70.4825 96.7457 68.5287 96.9575 66.5419C97.7785 68.4364 98.4784 70.3795 99.0531 72.3596Z" fill="black"/>
<path d="M97.3765 172.573C99.5541 173.021 98.7432 176.211 96.6612 176.01L96.4198 175.974L96.11 175.903C94.2604 175.325 95.2444 172.269 97.3765 172.573Z" fill="black"/>
<path d="M97.3766 172.573C95.2218 172.273 94.2378 175.325 96.1056 175.903C91.0443 174.788 86.2518 172.801 81.2406 171.521C76.2294 170.242 70.9175 168.894 65.7287 168.425C61.5052 168.054 57.2488 168.501 53.2007 169.74L53.1733 169.66C53.6433 169.549 54.0522 169.265 54.3164 168.867C54.5806 168.47 54.6802 167.988 54.5947 167.521C54.4854 166.934 54.3851 166.344 54.2895 165.757C57.0795 165.005 59.9661 164.655 62.8586 164.719C68.7171 164.92 74.4299 166.344 80.1153 167.619C85.9875 168.93 91.5272 171.32 97.3766 172.573Z" fill="black"/>
<path d="M96.4426 175.974L96.6841 176.01C96.6029 176.003 96.5222 175.991 96.4426 175.974Z" fill="black"/>
<path d="M96.9574 66.5553C96.7456 68.5422 96.2866 70.496 95.5907 72.3731L95.3265 72.4447C93.7151 66.9285 91.2391 61.6924 87.9874 56.9247C86.1958 54.4818 84.0677 52.2949 81.6641 50.4267C80.1289 49.1915 77.8374 47.3209 75.5869 46.9405C75.3162 46.2605 75.091 45.5639 74.9127 44.8551C74.4936 45.58 74.0745 46.3005 73.6599 47.0255C74.2858 46.8444 74.947 46.8153 75.5869 46.9405C77.3454 51.362 80.835 54.9377 83.7871 58.6387C87.222 62.9394 90.0738 67.437 90.7709 72.8967H90.6251C88.8283 70.3565 86.8068 67.9769 84.5843 65.7856C80.5845 58.9833 73.4276 53.6578 71.4504 45.7769C71.3307 45.3262 71.3945 44.8472 71.6285 44.442C71.8624 44.0367 72.2479 43.737 72.7032 43.6065C76.1655 42.5593 79.8465 44.6 82.5161 46.6049C85.5145 48.7926 88.1938 51.3734 90.4793 54.2754C92.5202 56.9605 94.0281 60.0529 95.4176 63.0871C95.9369 64.2282 96.4654 65.3873 96.9574 66.5553Z" fill="black"/>
<path d="M96.1284 175.903L96.4382 175.974C96.333 175.959 96.2293 175.935 96.1284 175.903Z" fill="black"/>
<path d="M90.8667 73.7962C91.0261 75.7071 88.4567 75.9711 87.5228 74.6912C84.1608 70.0683 79.7783 64.8189 73.9288 63.257C71.159 62.5186 68.4621 62.7603 65.7287 63.2212C65.6229 63.0848 65.5516 62.9256 65.5207 62.7567C65.4899 62.5879 65.5002 62.4143 65.551 62.2501L64.2982 63.4808L65.7287 63.2212C66.9268 64.9487 72.5621 65.9064 73.8651 66.4121C78.53 68.1663 81.4411 72.3999 84.343 76.177C84.9489 76.9691 84.4478 78.1147 83.6961 78.5936C76.7488 82.9972 70.0976 87.9915 64.9269 94.4134C59.5861 101.126 55.7864 108.893 53.7884 117.183C53.1552 119.757 52.6495 122.361 52.2714 124.988C50.9287 125.446 49.6348 126.032 48.4082 126.738C48.8318 122.779 49.5674 118.859 50.6086 115.013C52.9183 106.64 56.7769 98.6783 62.3484 91.9207C67.3596 85.8345 73.5826 80.9431 80.1928 76.6155L81.2042 77.9581L81.8511 75.5415C81.2953 75.895 80.7441 76.253 80.1974 76.6066C78.7031 74.5972 77.0996 72.476 75.0723 71.0573C73.3639 69.8625 71.5508 69.3836 69.5691 68.7839C66.1478 67.7457 60.6401 65.8929 62.0705 61.3103C62.1531 61.0163 62.312 60.7483 62.5316 60.5326C62.7512 60.3169 63.024 60.1608 63.3233 60.0796C67.3915 59.3144 71.5508 58.6923 75.578 60.0796C78.9717 61.306 82.0473 63.2545 84.5845 65.7855C86.0875 68.2195 87.0082 70.9571 87.2768 73.7917L90.6252 72.8966H90.771C90.812 73.1875 90.8439 73.4918 90.8667 73.7962Z" fill="black"/>
<path d="M90.6252 72.9057L87.2769 73.8008C87.0095 70.9631 86.0889 68.2223 84.5845 65.7856C86.8074 67.9797 88.8289 70.3624 90.6252 72.9057Z" fill="black"/>
<path d="M88.1423 180.74C90.452 180.816 90.4611 184.32 88.1423 184.267C80.6833 184.048 73.2185 184.417 65.8197 185.372C58.7084 186.267 51.6973 187.771 44.586 188.617C42.5223 188.863 40.4586 189.064 38.3949 189.283C37.6842 188.197 37.0251 187.083 36.4177 185.94C40.9734 185.524 45.5654 185.045 50.0846 184.325C62.7857 182.289 75.2453 180.351 88.1423 180.74Z" fill="black"/>
<path d="M84.197 224.526C84.6799 223.094 86.9942 223.711 86.5022 225.152L85.304 228.683C84.8211 230.115 82.5069 229.498 82.9989 228.057L84.197 224.526Z" fill="black"/>
<path d="M85.8828 148.094C86.0149 149.042 85.6686 149.982 84.63 150.26C83.778 150.488 82.5526 149.982 82.4205 149.029C82.2394 147.432 82.174 145.824 82.2246 144.218C82.2246 141.945 85.8235 141.945 85.8144 144.218C85.7452 145.51 85.768 146.805 85.8828 148.094Z" fill="black"/>
<path d="M81.8509 75.5371L81.204 77.9537L80.1926 76.6112C80.7393 76.2487 81.2951 75.8906 81.8509 75.5371Z" fill="black"/>
<path d="M78.5664 224.839V228.365C78.5664 229.883 76.1702 229.883 76.1702 228.365V224.839C76.1702 223.313 78.5664 223.313 78.5664 224.839Z" fill="black"/>
<path d="M74.9083 44.8417C75.0866 45.5505 75.3118 46.2471 75.5826 46.9271C74.9427 46.8019 74.2814 46.831 73.6555 47.0121C74.0746 46.2872 74.4938 45.5667 74.9083 44.8417Z" fill="black"/>
<path d="M73.3366 229.229C73.7056 230.702 71.3959 231.328 71.0314 229.856C70.5443 228.089 70.2616 226.274 70.1886 224.445C70.1659 222.928 72.5576 222.928 72.5849 224.445C72.6534 226.062 72.9055 227.667 73.3366 229.229Z" fill="black"/>
<path d="M66.9359 169.61C67.2091 169.768 67.4075 170.026 67.4877 170.327C67.568 170.628 67.5235 170.948 67.3642 171.217C67.201 171.483 66.9392 171.675 66.634 171.755C66.3288 171.834 66.0042 171.794 65.7287 171.642L65.51 171.521H65.5556L65.6376 171.548L65.5784 171.526H65.674H65.797L65.5465 171.49L65.3506 171.409C65.3989 171.431 65.446 171.455 65.4918 171.481C65.1959 171.437 64.9276 171.285 64.7402 171.056C64.5528 170.827 64.4599 170.537 64.48 170.243C64.5 169.95 64.6316 169.675 64.8485 169.472C65.0655 169.269 65.352 169.154 65.6513 169.15C65.9582 169.161 66.2593 169.236 66.5351 169.369C66.6808 169.454 66.8084 169.534 66.9359 169.61Z" fill="black"/>
<path d="M65.7105 63.2168L64.28 63.4764L65.5328 62.2457C65.482 62.4099 65.4716 62.5835 65.5025 62.7523C65.5334 62.9212 65.6047 63.0804 65.7105 63.2168Z" fill="black"/>
<path d="M65.6284 171.544L65.5464 171.517L65.6284 171.544Z" fill="black"/>
<path d="M65.5373 171.503H65.4872C65.4414 171.477 65.3942 171.453 65.3459 171.432L65.5373 171.503Z" fill="black"/>
<path d="M62.5351 149.315C62.5625 151.593 58.9726 151.589 58.9453 149.315C58.9453 147.83 58.6993 146.362 58.6811 144.876C58.6537 142.598 62.2436 142.603 62.2709 144.876C62.2982 146.339 62.5215 147.83 62.5351 149.315Z" fill="black"/>
<path d="M60.3484 273.757C60.4263 274.09 60.4074 274.437 60.2937 274.76C59.1867 274.8 58.0705 274.867 56.9635 274.961C56.9305 274.876 56.9046 274.787 56.8861 274.697C56.6537 273.637 56.4305 272.572 56.262 271.502C57.4601 271.386 58.6537 271.301 59.8472 271.256C59.9991 272.091 60.1661 272.925 60.3484 273.757Z" fill="black"/>
<path d="M59.0411 212.062C59.0411 219.442 58.8634 226.831 58.6857 234.206C58.3896 246.445 57.6425 259.115 59.8474 271.256C58.6493 271.305 57.4557 271.386 56.2621 271.502C54.1711 259.504 54.7861 247.049 55.0777 234.966C55.2553 227.591 55.4603 220.198 55.4512 212.832C55.4512 211.8 55.4512 210.769 55.4512 209.74L56.0252 210.048C57.4329 210.791 58.7358 209.57 58.7358 208.388H59.032C59.0274 209.61 59.0411 210.836 59.0411 212.062Z" fill="black"/>
<path d="M59.0136 208.384H58.7175C58.7154 208.091 58.6286 207.806 58.4672 207.56C58.3059 207.314 58.0766 207.119 57.8063 206.996C57.4647 206.817 57.123 206.629 56.7859 206.441C57.4966 205.904 58.2118 205.385 58.9361 204.893C58.9771 206.057 58.9999 207.202 59.0136 208.384Z" fill="black"/>
<path d="M58.8405 201.304C58.886 202.503 58.9225 203.698 58.9498 204.884C58.2254 205.376 57.5102 205.895 56.7995 206.433C56.3197 206.167 55.8444 205.893 55.3736 205.609C55.3524 204.416 55.3205 203.231 55.278 202.056C55.2096 200.114 55.3691 197.76 54.95 195.723L57.2278 195.401L58.5125 195.227C58.8769 197.223 58.7767 199.424 58.8405 201.304Z" fill="black"/>
<path d="M58.5307 170.179C58.753 170.4 58.8777 170.698 58.8777 171.009C58.8777 171.32 58.753 171.618 58.5307 171.839C58.1894 172.139 57.7453 172.302 57.2871 172.296C56.9728 172.312 56.6648 172.205 56.4301 171.999C56.1954 171.793 56.0529 171.505 56.0337 171.196C56.0145 170.888 56.1201 170.584 56.3275 170.352C56.5349 170.119 56.8274 169.977 57.1413 169.955C57.0894 169.984 57.0392 170.015 56.9909 170.049L56.8679 170.147C56.9221 170.116 56.9725 170.078 57.0183 170.036L57.2051 169.955L57.4602 169.919H57.3144H57.1732C57.3983 169.816 57.651 169.785 57.8949 169.832C58.1388 169.879 58.3614 170 58.5307 170.179Z" fill="black"/>
<path d="M56.7995 206.446C57.1366 206.629 57.4782 206.817 57.8199 207.001C58.0902 207.123 58.3195 207.319 58.4808 207.564C58.6422 207.81 58.729 208.096 58.731 208.388C58.731 209.574 57.4281 210.791 56.0204 210.048L55.4464 209.74C55.4464 208.367 55.4267 206.995 55.3872 205.622C55.8488 205.906 56.3196 206.18 56.7995 206.446Z" fill="black"/>
<path d="M60.2892 274.778C59.7698 276.152 57.5284 276.528 56.959 274.979C58.066 274.867 59.1821 274.778 60.2892 274.778Z" fill="black"/>
<path d="M58.5215 195.244L57.2369 195.419L54.959 195.741C54.8601 195.217 54.7075 194.704 54.5035 194.211C54.016 193.07 54.8224 192.282 55.8064 192.134C56.2455 192.053 56.6999 192.122 57.0936 192.329C57.4874 192.537 57.7968 192.871 57.9703 193.275C58.2282 193.91 58.4131 194.57 58.5215 195.244Z" fill="black"/>
<path d="M57.4329 169.955L57.1777 169.991H57.2142C57.1819 170.003 57.1482 170.01 57.114 170.013H57.1777L56.991 170.094C57.0393 170.06 57.0895 170.028 57.1413 170H57.2825L57.4329 169.955Z" fill="black"/>
<path d="M56.0662 129.334C56.1692 128.875 56.212 128.406 56.1938 127.937H56.2804C56.4671 127.987 56.1665 127.463 56.1938 127.901C55.9758 127.852 55.7511 127.839 55.5287 127.861C55.268 127.884 55.0092 127.924 54.7542 127.982C54.3852 127.038 53.5515 126.358 52.0527 126.277C52.1074 125.829 52.1712 125.382 52.235 124.934C53.2972 124.579 54.4071 124.38 55.5287 124.344C62.5945 124.205 58.8634 132.757 56.8954 136.046C57.9204 134.109 55.1004 132.386 53.9251 134.046C54.736 132.739 55.7155 131.016 56.0662 129.334Z" fill="black"/>
<path d="M57.2142 169.973H57.1778H57.114C57.1473 169.977 57.181 169.977 57.2142 169.973Z" fill="black"/>
<path d="M53.9387 134.095C55.1141 132.435 57.934 134.158 56.909 136.096C55.7701 138.016 52.7771 136.364 53.7201 134.449L53.793 134.315C53.8209 134.259 53.8529 134.205 53.8886 134.153L53.9387 134.095Z" fill="black"/>
<path d="M56.9863 170.058C56.9405 170.101 56.8901 170.138 56.8359 170.17L56.9589 170.071L56.9863 170.058Z" fill="black"/>
<path d="M56.1936 127.942C56.1709 127.494 56.467 128.022 56.2802 127.978H56.1936V127.942Z" fill="black"/>
<path d="M56.1937 127.955C56.212 128.424 56.1691 128.893 56.0662 129.352C55.7306 129.744 55.3357 130.084 54.8954 130.358C55.0609 129.586 55.0121 128.784 54.7542 128.036C55.0092 127.978 55.2679 127.938 55.5286 127.915C55.7511 127.892 55.9758 127.906 56.1937 127.955Z" fill="#FDD089"/>
<path d="M55.7747 192.018V192.13C54.7952 192.277 53.9888 193.065 54.4717 194.206C54.6757 194.7 54.8284 195.213 54.9273 195.737C51.4878 196.211 48.0392 196.632 44.5906 197.048C43.5944 196.01 42.6347 194.931 41.7114 193.812C46.4265 193.293 51.1006 192.658 55.7747 192.018Z" fill="black"/>
<path d="M53.7337 134.449C52.777 136.364 55.7701 138.029 56.9227 136.096C55.474 138.825 53.6153 141.336 51.8568 143.9L51.8204 143.533C51.6442 141.743 51.5333 139.953 51.4878 138.163C52.2759 136.941 53.0504 135.724 53.7337 134.449Z" fill="black"/>
<path d="M55.3736 205.622C55.407 206.995 55.4267 208.367 55.4328 209.74C50.971 207.334 46.8966 204.292 43.3422 200.713C42.2913 199.675 41.2891 198.607 40.3354 197.509C41.7629 197.369 43.1918 197.22 44.6223 197.061C47.8025 200.372 51.4182 203.251 55.3736 205.622Z" fill="black"/>
<path d="M55.2781 202.074C55.3206 203.267 55.3525 204.451 55.3738 205.627C51.4159 203.252 47.7987 200.368 44.6179 197.052C48.0665 196.659 51.5151 196.216 54.9546 195.741C55.3692 197.777 55.2098 200.131 55.2781 202.074Z" fill="#BE9C67"/>
<path d="M56.0662 129.333C55.7199 130.994 54.7359 132.721 53.9387 134.077L53.9022 134.135C53.8665 134.187 53.8345 134.241 53.8066 134.297L53.7337 134.431C53.0503 135.706 52.2759 136.932 51.4559 138.141C50.3762 139.761 49.2236 141.34 48.1439 142.956C47.5836 143.788 47.046 144.625 46.5403 145.485C45.6292 147.02 47.3148 148.438 48.6496 148.058C48.9002 150.295 49.1689 152.502 49.3739 154.73C49.7429 158.758 50.1848 162.786 50.8409 166.773C49.219 167.324 47.6155 167.95 46.0438 168.599C43.0781 169.834 40.1761 171.078 37.2286 172.206C35.6387 163.466 32.3814 153.379 37.1512 145.404C37.4827 145.723 37.9256 145.906 38.3895 145.915C38.8534 145.924 39.3034 145.759 39.6477 145.453C41.0045 144.302 42.256 143.037 43.3878 141.672C43.7978 142.777 45.2648 143.498 46.2989 142.383C46.8592 141.784 47.4196 141.175 47.9799 140.562C49.1689 139.255 50.3443 137.917 51.424 136.534C52.3851 135.311 53.2559 134.022 54.0298 132.676C54.4401 131.955 54.7264 131.172 54.8771 130.358C55.3253 130.08 55.7265 129.734 56.0662 129.333Z" fill="#BE9C67"/>
<path d="M54.8907 130.358C54.7399 131.172 54.4536 131.955 54.0433 132.677C53.2694 134.022 52.3986 135.311 51.4375 136.534C51.4375 134.308 51.521 132.083 51.6881 129.857C52.1755 129.803 51.9158 129.902 51.6881 129.683C51.6881 129.499 51.7154 129.32 51.7382 129.137C52.2575 128.895 52.786 128.689 53.3281 128.47C53.7869 128.287 54.259 128.137 54.7403 128.022C55.0038 128.773 55.0558 129.581 54.8907 130.358Z" fill="black"/>
<path d="M54.613 167.521C54.6985 167.988 54.5989 168.47 54.3347 168.867C54.0705 169.265 53.6616 169.548 53.1916 169.66C52.9773 169.737 52.7479 169.767 52.5204 169.746C52.2929 169.725 52.0731 169.654 51.8772 169.539C51.6813 169.423 51.5143 169.266 51.3886 169.078C51.2629 168.891 51.1816 168.678 51.1507 168.456C51.0505 167.901 50.9548 167.346 50.8591 166.791C51.998 166.402 53.1369 166.053 54.3077 165.757C54.3989 166.344 54.5036 166.925 54.613 167.521Z" fill="black"/>
<path d="M52.0526 126.335C53.5514 126.416 54.3851 127.096 54.7541 128.04C54.2728 128.155 53.8007 128.305 53.3419 128.488C52.8043 128.694 52.2713 128.913 51.752 129.155C51.8203 128.206 51.9342 127.266 52.0526 126.335Z" fill="black"/>
<path d="M37.2423 172.224C40.1898 171.101 43.0917 169.852 46.0574 168.617C47.6291 167.968 49.2464 167.337 50.8545 166.791C50.9502 167.346 51.0458 167.901 51.146 168.456C51.1769 168.678 51.2582 168.891 51.384 169.078C51.5097 169.266 51.6767 169.423 51.8726 169.539C52.0685 169.654 52.2883 169.725 52.5158 169.746C52.7433 169.767 52.9726 169.738 53.187 169.66L53.2143 169.74C52.1847 170.045 51.1597 170.394 50.1301 170.783C45.4287 172.573 40.9414 174.847 36.199 176.525C35.1193 176.91 34.026 177.25 32.919 177.572C32.5485 176.414 32.2098 175.251 31.9031 174.081C33.7208 173.522 35.4929 172.895 37.2423 172.224Z" fill="black"/>
<path d="M51.8203 143.9C52.531 151.168 53.0868 158.543 54.2849 165.757C53.1232 166.057 51.9752 166.406 50.8363 166.791C50.1757 162.799 49.7384 158.776 49.3694 154.748C49.1644 152.511 48.9138 150.3 48.645 148.076C49.0685 147.949 49.4237 147.662 49.6336 147.279C50.3397 146.125 51.0823 144.997 51.8203 143.9Z" fill="black"/>
<path d="M52.2347 124.984C52.171 125.431 52.1072 125.879 52.0525 126.326H51.843C50.639 126.343 49.4501 126.592 48.3442 127.06C48.3442 126.948 48.3442 126.841 48.3761 126.729C49.6014 126.025 50.8938 125.441 52.2347 124.984Z" fill="black"/>
<path d="M51.8202 126.326H52.0298C51.9159 127.257 51.8111 128.197 51.7291 129.132C50.4454 129.736 49.1954 130.407 47.9844 131.142C48.0618 129.799 48.1712 128.412 48.3215 127.051C49.428 126.586 50.6168 126.34 51.8202 126.326Z" fill="black"/>
<path d="M51.8204 143.529L51.8568 143.896C51.1006 145.006 50.358 146.134 49.6747 147.279C49.4648 147.662 49.1096 147.949 48.6861 148.076C48.4948 146.375 48.3125 144.675 48.1804 142.974C49.2601 141.354 50.4127 139.774 51.4924 138.159C51.5227 139.952 51.6321 141.742 51.8204 143.529Z" fill="black"/>
<path d="M51.7018 129.687C51.9159 129.902 52.1574 129.803 51.7018 129.862C51.6927 129.781 51.6972 129.745 51.7018 129.687Z" fill="black"/>
<path d="M51.7519 129.141C51.7519 129.32 51.7154 129.504 51.7018 129.687C51.6346 129.621 51.5846 129.539 51.556 129.45C51.5908 129.599 51.5797 129.755 51.5241 129.897C51.1553 129.968 50.7939 130.071 50.4444 130.206C49.6305 130.505 48.8165 130.834 48.0026 131.195C48.0006 131.191 47.9995 131.186 47.9995 131.182C47.9995 131.177 48.0006 131.173 48.0026 131.168C49.2147 130.428 50.4663 129.751 51.7519 129.141Z" fill="black"/>
<path d="M51.7018 129.687C51.7018 129.745 51.7018 129.799 51.7018 129.862H51.6244H51.5378C51.5935 129.719 51.6046 129.563 51.5697 129.414C51.5887 129.515 51.6343 129.609 51.7018 129.687Z" fill="black"/>
<path d="M51.6153 129.866H51.6928C51.5136 132.089 51.4301 134.314 51.4422 136.543C50.3625 137.939 49.1872 139.277 47.9982 140.571C47.901 138.814 47.86 137.052 47.8751 135.286C48.6562 134.339 49.3861 133.353 50.0619 132.332C50.3489 131.884 51.301 130.645 51.5288 129.88L51.6153 129.866Z" fill="black"/>
<path d="M51.5288 129.884C51.2964 130.654 50.3489 131.902 50.0619 132.336C49.3861 133.358 48.6562 134.344 47.8752 135.29C47.1235 136.216 46.3354 137.111 45.529 137.998C46.0067 136.706 45.9528 135.282 45.3787 134.028C45.2237 133.688 45.0111 133.376 44.75 133.106C45.7796 132.498 46.8 131.867 47.8296 131.258L48.0073 131.177C48.8212 130.804 49.6352 130.475 50.4491 130.188C50.7988 130.055 51.1602 129.953 51.5288 129.884Z" fill="#FDD089"/>
<path d="M48.3716 126.729C48.3716 126.841 48.3488 126.948 48.3397 127.06C47.4675 127.409 46.6198 127.814 45.8022 128.273C46.6405 127.74 47.4969 127.217 48.3716 126.729Z" fill="black"/>
<path d="M48.6677 148.076C47.3329 148.452 45.6519 147.037 46.5585 145.502C47.0641 144.643 47.6017 143.806 48.162 142.974C48.2896 144.675 48.4764 146.375 48.6677 148.076Z" fill="black"/>
<path d="M48.3397 127.06C48.1939 128.403 48.0801 129.79 48.0026 131.151L47.8249 131.258C46.727 131.759 45.6382 132.323 44.5631 132.936C43.7568 132.238 42.6816 132.099 41.561 132.251C41.4619 131.897 41.4882 131.521 41.6355 131.183C41.7828 130.846 42.0425 130.568 42.3719 130.394C43.4606 129.763 44.6041 129.02 45.7886 128.282C46.6103 127.819 47.4625 127.411 48.3397 127.06Z" fill="black"/>
<path d="M48.0026 131.151C48.0006 131.155 47.9995 131.159 47.9995 131.164C47.9995 131.169 48.0006 131.173 48.0026 131.177L47.825 131.258L48.0026 131.151Z" fill="black"/>
<path d="M47.8751 135.29C47.8599 137.053 47.9009 138.815 47.9981 140.575C47.4377 141.193 46.8774 141.797 46.3171 142.397C45.2829 143.515 43.8206 142.79 43.406 141.685C44.3286 140.589 45.0458 139.34 45.5244 137.998C46.3535 137.116 47.1234 136.216 47.8751 135.29Z" fill="black"/>
<path d="M37.1694 145.417C36.9795 145.274 36.825 145.091 36.7173 144.881C36.6095 144.671 36.5513 144.439 36.5469 144.204C36.5425 143.969 36.5921 143.736 36.692 143.522C36.7919 143.308 36.9394 143.12 37.1238 142.97C39.0281 141.314 41.6794 139.085 42.135 136.48C42.1875 136.223 42.2104 135.96 42.2033 135.697C42.3127 135.697 42.2352 135.666 42.1578 135.554C42.1832 135.598 42.1988 135.647 42.2033 135.697H42.1441C41.4863 135.768 40.8472 135.956 40.2581 136.252C38.9784 136.84 37.7581 137.546 36.6136 138.36C38.7371 136.677 40.9629 135.123 43.2785 133.706C43.6008 133.704 43.9162 133.614 44.1896 133.446C44.3764 133.334 44.5586 133.231 44.7454 133.115C45.0065 133.385 45.2191 133.697 45.3741 134.037C45.9482 135.291 46.0021 136.715 45.5244 138.007C44.9458 138.651 44.3581 139.282 43.775 139.913C43.5456 140.145 43.3889 140.438 43.3235 140.755C43.2581 141.072 43.2867 141.401 43.406 141.703C42.2742 143.068 41.0226 144.334 39.6659 145.485C39.3193 145.788 38.868 145.95 38.4041 145.937C37.9401 145.925 37.4985 145.739 37.1694 145.417Z" fill="black"/>
<path d="M47.8249 131.258C46.7953 131.871 45.7749 132.502 44.7453 133.106C44.6912 133.043 44.6318 132.985 44.5676 132.932C45.6382 132.323 46.727 131.759 47.8249 131.258Z" fill="black"/>
<path d="M45.5245 137.998C45.046 139.34 44.3287 140.589 43.4061 141.685C43.2868 141.383 43.2582 141.054 43.3236 140.737C43.389 140.42 43.5457 140.127 43.7751 139.895C44.3628 139.273 44.9459 138.642 45.5245 137.998Z" fill="black"/>
<path d="M44.5632 132.914C44.6273 132.967 44.6867 133.025 44.7408 133.088C44.5586 133.2 44.3718 133.308 44.185 133.419C43.9117 133.587 43.5962 133.677 43.2739 133.679C43.6976 133.433 44.1304 133.182 44.5632 132.914Z" fill="black"/>
<path d="M44.5632 132.914C44.1076 133.16 43.6976 133.411 43.2694 133.675C42.8634 133.649 42.4771 133.494 42.1689 133.233C41.8607 132.972 41.6473 132.62 41.561 132.229C42.6863 132.095 43.7568 132.238 44.5632 132.914Z" fill="black"/>
<path d="M45.7887 128.277C44.6043 129.02 43.4608 129.759 42.372 130.39C42.0426 130.563 41.783 130.842 41.6356 131.179C41.4883 131.516 41.462 131.893 41.5611 132.247C40.0597 132.516 38.6161 133.036 37.2925 133.782C36.0187 134.454 34.824 135.261 33.73 136.19C33.8275 136.063 33.9408 135.949 34.0671 135.85C36.6904 133.829 39.4481 131.982 42.3219 130.323C43.3606 129.714 44.5314 128.967 45.7887 128.277Z" fill="black"/>
<path d="M44.6178 197.052C43.1904 197.217 41.7614 197.366 40.331 197.5C39.4199 196.435 38.5087 195.343 37.675 194.224C39.0417 194.099 40.3856 193.956 41.7432 193.803C42.6574 194.928 43.6156 196.011 44.6178 197.052Z" fill="black"/>
<path d="M41.5655 132.251C41.6518 132.642 41.8652 132.994 42.1734 133.255C42.4816 133.516 42.8679 133.671 43.2739 133.697C40.9583 135.114 38.7326 136.669 36.609 138.351C34.9553 139.653 32.6411 137.631 33.7299 136.194C34.8239 135.266 36.0185 134.458 37.2924 133.786C38.6174 133.04 40.0626 132.52 41.5655 132.251Z" fill="black"/>
<path d="M42.1533 135.559C42.2308 135.67 42.3037 135.688 42.1989 135.702C42.1943 135.651 42.1788 135.603 42.1533 135.559Z" fill="black"/>
<path d="M42.1989 135.697C42.2059 135.96 42.183 136.223 42.1305 136.48C41.675 139.085 39.0282 141.318 37.1193 142.969C36.935 143.12 36.7874 143.308 36.6875 143.522C36.5876 143.736 36.5381 143.969 36.5424 144.204C36.5468 144.439 36.605 144.671 36.7128 144.881C36.8206 145.091 36.9751 145.274 37.1649 145.417C32.3906 153.392 35.6524 163.479 37.2423 172.219C35.4884 172.891 33.7163 173.517 31.9031 174.077C31.1938 171.338 30.6342 168.564 30.2267 165.766C29.0923 158.158 28.8008 149.056 32.96 142.222C33.9107 140.708 35.1589 139.395 36.6319 138.36C37.7764 137.546 38.9967 136.84 40.2764 136.252C40.8655 135.956 41.5046 135.768 42.1624 135.697H42.1989Z" fill="#FDD089"/>
<path d="M37.675 194.224C38.5132 195.343 39.4015 196.435 40.3309 197.5C33.953 198.144 27.5751 198.587 21.1562 198.717C17.7669 198.784 13.9128 199.057 10.6783 197.769C8.14993 196.762 6.54634 194.833 7.24335 192.492C8.50071 192.492 9.73528 192.398 10.8059 192.318L11.3298 192.273C11.2752 192.458 11.1906 192.633 11.0792 192.792C10.6236 193.441 10.4186 193.598 10.774 193.893C11.2321 194.226 11.7545 194.463 12.3092 194.591C13.6043 194.958 14.9396 195.17 16.2863 195.222C21.7303 195.437 27.2699 195.043 32.6865 194.654C34.3509 194.534 36.0137 194.391 37.675 194.224Z" fill="black"/>
<path d="M36.4359 185.941C37.0433 187.08 37.7024 188.195 38.413 189.284L34.5681 189.646C33.903 188.548 33.2773 187.425 32.6912 186.276C33.9394 186.169 35.1876 186.061 36.4359 185.941Z" fill="black"/>
<path d="M36.6092 138.347C35.1362 139.382 33.8879 140.694 32.9373 142.209C28.7871 149.042 29.0787 158.145 30.2039 165.753C30.6197 168.558 31.1884 171.34 31.9078 174.086C30.901 174.394 29.8851 174.685 28.8509 174.949L28.4683 175.048C26.4319 167.462 25.3158 159.286 26.3362 151.531C27.1335 145.467 29.2427 140.02 33.73 136.198C32.6412 137.626 34.9646 139.649 36.6092 138.347Z" fill="black"/>
<path d="M32.6866 186.281C33.2698 187.429 33.8954 188.553 34.5636 189.65C30.869 189.991 27.1743 190.317 23.4888 190.716C19.4343 191.163 15.4026 191.933 11.339 192.277C11.8173 190.608 9.14771 189.315 7.98147 191.02C7.6645 191.473 7.41879 191.971 7.25257 192.497C5.06131 192.497 2.81994 192.143 1.30292 190.801C-1.30746 188.478 0.42368 185.193 2.79716 183.519C5.43032 181.667 8.60104 180.673 11.6533 179.684C17.2157 177.894 22.8009 176.471 28.4681 175.034C28.6504 175.73 28.8417 176.417 29.0421 177.098C29.1788 177.545 29.32 178.024 29.4704 178.48C25.7575 179.375 21.99 180.159 18.3227 181.215C14.6555 182.271 10.6055 183.416 7.13412 185.104C6.10911 185.605 3.84496 186.504 3.58073 187.789C3.42584 188.567 5.26176 188.751 5.72188 188.814C9.10215 189.261 12.7011 188.661 16.0404 188.133C21.5618 187.265 27.1288 186.768 32.6866 186.281Z" fill="black"/>
<path d="M31.9077 174.086C32.2114 175.258 32.55 176.422 32.9236 177.576C31.7847 177.908 30.6458 178.203 29.4659 178.471C29.3201 178.024 29.1743 177.576 29.0376 177.089C28.8372 176.405 28.6458 175.718 28.4636 175.025L28.8463 174.927C29.885 174.681 30.9009 174.39 31.9077 174.086Z" fill="black"/>
<path d="M7.98159 191.02C9.14783 189.315 11.8174 190.608 11.3391 192.277L10.8152 192.322C9.74461 192.403 8.51004 192.506 7.25269 192.497C7.4189 191.971 7.66462 191.473 7.98159 191.02Z" fill="black"/>
<path d="M16.1316 132.753C13.6032 135.733 11.8949 139.058 11.7901 142.992C11.7491 144.509 14.1453 144.505 14.1863 142.992C14.2729 139.712 15.717 136.901 17.8308 134.417C18.8103 133.263 17.1293 131.589 16.1361 132.753H16.1316Z" fill="white"/>
<path d="M18.7373 137.693C17.111 139.832 16.6554 142.459 16.2226 145.028C15.9721 146.509 18.2772 147.145 18.5323 145.655C18.9332 143.274 19.2977 140.857 20.8101 138.879C21.7213 137.662 19.6576 136.494 18.7419 137.693H18.7373Z" fill="white"/>
</g>
<defs>
<clipPath id="clip0_77_16">
<rect width="173" height="278" fill="white"/>
</clipPath>
</defs>
</svg>
