<svg width="33" height="33" viewBox="0 0 33 33" fill="none" xmlns="http://www.w3.org/2000/svg">
<path d="M17.5615 32.9997C26.0878 32.9997 32.9997 26.0878 32.9997 17.5615C32.9997 9.03521 26.0878 2.12329 17.5615 2.12329C9.03521 2.12329 2.12329 9.03521 2.12329 17.5615C2.12329 26.0878 9.03521 32.9997 17.5615 32.9997Z" fill="#3BD4B5"/>
<path d="M12 14C10.8 12.8 10.1667 12.5 10 12.5L6.5 16L8.5 18.5L14.5 24L18 21L25.5 12.5L23 9H21.5L14.5 16C14.1667 15.8333 13.2 15.2 12 14Z" fill="white"/>
<path d="M16.362 31.3505C24.6399 31.3505 31.3505 24.6399 31.3505 16.362C31.3505 8.08411 24.6399 1.37354 16.362 1.37354C8.08411 1.37354 1.37354 8.08411 1.37354 16.362C1.37354 24.6399 8.08411 31.3505 16.362 31.3505Z" stroke="#1F1F1F" stroke-linecap="round" stroke-linejoin="round"/>
<path d="M21.4983 9.36288L14.9475 15.9137C14.9031 15.9582 14.8504 15.9935 14.7924 16.0176C14.7343 16.0417 14.6721 16.0541 14.6092 16.0541C14.5464 16.0541 14.4842 16.0417 14.4261 16.0176C14.3681 15.9935 14.3153 15.9582 14.271 15.9137L11.2258 12.8698C11.1166 12.7606 10.987 12.674 10.8443 12.6149C10.7017 12.5558 10.5488 12.5254 10.3944 12.5254C10.24 12.5254 10.0871 12.5558 9.94447 12.6149C9.80182 12.674 9.67221 12.7606 9.56304 12.8698L7.25845 15.1744C7.14927 15.2836 7.06266 15.4132 7.00357 15.5558C6.94448 15.6985 6.91406 15.8513 6.91406 16.0057C6.91406 16.1601 6.94448 16.313 7.00357 16.4557C7.06266 16.5983 7.14927 16.7279 7.25845 16.8371L13.7705 23.3599C13.8797 23.4693 14.0094 23.556 14.1522 23.6153C14.295 23.6745 14.448 23.7049 14.6026 23.7049C14.7571 23.7049 14.9102 23.6745 15.0529 23.6153C15.1957 23.556 15.3254 23.4693 15.4346 23.3599L25.4656 13.3302C25.5748 13.221 25.6614 13.0914 25.7205 12.9488C25.7796 12.8061 25.81 12.6532 25.81 12.4988C25.81 12.3444 25.7796 12.1915 25.7205 12.0489C25.6614 11.9062 25.5748 11.7766 25.4656 11.6675L23.1624 9.36288C23.0532 9.2535 22.9235 9.16672 22.7807 9.10751C22.6379 9.0483 22.4849 9.01782 22.3303 9.01782C22.1758 9.01782 22.0227 9.0483 21.88 9.10751C21.7372 9.16672 21.6075 9.2535 21.4983 9.36288Z" stroke="#1F1F1F" stroke-linecap="round" stroke-linejoin="round"/>
</svg>
