<svg width="30" height="32" viewBox="0 0 30 32" fill="none" xmlns="http://www.w3.org/2000/svg">
<g clip-path="url(#clip0_729_178)">
<path d="M17.3389 21.2006L29.4225 13.3701V31.0303L17.3389 21.3672V21.2006Z" fill="#FFDC00"/>
<path d="M4.14111 0.624756H25.7374V15.7584L17.853 21.2839L16.5676 21.034L15.025 19.8677L13.0539 21.2839L4.14111 15.7026V0.624756Z" fill="#FFF0C0"/>
<path d="M26.0582 0C26.2956 0.1841 26.347 0.426511 26.3462 0.713073C26.3385 3.67033 26.3462 6.62758 26.3368 9.58401C26.3293 9.68558 26.3478 9.78739 26.3907 9.88029C26.4336 9.97319 26.4996 10.0543 26.5827 10.1163C27.618 10.9568 28.6395 11.8157 29.673 12.6579C29.7787 12.7351 29.8635 12.8361 29.9202 12.9521C29.977 13.0682 30.0039 13.1959 29.9987 13.3243C29.9893 15.4169 29.9936 17.5094 29.9936 19.6029C29.9973 19.6863 29.9938 19.7699 29.9833 19.8528C29.9396 20.1027 29.763 20.221 29.5162 20.251C29.2694 20.2809 29.1254 20.1552 29.05 19.9519C29.0125 19.8336 28.9957 19.7099 29.0003 19.5862C28.9974 17.8996 28.9974 16.213 29.0003 14.5264V14.1099L18.131 21.4472L28.966 30.4014C28.9772 30.2615 28.9909 30.1748 28.9909 30.0874C28.9909 27.3489 28.9934 24.6107 28.9986 21.8729C28.993 21.7388 29.0103 21.6048 29.05 21.4763C29.1237 21.2739 29.2814 21.1431 29.5179 21.1798C29.7545 21.2164 29.9464 21.3281 29.9807 21.5846C29.9911 21.6778 29.9945 21.7717 29.991 21.8654C29.991 24.6038 29.991 27.342 29.991 30.0799C29.991 31.3044 29.2814 31.9883 28.0199 31.9883C19.3437 31.9883 10.6677 31.9925 1.99207 32.0008C0.915678 32.0008 -0.0073063 31.2878 -0.000450329 30.054C0.0286875 24.5044 0.0149756 18.9556 0.00554864 13.4059C-0.00252247 13.2523 0.0284339 13.099 0.0956881 12.9597C0.162942 12.8204 0.264428 12.6993 0.391197 12.6071C1.41359 11.7832 2.41542 10.936 3.43439 10.108C3.51365 10.0493 3.57663 9.97232 3.61762 9.88404C3.65862 9.79576 3.67635 9.69894 3.66921 9.60233C3.65892 8.64435 3.65721 7.68636 3.66921 6.72921C3.66818 6.55524 3.72667 6.38587 3.83546 6.24772C4.07114 5.99198 4.49964 6.1136 4.59905 6.44848C4.63048 6.58001 4.64317 6.71512 4.63676 6.85C4.64075 9.59844 4.64075 12.3474 4.63676 15.097C4.62761 15.1783 4.64211 15.2604 4.67863 15.334C4.71514 15.4077 4.7722 15.4698 4.84329 15.5135C7.42285 17.2479 9.99984 18.9861 12.5743 20.7283C12.6085 20.7516 12.6462 20.7699 12.7011 20.8016C13.0516 20.5117 13.3995 20.2185 13.7501 19.9344C14.5599 19.268 15.4383 19.268 16.2482 19.9344C16.5987 20.2218 16.9475 20.5117 17.3092 20.8099L19.9838 19.0039C21.6898 17.8527 23.3964 16.7022 25.1035 15.5527C25.2749 15.4385 25.3658 15.3236 25.3658 15.102C25.3601 10.4792 25.3601 5.85648 25.3658 1.23372C25.3658 1.15041 25.3581 1.06711 25.3529 0.964648H4.63761C4.63761 1.17957 4.63761 1.38116 4.63761 1.59025C4.63761 2.55823 4.63761 3.52705 4.63761 4.49503C4.63761 4.61832 4.65818 4.77992 4.58962 4.8574C4.46964 4.99318 4.2991 5.14063 4.13027 5.16645C3.90574 5.2006 3.73005 5.0415 3.68378 4.80491C3.66795 4.7021 3.66193 4.59809 3.66578 4.49419C3.66578 3.22382 3.67092 1.95345 3.66064 0.683917C3.66064 0.405685 3.72405 0.178268 3.94944 0.00249909L26.0582 0ZM1.02794 14.1215V30.3798C1.12907 30.3098 1.19934 30.2681 1.26362 30.2132C2.28402 29.3707 3.30355 28.5277 4.32224 27.6841C4.869 27.2326 5.41234 26.7769 5.96767 26.3354C6.01691 26.2907 6.07512 26.2563 6.13865 26.2344C6.20218 26.2125 6.26968 26.2036 6.33691 26.2082C6.40415 26.2128 6.46969 26.2308 6.52943 26.2612C6.58917 26.2915 6.64183 26.3335 6.68412 26.3845C6.76887 26.4867 6.8103 26.6164 6.79995 26.7472C6.7896 26.8781 6.72824 27.0001 6.62841 27.0885C6.56842 27.1476 6.50072 27.1992 6.43559 27.2551L2.22774 30.7338C2.13004 30.8171 2.03663 30.9004 1.91236 31.0087H28.043C28.0327 30.9254 27.9822 30.9012 27.9419 30.8679C23.8209 27.4647 19.7002 24.0618 15.5797 20.6591C15.1889 20.3368 14.8187 20.3409 14.4254 20.6641C13.313 21.5777 12.2029 22.494 11.0951 23.4131C10.1238 24.2151 9.15255 25.0162 8.18129 25.8164C7.86934 26.0722 7.54454 26.0447 7.34829 25.7639C7.18975 25.5365 7.26259 25.27 7.54711 25.0317C8.84346 23.9593 10.1407 22.8872 11.4387 21.8154C11.5733 21.7038 11.7018 21.5863 11.8672 21.4414L1.02794 14.1215Z" fill="black"/>
<path d="M11.0399 13.7751C11.1025 13.0904 11.1779 12.4381 11.2113 11.7834C11.2134 11.5922 11.1494 11.406 11.0297 11.2544C10.6543 10.8004 10.2412 10.3764 9.84872 9.93486C9.05342 9.04102 9.42022 7.93559 10.6097 7.66652C11.1925 7.53323 11.7838 7.42827 12.3597 7.2725C12.5573 7.21267 12.7288 7.09078 12.8473 6.92596C13.1833 6.43197 13.4738 5.90883 13.79 5.40151C14.3951 4.43103 15.6103 4.4302 16.2162 5.40151C16.5273 5.90133 16.8367 6.40115 17.1298 6.9068C17.1831 7.00789 17.2602 7.09538 17.3547 7.16222C17.4492 7.22907 17.5586 7.2734 17.6739 7.29166C18.2738 7.41078 18.8652 7.54157 19.4582 7.68151C20.5569 7.93559 20.9331 9.04602 20.2029 9.88904C19.8027 10.3505 19.3708 10.7862 18.9809 11.256C18.8604 11.4071 18.7956 11.5931 18.7966 11.7842C18.8249 12.3973 18.8952 13.0079 18.9543 13.6169C19.0537 14.6615 18.0827 15.3862 17.0792 15.0013C16.4793 14.7731 15.906 14.4949 15.3061 14.2741C15.1116 14.2095 14.9006 14.2095 14.7062 14.2741C14.0968 14.4974 13.5064 14.7814 12.9022 15.0088C11.9672 15.3595 11.0074 14.694 11.0399 13.7751ZM12.0683 13.4827C12.0572 14.125 12.2295 14.2325 12.7865 14C13.2681 13.7993 13.7575 13.6152 14.2288 13.3944C14.4668 13.2739 14.731 13.2105 14.9994 13.2095C15.2677 13.2085 15.5325 13.2699 15.7714 13.3886C16.2856 13.6235 16.8084 13.8326 17.3311 14.045C17.7476 14.2116 17.9645 14.0817 17.9405 13.656C17.907 13.0729 17.8659 12.4898 17.7896 11.9166C17.7519 11.6958 17.7661 11.4694 17.8311 11.2546C17.8961 11.0398 18.0103 10.8421 18.165 10.6763C18.5684 10.232 18.9709 9.78602 19.3725 9.33841C19.7059 8.96605 19.6193 8.70697 19.1154 8.58868C18.5335 8.4554 17.9508 8.32295 17.3646 8.20716C17.1481 8.1698 16.9429 8.08585 16.7641 7.96146C16.5852 7.83708 16.4373 7.67539 16.331 7.48825C16.0242 6.97622 15.7126 6.46668 15.3961 5.95964C15.139 5.54313 14.8664 5.54313 14.6128 5.95298C14.2922 6.46946 13.9777 6.9901 13.6623 7.50908C13.5602 7.68642 13.4199 7.84024 13.251 7.96C13.0821 8.07976 12.8886 8.16265 12.6837 8.20299C12.0683 8.33294 11.4539 8.46706 10.842 8.61034C10.3989 8.71364 10.3149 8.97438 10.6114 9.30675C11.0185 9.76242 11.4307 10.2148 11.8412 10.6671C11.9972 10.832 12.1127 11.0292 12.1789 11.2437C12.2451 11.4583 12.2603 11.6847 12.2235 11.9058C12.1472 12.4514 12.1138 13.0029 12.0692 13.4827H12.0683Z" fill="black"/>
<path d="M1.02832 14.1216L11.8616 21.4389C11.6962 21.5839 11.5677 21.7022 11.4331 21.8129C10.1385 22.8853 8.84127 23.9574 7.54149 25.0293C7.25354 25.2675 7.18412 25.5333 7.34267 25.7615C7.53892 26.0422 7.86286 26.0697 8.17567 25.814C9.15036 25.0159 10.1216 24.2149 11.0895 23.4107C12.1995 22.4944 13.3096 21.578 14.4197 20.6617C14.8131 20.3385 15.1833 20.3343 15.5741 20.6567C19.6963 24.0588 23.8173 27.4626 27.9371 30.868C27.9774 30.9013 28.028 30.9238 28.0383 31.0088H1.9136C2.037 30.9005 2.13042 30.8147 2.22897 30.7339L6.43939 27.256C6.50452 27.2018 6.57223 27.1502 6.63222 27.0894C6.73204 27.001 6.7934 26.879 6.80375 26.7481C6.8141 26.6173 6.77267 26.4876 6.68792 26.3855C6.64563 26.3344 6.59297 26.2924 6.53323 26.2621C6.47349 26.2318 6.40795 26.2137 6.34072 26.2091C6.27348 26.2045 6.20599 26.2134 6.14245 26.2353C6.07892 26.2572 6.02072 26.2916 5.97147 26.3363C5.417 26.7778 4.8728 27.2335 4.32604 27.685C3.30622 28.5274 2.28668 29.3705 1.26742 30.2141C1.20486 30.2657 1.13287 30.3082 1.03175 30.3807L1.02832 14.1216Z" fill="#FFDC00"/>
<path d="M12.0691 13.4824C12.1137 13.0026 12.1471 12.452 12.2217 11.9063C12.2585 11.6852 12.2433 11.4588 12.1771 11.2443C12.1109 11.0297 11.9954 10.8325 11.8394 10.6676C11.4289 10.2145 11.0159 9.76296 10.6097 9.30729C10.3131 8.97408 10.3971 8.71417 10.8402 8.61088C11.4521 8.4676 12.0674 8.33348 12.6819 8.20353C12.8872 8.16382 13.0814 8.08139 13.2509 7.9619C13.4204 7.84241 13.5613 7.68869 13.664 7.51128C13.9802 6.9923 14.2947 6.47166 14.6144 5.95518C14.8715 5.54449 15.1406 5.54699 15.3977 5.96184C15.7125 6.46943 16.0242 6.97897 16.3327 7.49045C16.4389 7.67759 16.5869 7.83928 16.7657 7.96366C16.9445 8.08805 17.1497 8.172 17.3662 8.20936C17.9524 8.32431 18.5343 8.45926 19.1171 8.59088C19.6167 8.70501 19.7032 8.96408 19.3741 9.34061C18.9742 9.78822 18.5717 10.2342 18.1666 10.6785C18.0121 10.8432 17.8978 11.0396 17.832 11.2532C17.7663 11.4668 17.7509 11.692 17.787 11.9122C17.8633 12.4886 17.9053 13.0709 17.9378 13.6515C17.9618 14.0772 17.745 14.2097 17.3285 14.0406C16.8057 13.8281 16.2813 13.619 15.7688 13.3841C15.5298 13.2654 15.2651 13.204 14.9967 13.2051C14.7284 13.2061 14.4642 13.2695 14.2262 13.39C13.7548 13.6116 13.2655 13.7957 12.7839 13.9956C12.2302 14.2313 12.058 14.1239 12.0691 13.4824Z" fill="#FFDC00"/>
<path d="M3.45525 11.4541L1.05566 13.1202L3.45525 14.453V11.4541Z" fill="#FF7E00"/>
<path d="M26.2515 14.6198L28.6511 12.9537L26.2515 11.6208V14.6198Z" fill="#FF7E00"/>
</g>
<defs>
<clipPath id="clip0_729_178">
<rect width="30" height="32" fill="white"/>
</clipPath>
</defs>
</svg>
