<svg width="242" height="290" viewBox="0 0 242 290" fill="none" xmlns="http://www.w3.org/2000/svg">
<g clip-path="url(#clip0_350_2)">
<path d="M239.785 140.998C239.785 76.5898 189.001 24.0439 125.284 21.2247C54.8057 18.1066 -3.34801 76.5668 0.1484 147.025C3.00321 204.685 46.5944 251.626 102.74 259.669C102.938 259.699 103.125 259.778 103.285 259.898C103.445 260.019 103.572 260.177 103.655 260.359L116.573 287.902C116.868 288.532 117.337 289.064 117.925 289.438C118.512 289.811 119.194 290.009 119.889 290.009C120.585 290.009 121.267 289.811 121.854 289.438C122.442 289.064 122.911 288.532 123.206 287.902L136.126 260.359C136.211 260.179 136.34 260.023 136.5 259.904C136.661 259.786 136.848 259.71 137.046 259.682C195.134 251.35 239.785 201.389 239.785 140.998Z" fill="#EF064E"/>
<path d="M170.131 93.3905C171.669 91.5096 172.612 88.6862 172.89 85.1062C173.207 81.0017 172.601 76.0801 171.186 71.2462C169.771 66.4123 167.633 61.9441 165.142 58.6588C162.977 55.7936 160.664 53.9315 158.35 53.1708L153.646 37.1101C153.12 35.3228 151.92 33.8095 150.3 32.8892C148.681 31.9688 146.767 31.7132 144.962 32.1763C143.157 32.6394 141.603 33.7849 140.626 35.3716C139.65 36.9582 139.327 38.862 139.727 40.6817L91.6299 68.6861C91.5045 68.7585 91.3798 68.8351 91.2558 68.916L66.246 76.2556C62.7882 77.2726 59.875 79.6196 58.1456 82.7818C56.4162 85.944 56.0118 89.663 57.0211 93.123L63.2616 114.44C64.2785 117.898 66.6256 120.811 69.7878 122.54C72.9501 124.269 76.6692 124.674 80.1292 123.665L84.8461 122.273L101.147 150.344C101.877 151.594 103.003 152.565 104.347 153.103C105.691 153.64 107.176 153.714 108.567 153.312C109.069 153.161 109.551 152.951 110.002 152.685L117.513 148.323C118.249 147.896 118.894 147.328 119.41 146.651C119.926 145.975 120.304 145.204 120.523 144.381C120.741 143.559 120.795 142.701 120.681 141.858C120.568 141.015 120.29 140.202 119.862 139.466L106.395 116.268L161.201 113.938C161.848 115.683 163.147 117.11 164.825 117.917C166.502 118.724 168.427 118.849 170.195 118.265C171.962 117.682 173.435 116.435 174.302 114.788C175.17 113.141 175.365 111.222 174.846 109.435L170.131 93.3905Z" fill="#B90844"/>
<path d="M145.167 34.0483L96.1312 62.6086C96.0271 62.6726 95.9266 62.7424 95.8303 62.8176C95.5696 63.0111 95.2766 63.1569 94.965 63.2481L94.8501 63.2816L105.644 100.132L105.759 100.099C106.071 100.008 106.397 99.9722 106.721 99.9945C106.841 100.001 106.962 100.001 107.082 99.9945L163.777 97.5828L145.167 34.0483Z" fill="white"/>
<path d="M101.224 104.406L90.6431 107.506L107.626 136.747C107.759 136.97 107.974 137.132 108.225 137.199C108.476 137.266 108.743 137.232 108.969 137.105L116.481 132.743C116.703 132.61 116.865 132.395 116.932 132.144C116.999 131.893 116.965 131.626 116.838 131.399L101.45 104.899C101.359 104.743 101.283 104.578 101.224 104.406Z" fill="white"/>
<path d="M102.895 100.929L92.1002 64.0779L69.5167 70.6944C67.4569 71.3004 65.7215 72.6985 64.6911 74.5822C63.6607 76.4659 63.4194 78.6813 64.0202 80.7426L70.2607 102.059C70.8667 104.119 72.2648 105.855 74.1485 106.885C76.0322 107.915 78.2476 108.157 80.309 107.556L87.0907 105.568L102.895 100.929ZM86.2276 75.8669C86.1206 75.5019 86.163 75.1094 86.3454 74.7756C86.5279 74.4419 86.8354 74.1943 87.2004 74.0874C87.5654 73.9804 87.958 74.0228 88.2917 74.2052C88.6254 74.3877 88.873 74.6952 88.98 75.0602L91.5464 83.821C91.6534 84.186 91.611 84.5785 91.4285 84.9122C91.2461 85.2459 90.9385 85.4935 90.5735 85.6005C90.2085 85.7075 89.816 85.6651 89.4823 85.4826C89.1485 85.3002 88.901 84.9927 88.794 84.6277L86.2276 75.8669ZM81.2933 77.311C81.1863 76.946 81.2287 76.5535 81.4112 76.2198C81.5936 75.886 81.9012 75.6384 82.2662 75.5315C82.6312 75.4245 83.0237 75.4669 83.3574 75.6493C83.6912 75.8318 83.9387 76.1393 84.0457 76.5043L86.6121 85.2651C86.6783 85.4493 86.706 85.6452 86.6936 85.8405C86.6812 86.0359 86.6289 86.2266 86.5399 86.401C86.451 86.5754 86.3273 86.7297 86.1764 86.8545C86.0255 86.9792 85.8507 87.0717 85.6627 87.1263C85.4748 87.1809 85.2776 87.1965 85.0834 87.172C84.8891 87.1475 84.702 87.0835 84.5335 86.9839C84.3649 86.8843 84.2186 86.7512 84.1034 86.5929C83.9883 86.4346 83.9067 86.2544 83.8639 86.0634L81.2933 77.311Z" fill="white"/>
<path d="M158.948 47.804L167.957 78.5628C168.49 77.637 168.969 76.0988 169.144 73.846C169.412 70.3872 168.879 66.1636 167.646 61.9545C166.413 57.7455 164.582 53.9022 162.49 51.1352C161.128 49.3317 159.897 48.2972 158.948 47.804Z" fill="white"/>
<path d="M150.105 27.8206C150.048 27.6012 149.948 27.3955 149.81 27.2157C149.672 27.0358 149.499 26.8856 149.302 26.7738C149.105 26.662 148.887 26.5909 148.662 26.5647C148.437 26.5386 148.209 26.558 147.991 26.6217C147.774 26.6854 147.571 26.7921 147.396 26.9355C147.22 27.079 147.075 27.2562 146.969 27.4567C146.864 27.6572 146.799 27.8769 146.78 28.1027C146.761 28.3286 146.787 28.556 146.857 28.7714L147.338 30.4099C147.446 30.7788 147.474 31.1662 147.422 31.5468L167.025 98.4689C167.275 98.7614 167.46 99.1032 167.568 99.4721L168.049 101.111C168.106 101.33 168.207 101.536 168.345 101.715C168.483 101.895 168.655 102.046 168.852 102.157C169.05 102.269 169.267 102.34 169.492 102.366C169.718 102.392 169.946 102.373 170.163 102.309C170.381 102.246 170.583 102.139 170.759 101.996C170.934 101.852 171.079 101.675 171.185 101.474C171.291 101.274 171.355 101.054 171.374 100.828C171.393 100.603 171.367 100.375 171.297 100.16L166.126 82.5106L155.276 45.4717L150.105 27.8206Z" fill="white"/>
<path d="M166.877 47.8185C164.712 44.9533 162.398 43.0912 160.085 42.3305L155.38 26.2697C154.854 24.4825 153.655 22.9692 152.035 22.0488C150.415 21.1285 148.501 20.8729 146.696 21.336C144.892 21.7991 143.337 22.9446 142.361 24.5312C141.384 26.1179 141.062 28.0216 141.461 29.8414L93.3664 57.8499C93.2411 57.9224 93.1163 57.999 92.9923 58.0798L67.972 65.4194C64.5143 66.4364 61.6011 68.7835 59.8717 71.9457C58.1423 75.1078 57.7379 78.8269 58.7472 82.2869L64.9876 103.604C66.0077 107.059 68.3564 109.969 71.5187 111.696C74.6811 113.422 78.399 113.824 81.8573 112.814L86.5722 111.432L102.873 139.504C103.603 140.754 104.729 141.725 106.073 142.262C107.417 142.8 108.902 142.873 110.293 142.471C110.795 142.321 111.277 142.11 111.728 141.844L119.239 137.483C119.975 137.055 120.62 136.487 121.136 135.811C121.652 135.135 122.03 134.363 122.249 133.541C122.467 132.718 122.521 131.861 122.407 131.018C122.294 130.174 122.016 129.362 121.588 128.626L108.121 105.428L162.927 103.098C163.574 104.843 164.873 106.269 166.551 107.076C168.228 107.883 170.153 108.008 171.921 107.425C173.688 106.841 175.161 105.595 176.028 103.948C176.896 102.301 177.091 100.382 176.572 98.5942L171.867 82.5335C173.406 80.6526 174.348 77.8292 174.626 74.2492C174.944 70.1447 174.338 65.223 172.923 60.3891C171.508 55.5552 169.36 51.108 166.877 47.8185ZM80.3129 107.545C78.2516 108.146 76.0361 107.905 74.1524 106.874C72.2687 105.844 70.8706 104.109 70.2646 102.049L64.0242 80.732C63.4234 78.6707 63.6646 76.4553 64.695 74.5716C65.7254 72.6879 67.4608 71.2898 69.5206 70.6839L92.1 64.0778L102.894 100.929L87.0946 105.558L80.3129 107.545ZM116.836 131.399C116.963 131.625 116.997 131.893 116.93 132.144C116.864 132.395 116.702 132.61 116.479 132.743L108.968 137.104C108.741 137.232 108.474 137.265 108.223 137.199C107.972 137.132 107.757 136.97 107.624 136.747L90.6433 107.505L101.222 104.406C101.28 104.578 101.355 104.743 101.446 104.899L116.836 131.399ZM107.082 99.9923C106.962 99.999 106.841 99.999 106.721 99.9923C106.397 99.9701 106.071 100.005 105.76 100.097L105.645 100.13L94.8503 63.2732L94.9652 63.2397C95.2768 63.1484 95.5697 63.0027 95.8304 62.8092C95.9268 62.734 96.0273 62.6642 96.1314 62.6002L145.167 34.042L163.767 97.5743L107.082 99.9923ZM171.297 100.16C171.367 100.375 171.394 100.602 171.374 100.828C171.355 101.054 171.291 101.274 171.185 101.474C171.079 101.675 170.934 101.852 170.759 101.995C170.583 102.139 170.381 102.246 170.163 102.309C169.946 102.373 169.718 102.392 169.492 102.366C169.267 102.34 169.05 102.269 168.853 102.157C168.655 102.045 168.483 101.895 168.345 101.715C168.207 101.535 168.106 101.33 168.049 101.11L167.568 99.4719C167.46 99.1031 167.275 98.7613 167.025 98.4688L147.422 31.5467C147.474 31.1661 147.446 30.7787 147.338 30.4098L146.858 28.7713C146.787 28.5558 146.761 28.3284 146.78 28.1026C146.799 27.8767 146.864 27.6571 146.969 27.4566C147.075 27.2561 147.22 27.0788 147.396 26.9354C147.571 26.792 147.774 26.6852 147.991 26.6216C148.209 26.5579 148.437 26.5385 148.662 26.5646C148.887 26.5908 149.105 26.6618 149.302 26.7737C149.499 26.8855 149.672 27.0357 149.81 27.2155C149.948 27.3954 150.048 27.6011 150.105 27.8204L155.276 45.4716L166.126 82.5105L171.297 100.16ZM169.144 73.8479C168.971 76.1008 168.49 77.639 167.957 78.5648L158.948 47.806C159.896 48.2992 161.129 49.3337 162.5 51.1372C164.59 53.9042 166.421 57.7475 167.656 61.9565C168.891 66.1655 169.412 70.3892 169.144 73.8458V73.8479Z" fill="#1B2934"/>
<path d="M90.5719 85.6015C90.9365 85.4944 91.2437 85.2469 91.4259 84.9134C91.6081 84.5799 91.6505 84.1877 91.5437 83.823L88.9773 75.0622C88.9243 74.8815 88.8363 74.713 88.7182 74.5663C88.6001 74.4196 88.4542 74.2976 88.289 74.2073C88.1237 74.1169 87.9423 74.06 87.7551 74.0398C87.5678 74.0196 87.3785 74.0364 87.1977 74.0894C87.017 74.1424 86.8485 74.2304 86.7018 74.3485C86.5551 74.4666 86.4331 74.6124 86.3428 74.7777C86.2524 74.9429 86.1955 75.1243 86.1753 75.3116C86.1551 75.4988 86.1719 75.6882 86.2249 75.8689L88.7913 84.6297C88.8443 84.8105 88.9324 84.979 89.0506 85.1257C89.1688 85.2724 89.3148 85.3944 89.4802 85.4846C89.6455 85.5749 89.8271 85.6317 90.0144 85.6517C90.2017 85.6718 90.3911 85.6547 90.5719 85.6015Z" fill="#1B2934"/>
<path d="M85.642 87.0456C86.0066 86.9385 86.3138 86.691 86.4961 86.3575C86.6783 86.024 86.7206 85.6318 86.6138 85.2671L84.0474 76.5064C83.9407 76.1411 83.6933 75.8332 83.3596 75.6504C83.0258 75.4675 82.6331 75.4247 82.2679 75.5314C81.9026 75.6381 81.5947 75.8856 81.4118 76.2193C81.229 76.553 81.1862 76.9457 81.2929 77.311L83.8635 86.0634C83.9154 86.2449 84.0027 86.4143 84.1203 86.562C84.2379 86.7096 84.3835 86.8326 84.5487 86.9239C84.714 87.0152 84.8956 87.0729 85.0832 87.0938C85.2709 87.1147 85.4607 87.0983 85.642 87.0456Z" fill="#1B2934"/>
<path d="M240.851 42.504L182.752 59.526C182.268 59.6578 181.752 59.5945 181.315 59.35C180.878 59.1054 180.554 58.6991 180.413 58.2183C180.273 57.7375 180.326 57.2206 180.563 56.7789C180.799 56.3372 181.199 56.0059 181.677 55.8562L239.777 38.8341C240.26 38.7024 240.776 38.7656 241.213 39.0102C241.65 39.2547 241.974 39.6611 242.115 40.1419C242.256 40.6227 242.202 41.1395 241.966 41.5812C241.729 42.023 241.329 42.3543 240.851 42.504Z" fill="#1B2934"/>
<path d="M177.429 44.3828C177.002 44.5057 176.546 44.4763 176.138 44.2997C175.731 44.1231 175.398 43.8103 175.196 43.4149C174.994 43.0195 174.936 42.5662 175.032 42.1327C175.128 41.6991 175.371 41.3125 175.721 41.039L212.761 12.4076C213.163 12.1242 213.658 12.0067 214.145 12.0794C214.631 12.1521 215.071 12.4094 215.373 12.798C215.674 13.1865 215.815 13.6764 215.765 14.1657C215.714 14.655 215.478 15.1062 215.103 15.4254L178.056 44.0568C177.869 44.2035 177.656 44.3141 177.429 44.3828Z" fill="#1B2934"/>
<path d="M168.285 33.5363C167.922 33.6423 167.535 33.638 167.174 33.5239C166.813 33.4097 166.494 33.1909 166.257 32.8952C166.02 32.5995 165.877 32.2402 165.845 31.8628C165.813 31.4854 165.893 31.107 166.076 30.7756L182.572 0.986411C182.689 0.757804 182.85 0.555001 183.047 0.39008C183.243 0.225159 183.471 0.101492 183.716 0.0264528C183.962 -0.0485862 184.22 -0.0734633 184.475 -0.0467006C184.73 -0.0199379 184.977 0.0579206 185.202 0.182234C185.426 0.306547 185.624 0.474772 185.782 0.67689C185.94 0.879008 186.056 1.11088 186.122 1.3587C186.189 1.60651 186.205 1.86521 186.17 2.11936C186.134 2.37351 186.048 2.61792 185.916 2.83804L169.42 32.6272C169.177 33.0683 168.769 33.3951 168.285 33.5363Z" fill="#1B2934"/>
<path d="M232.913 78.6256C232.684 78.6926 232.445 78.716 232.207 78.6946L185.569 74.5691C185.075 74.5099 184.625 74.2611 184.312 73.8753C183.999 73.4895 183.848 72.9971 183.892 72.5022C183.935 72.0074 184.17 71.549 184.546 71.2241C184.922 70.8991 185.409 70.7332 185.905 70.7614L232.543 74.891C232.987 74.9311 233.402 75.1246 233.718 75.438C234.034 75.7515 234.23 76.1653 234.274 76.6082C234.318 77.0511 234.205 77.4953 233.957 77.8644C233.708 78.2334 233.338 78.5041 232.911 78.6298L232.913 78.6256Z" fill="#1B2934"/>
<path d="M214.387 104.745C213.904 104.887 213.384 104.832 212.941 104.592L182.98 88.4103C182.753 88.2943 182.552 88.1342 182.388 87.9394C182.224 87.7446 182.1 87.519 182.025 87.2758C181.949 87.0326 181.923 86.7767 181.947 86.5232C181.972 86.2697 182.047 86.0237 182.168 85.7996C182.289 85.5755 182.453 85.3778 182.652 85.2181C182.85 85.0585 183.079 84.94 183.323 84.8698C183.568 84.7996 183.825 84.7789 184.077 84.8091C184.33 84.8393 184.575 84.9197 184.796 85.0456L214.757 101.228C215.09 101.408 215.363 101.683 215.539 102.018C215.716 102.354 215.789 102.734 215.749 103.111C215.709 103.488 215.558 103.844 215.315 104.135C215.072 104.426 214.749 104.638 214.385 104.745H214.387Z" fill="#1B2934"/>
<path d="M67.9517 173.366H79.0017L78.8997 174.012C78.2877 177.911 76.8257 181.095 74.5137 183.566C71.975 186.309 68.8244 187.68 65.0617 187.68C61.911 187.68 59.395 186.626 57.5137 184.518C55.6777 182.501 54.7597 179.905 54.7597 176.732C54.7597 175.939 54.8277 175.123 54.9637 174.284C55.5757 170.476 57.1964 167.291 59.8257 164.73C62.6137 162.033 65.889 160.684 69.6517 160.684C71.805 160.684 73.675 161.194 75.2617 162.214C76.939 163.302 78.1177 164.832 78.7977 166.804L74.0037 169.184C73.641 167.937 73.0064 166.951 72.0997 166.226C71.193 165.478 70.0937 165.104 68.8017 165.104C66.263 165.104 64.121 166.328 62.3757 168.776C60.789 170.997 59.9957 173.434 59.9957 176.086C59.9957 178.103 60.4717 179.758 61.4237 181.05C62.489 182.523 63.9964 183.26 65.9457 183.26C67.5324 183.26 68.983 182.682 70.2977 181.526C71.6124 180.37 72.4284 179.01 72.7457 177.446H67.3057L67.9517 173.366ZM86.8305 170.306L84.1785 187H79.4185L82.0705 170.306H86.8305ZM86.0145 160.48C86.6945 160.48 87.2611 160.707 87.7145 161.16C88.1678 161.613 88.3945 162.18 88.3945 162.86C88.3945 163.721 88.0545 164.481 87.3745 165.138C86.7171 165.795 85.9578 166.124 85.0965 166.124C84.3938 166.124 83.8158 165.909 83.3625 165.478C82.9091 165.025 82.6825 164.447 82.6825 163.744C82.6825 162.883 83.0225 162.123 83.7025 161.466C84.3825 160.809 85.1531 160.48 86.0145 160.48ZM97.4701 173.978C96.1327 173.978 94.9881 174.579 94.0361 175.78C93.1521 176.891 92.7101 178.137 92.7101 179.52C92.7101 180.563 92.9934 181.458 93.5601 182.206C94.1494 182.954 94.9541 183.328 95.9741 183.328C97.3341 183.328 98.4787 182.727 99.4081 181.526C100.292 180.415 100.734 179.169 100.734 177.786C100.734 176.721 100.451 175.825 99.8841 175.1C99.3174 174.352 98.5127 173.978 97.4701 173.978ZM102.162 170.714C102.683 170.737 103.205 170.782 103.726 170.85C103.953 170.805 104.259 170.646 104.644 170.374C104.712 170.283 104.746 170.17 104.746 170.034C104.746 169.626 104.576 169.365 104.236 169.252C104.1 169.184 103.975 169.15 103.862 169.15C103.635 169.15 103.431 169.263 103.25 169.49C103.205 169.535 102.819 169.411 102.094 169.116C102.525 168.232 103.193 167.79 104.1 167.79C104.349 167.79 104.633 167.847 104.95 167.96C105.834 168.277 106.276 168.935 106.276 169.932C106.276 171.337 105.494 172.074 103.93 172.142C105.063 173.411 105.63 175.032 105.63 177.004C105.63 177.548 105.585 178.103 105.494 178.67C105.086 181.299 103.941 183.441 102.06 185.096C100.179 186.728 97.9234 187.544 95.2941 187.544C93.0274 187.544 91.2141 186.909 89.8541 185.64C88.4941 184.348 87.8141 182.58 87.8141 180.336C87.8141 179.792 87.8594 179.237 87.9501 178.67C88.3581 176.063 89.4914 173.933 91.3501 172.278C93.2314 170.601 95.4867 169.762 98.1161 169.762C99.6574 169.762 101.006 170.079 102.162 170.714ZM98.1161 167.008L98.1501 165.274L100.564 161.636L102.808 161.738C102.831 161.761 102.842 161.783 102.842 161.806C102.842 161.829 102.763 161.953 102.604 162.18C102.445 162.384 102.389 162.52 102.434 162.588C102.615 162.679 102.831 162.815 103.08 162.996L98.1161 167.008ZM114.057 170.306L111.405 187H106.645L109.297 170.306H114.057ZM113.241 160.48C113.921 160.48 114.488 160.707 114.941 161.16C115.394 161.613 115.621 162.18 115.621 162.86C115.621 163.721 115.281 164.481 114.601 165.138C113.944 165.795 113.184 166.124 112.323 166.124C111.62 166.124 111.042 165.909 110.589 165.478C110.136 165.025 109.909 164.447 109.909 163.744C109.909 162.883 110.249 162.123 110.929 161.466C111.609 160.809 112.38 160.48 113.241 160.48ZM132.179 174.318L130.173 187H125.413L127.419 174.318H125.787L126.433 170.306H128.065L128.949 164.662H133.709L132.825 170.306H135.749L135.103 174.318H132.179ZM138.721 158.168H143.481L141.339 171.7H141.407C142.563 170.408 144.116 169.762 146.065 169.762C149.306 169.762 150.927 171.405 150.927 174.692C150.927 175.395 150.87 176.097 150.757 176.8L149.125 187H144.365L145.759 178.16C145.94 177.004 146.031 176.245 146.031 175.882C146.031 174.341 145.328 173.57 143.923 173.57C142.676 173.57 141.747 174.182 141.135 175.406C140.75 176.154 140.444 177.265 140.217 178.738L138.925 187H134.165L138.721 158.168ZM160.176 170.306L157.524 187H152.764L155.416 170.306H160.176ZM159.36 160.48C160.04 160.48 160.607 160.707 161.06 161.16C161.514 161.613 161.74 162.18 161.74 162.86C161.74 163.721 161.4 164.481 160.72 165.138C160.063 165.795 159.304 166.124 158.442 166.124C157.74 166.124 157.162 165.909 156.708 165.478C156.255 165.025 156.028 164.447 156.028 163.744C156.028 162.883 156.368 162.123 157.048 161.466C157.728 160.809 158.499 160.48 159.36 160.48ZM177.14 179.418H166.158C166.09 179.826 166.056 180.223 166.056 180.608C166.056 182.807 166.951 183.906 168.742 183.906C170.147 183.906 171.337 183.147 172.312 181.628L176.596 182.342C175.78 183.974 174.624 185.255 173.128 186.184C171.632 187.091 169.977 187.544 168.164 187.544C165.988 187.544 164.265 186.932 162.996 185.708C161.726 184.461 161.092 182.75 161.092 180.574C161.092 179.985 161.137 179.395 161.228 178.806C161.636 176.154 162.644 174.012 164.254 172.38C165.976 170.635 168.141 169.762 170.748 169.762C172.901 169.762 174.556 170.363 175.712 171.564C176.868 172.765 177.446 174.443 177.446 176.596C177.446 177.321 177.378 178.069 177.242 178.84L177.14 179.418ZM166.77 176.46H173.128C173.15 175.553 172.935 174.771 172.482 174.114C172.028 173.434 171.371 173.094 170.51 173.094C168.651 173.094 167.404 174.216 166.77 176.46ZM165.512 167.45L171.496 163.744L176.154 167.45L173.57 168.64L170.986 166.43L167.518 168.64L165.512 167.45ZM168.368 189.074C169.342 189.051 169.83 189.471 169.83 190.332C169.83 191.216 169.331 192.021 168.334 192.746C167.744 193.177 167.144 193.392 166.532 193.392C165.557 193.415 165.07 192.995 165.07 192.134C165.07 191.227 165.568 190.423 166.566 189.72C167.178 189.289 167.778 189.074 168.368 189.074ZM180.709 170.306H185.469L184.041 179.35C183.928 180.075 183.871 180.608 183.871 180.948C183.871 182.671 184.608 183.532 186.081 183.532C187.917 183.532 189.05 182.138 189.481 179.35L190.909 170.306H195.669L194.105 180.132C193.312 185.073 190.422 187.544 185.435 187.544C181.128 187.544 178.975 185.685 178.975 181.968C178.975 181.447 179.032 180.835 179.145 180.132L180.709 170.306Z" fill="white"/>
<path d="M73.7518 226L78.3078 197.168H83.0678L80.9258 210.836C82.3084 209.453 83.9518 208.762 85.8558 208.762C87.8278 208.762 89.4031 209.487 90.5818 210.938C91.6698 212.275 92.2138 213.953 92.2138 215.97C92.2138 218.667 91.3524 221.07 89.6298 223.178C87.7938 225.422 85.5611 226.544 82.9318 226.544C80.9598 226.544 79.5884 225.841 78.8178 224.436H78.7498L78.5118 226H73.7518ZM82.5578 222.328C83.8724 222.328 85.0058 221.727 85.9578 220.526C86.8644 219.415 87.3178 218.18 87.3178 216.82C87.3178 215.777 87.0231 214.882 86.4338 214.134C85.8444 213.363 85.0511 212.978 84.0538 212.978C82.7391 212.978 81.6171 213.556 80.6878 214.712C79.7584 215.868 79.2938 217.115 79.2938 218.452C79.2938 219.517 79.5658 220.413 80.1098 221.138C80.6991 221.931 81.5151 222.328 82.5578 222.328ZM111.404 209.306L108.752 226H104.06L104.298 224.47H104.23C102.961 225.853 101.34 226.544 99.3684 226.544C97.3284 226.544 95.7304 225.83 94.5744 224.402C93.509 223.087 92.9764 221.387 92.9764 219.302C92.9764 216.627 93.815 214.236 95.4924 212.128C97.283 209.884 99.493 208.762 102.122 208.762C104.049 208.762 105.488 209.465 106.44 210.87L106.712 209.306H111.404ZM101.136 222.328C102.428 222.328 103.562 221.727 104.536 220.526C105.466 219.415 105.93 218.191 105.93 216.854C105.93 215.766 105.658 214.871 105.114 214.168C104.502 213.375 103.675 212.978 102.632 212.978C101.318 212.978 100.196 213.556 99.2664 214.712C98.337 215.845 97.8724 217.092 97.8724 218.452C97.8724 219.517 98.1444 220.413 98.6884 221.138C99.2777 221.931 100.094 222.328 101.136 222.328ZM101.204 227.734C102.179 227.711 102.666 228.131 102.666 228.992C102.666 229.876 102.168 230.681 101.17 231.406C100.581 231.837 99.9804 232.052 99.3684 232.052C98.3937 232.075 97.9064 231.655 97.9064 230.794C97.9064 229.887 98.405 229.083 99.4024 228.38C100.014 227.949 100.615 227.734 101.204 227.734ZM119.613 209.306L119.375 210.836H119.443C120.576 209.453 122.129 208.762 124.101 208.762C127.342 208.762 128.963 210.405 128.963 213.692C128.963 214.395 128.906 215.097 128.793 215.8L127.161 226H122.401L123.795 217.16C123.976 216.004 124.067 215.245 124.067 214.882C124.067 213.341 123.364 212.57 121.959 212.57C120.712 212.57 119.783 213.182 119.171 214.406C118.786 215.154 118.48 216.265 118.253 217.738L116.961 226H112.201L114.853 209.306H119.613ZM140.39 226L144.946 197.168H149.706L147.564 210.836C148.947 209.453 150.59 208.762 152.494 208.762C154.466 208.762 156.042 209.487 157.22 210.938C158.308 212.275 158.852 213.953 158.852 215.97C158.852 218.667 157.991 221.07 156.268 223.178C154.432 225.422 152.2 226.544 149.57 226.544C147.598 226.544 146.227 225.841 145.456 224.436H145.388L145.15 226H140.39ZM149.196 222.328C150.511 222.328 151.644 221.727 152.596 220.526C153.503 219.415 153.956 218.18 153.956 216.82C153.956 215.777 153.662 214.882 153.072 214.134C152.483 213.363 151.69 212.978 150.692 212.978C149.378 212.978 148.256 213.556 147.326 214.712C146.397 215.868 145.932 217.115 145.932 218.452C145.932 219.517 146.204 220.413 146.748 221.138C147.338 221.931 148.154 222.328 149.196 222.328ZM175.629 218.418H164.647C164.579 218.826 164.545 219.223 164.545 219.608C164.545 221.807 165.44 222.906 167.231 222.906C168.636 222.906 169.826 222.147 170.801 220.628L175.085 221.342C174.269 222.974 173.113 224.255 171.617 225.184C170.121 226.091 168.466 226.544 166.653 226.544C164.477 226.544 162.754 225.932 161.485 224.708C160.216 223.461 159.581 221.75 159.581 219.574C159.581 218.985 159.626 218.395 159.717 217.806C160.125 215.154 161.134 213.012 162.743 211.38C164.466 209.635 166.63 208.762 169.237 208.762C171.39 208.762 173.045 209.363 174.201 210.564C175.357 211.765 175.935 213.443 175.935 215.596C175.935 216.321 175.867 217.069 175.731 217.84L175.629 218.418ZM165.259 215.46H171.617C171.64 214.553 171.424 213.771 170.971 213.114C170.518 212.434 169.86 212.094 168.999 212.094C167.14 212.094 165.894 213.216 165.259 215.46ZM169.237 206.008L164.273 201.996C164.454 201.928 164.67 201.792 164.919 201.588C164.964 201.52 164.908 201.384 164.749 201.18C164.59 200.953 164.511 200.829 164.511 200.806C164.511 200.761 164.522 200.738 164.545 200.738L166.789 200.636L169.203 204.274L169.237 206.008Z" fill="white"/>
</g>
<defs>
<clipPath id="clip0_350_2">
<rect width="242" height="290" fill="white"/>
</clipPath>
</defs>
</svg>
