<svg width="24" height="24" viewBox="0 0 24 24" fill="none" xmlns="http://www.w3.org/2000/svg">
<g clip-path="url(#clip0_76_647)">
<path d="M10.5832 20.5289C9.63615 21.4507 8.36424 21.9625 7.04268 21.9537C5.72112 21.9448 4.45618 21.416 3.52154 20.4816C2.5869 19.5473 2.05773 18.2825 2.0485 16.9609C2.03927 15.6393 2.55073 14.3673 3.47223 13.42L7.73423 9.15496L6.31923 7.74097L2.05823 12.006C0.740506 13.3243 0.000477413 15.1122 0.000946268 16.9762C0.00141512 18.8402 0.742343 20.6277 2.06073 21.9454C3.37912 23.2632 5.16698 24.0032 7.031 24.0027C8.89501 24.0023 10.6825 23.2613 12.0002 21.9429L16.2622 17.681L14.8482 16.267L10.5832 20.5289Z" fill="white" fill-opacity="0.7"/>
<path d="M21.944 2.06054C21.2933 1.40535 20.519 0.885815 19.666 0.532032C18.8131 0.17825 17.8984 -0.00274474 16.975 -0.00046364C16.0521 -0.00291537 15.1378 0.177614 14.2851 0.530688C13.4323 0.883761 12.6581 1.40237 12.007 2.05654L7.73999 6.31954L9.15399 7.73454L13.419 3.47254C13.8845 3.00419 14.4384 2.63284 15.0484 2.38C15.6585 2.12715 16.3126 1.99784 16.973 1.99954C17.9673 1.99987 18.9391 2.29497 19.7657 2.84754C20.5922 3.4001 21.2364 4.18533 21.6168 5.10396C21.9972 6.02258 22.0967 7.03336 21.9027 8.00851C21.7087 8.98367 21.23 9.87942 20.527 10.5825L16.265 14.8445L17.68 16.2595L21.942 11.9995C23.258 10.6806 23.9973 8.89364 23.9977 7.03045C23.9981 5.16726 23.2595 3.37997 21.944 2.06054Z" fill="white" fill-opacity="0.7"/>
<path d="M14.845 7.74189L7.74066 14.8462L9.15488 16.2604L16.2592 9.15611L14.845 7.74189Z" fill="white" fill-opacity="0.7"/>
</g>
<defs>
<clipPath id="clip0_76_647">
<rect width="24" height="24" fill="white"/>
</clipPath>
</defs>
</svg>
