<svg width="24" height="24" viewBox="0 0 24 24" fill="none" xmlns="http://www.w3.org/2000/svg">
<g clip-path="url(#clip0_67_15)">
<path d="M12.3325 9.64307H10.9659V12.3948H12.3325C13.1983 12.3948 13.9021 11.7773 13.9021 11.0193C13.9021 10.2605 13.1983 9.64307 12.3325 9.64307Z" fill="#FE5C06"/>
<path d="M12 3.56396C7.34765 3.56396 3.56395 7.34767 3.56395 12C3.56395 16.6524 7.34765 20.4361 12 20.4361C16.6523 20.4361 20.436 16.6524 20.436 12C20.436 7.34767 16.6523 3.56396 12 3.56396ZM12.3325 13.9233H10.9658V15.9272C10.9658 16.3125 10.6538 16.6245 10.2686 16.6245H9.91846C9.5332 16.6245 9.2212 16.3125 9.2212 15.9272V8.81106C9.2212 8.42654 9.5332 8.11454 9.91846 8.11454H12.3325C14.1599 8.11454 15.6475 9.41753 15.6475 11.0193C15.6475 12.6212 14.1599 13.9233 12.3325 13.9233Z" fill="#FE5C06"/>
<path d="M12 0C5.37305 0 0 5.37305 0 12C0 18.6277 5.37305 24 12 24C18.627 24 24 18.6277 24 12C24 5.37305 18.627 0 12 0ZM12 21.2798C6.88331 21.2798 2.7202 17.1167 2.7202 12C2.7202 6.88331 6.88331 2.7202 12 2.7202C17.1167 2.7202 21.2798 6.88331 21.2798 12C21.2798 17.1167 17.1167 21.2798 12 21.2798Z" fill="#FE5C06"/>
</g>
<defs>
<clipPath id="clip0_67_15">
<rect width="24" height="24" fill="white"/>
</clipPath>
</defs>
</svg>
