<svg width="162" height="170" viewBox="0 0 162 170" fill="none" xmlns="http://www.w3.org/2000/svg">
<g clip-path="url(#clip0_508_85)">
<path d="M79.4477 8.37607C76.3389 5.65342 113.72 39.5339 154.059 28.8867C158.367 65.3216 157.328 128.434 78.1154 167.676C28.1257 134.22 -3.68627 118.562 4.83631 29.5508C29.5069 30.8524 61.8519 30.0776 79.4477 8.37607Z" fill="#E91E63"/>
<path d="M79.4966 22.2461C79.4966 22.2461 112.517 49.7958 144.493 42.4424C144.493 72.7148 145.217 120.97 80.9 153.73C39.2375 125.84 7.26119 116.645 14.367 42.4424C30.373 42.6107 58.4899 39.069 79.4966 22.2461Z" fill="#FFEB3A"/>
<path d="M78.6702 170C74.3001 167.871 69.8634 165.865 65.5777 163.585C45.3704 152.827 28.5562 138.351 16.725 118.58C8.47774 104.825 3.52585 89.9275 1.35857 74.0829C-0.715453 58.8803 -0.444542 43.7619 2.69535 28.723C3.29935 25.7967 4.4052 25.1327 7.29195 25.8366C17.1735 28.2582 27.1528 29.4181 37.3053 27.8908C53.7153 25.4382 66.648 17.4517 75.8456 3.60378C76.7338 2.25352 77.178 0.504818 79.0122 -0.0175781H80.0114C80.8508 0.805859 81.89 1.50534 82.494 2.47487C90.4171 15.1806 101.72 23.2556 116.22 26.8238C127.794 29.6749 139.341 28.7983 150.817 26.0225L151.949 25.7569C154.521 25.1371 155.853 25.8454 156.275 28.4132C157.123 33.5353 158.087 38.6619 158.496 43.8283C159.794 58.5703 158.615 73.4249 155.009 87.7803C148.334 114.095 133.945 135.287 112.321 151.654C103.043 158.676 92.9618 164.325 82.3208 169.017C81.7503 169.309 81.1985 169.636 80.6687 169.996L78.6702 170ZM79.4474 8.37617C79.1099 8.81888 78.7723 9.26159 78.4393 9.68216C74.5908 14.7748 69.9646 19.234 64.7294 22.897C50.0736 33.0793 33.7657 35.7754 16.3652 33.3582C13.5318 32.9598 10.725 32.3842 7.81601 31.8751C7.66057 32.6145 7.51401 33.252 7.39854 33.8983C4.80477 48.1342 4.6951 62.7096 7.07433 76.9827C10.1831 95.9173 17.5999 112.979 29.7997 127.894C42.9988 144.018 59.7953 155.293 78.719 163.643C79.3724 163.847 80.0784 163.801 80.6998 163.514C88.8323 159.968 96.6245 155.691 103.98 150.738C125.431 136.191 140.709 116.977 148.423 92.0967C153.513 75.69 154.694 58.8936 152.864 41.8936C152.504 38.56 151.878 35.253 151.359 31.8441C122.638 38.0155 98.0736 32.2514 79.4474 8.37617Z" fill="black"/>
<path d="M55.3945 77.5846L107.8 76.6992L110.167 98.2193L107.356 121.559L98.0295 127.465H65.165L51.0999 115.511V92.9333L52.7298 77.8812L55.3945 77.5846Z" fill="#8BC34A"/>
<path d="M149.618 170C148.197 169.057 147.677 167.742 147.788 166.06C147.881 164.639 147.788 163.204 147.788 161.473C145.865 161.473 144.067 161.513 142.268 161.473C140.403 161.416 139.248 160.278 139.274 158.631C139.301 156.984 140.478 155.9 142.357 155.833C144.067 155.776 145.781 155.833 147.797 155.833C147.797 153.93 147.753 152.137 147.797 150.348C147.841 148.56 148.836 147.537 150.346 147.413C152.087 147.276 153.349 148.396 153.455 150.322C153.539 152.092 153.455 153.837 153.455 155.833C155.298 155.833 157.008 155.833 158.691 155.833C160.001 155.833 161.094 156.276 161.685 157.52C161.887 157.932 161.982 158.387 161.961 158.845C161.94 159.303 161.803 159.748 161.564 160.14C161.326 160.531 160.992 160.857 160.594 161.086C160.196 161.315 159.746 161.441 159.286 161.451C157.421 161.562 155.547 161.473 153.468 161.473C153.468 163.111 153.402 164.532 153.468 165.949C153.571 167.685 153.082 169.075 151.563 170.026L149.618 170Z" fill="#FFEB3A"/>
<path d="M142.956 0C145.368 1.1599 144.981 3.40443 144.933 5.53828C147.269 5.89688 150.604 4.8875 150.524 8.60182C150.449 12.0771 147.309 11.1164 144.946 11.3953C144.946 12.356 144.995 13.2812 144.946 14.1977C144.835 15.8977 143.614 17.0044 142.028 16.9602C140.491 16.9159 139.399 15.8224 139.306 14.1799C139.257 13.2945 139.306 12.4091 139.306 11.3112C138.271 11.3112 137.343 11.351 136.423 11.3112C134.78 11.2227 133.679 10.1247 133.634 8.5974C133.59 7.07005 134.718 5.80391 136.414 5.6888C137.303 5.62682 138.191 5.6888 139.243 5.6888C139.394 3.54167 138.724 1.12448 141.291 0H142.956Z" fill="#FFEB3A"/>
<path d="M14.2116 147.36C14.2116 149.166 14.2383 150.813 14.2116 152.46C14.1717 154.62 13.1369 155.798 11.356 155.78C9.57507 155.762 8.57137 154.572 8.5314 152.402C8.50031 150.804 8.5314 149.206 8.5314 147.36H3.29528C1.96293 147.36 0.892611 146.917 0.288613 145.682C-0.599618 143.836 0.66167 141.817 2.83784 141.724C4.64983 141.644 6.4707 141.724 8.50475 141.724C8.50475 139.883 8.48254 138.24 8.50475 136.602C8.54472 134.486 9.61504 133.211 11.3293 133.189C13.0436 133.167 14.145 134.428 14.185 136.54C14.2161 138.187 14.185 139.834 14.185 141.711C16.068 141.711 17.7646 141.711 19.4611 141.711C21.4862 141.742 22.6854 142.791 22.6987 144.482C22.712 146.173 21.4774 147.302 19.5099 147.355C17.8179 147.395 16.1036 147.36 14.2116 147.36Z" fill="#FFEB3A"/>
<path d="M103.665 73.6842H105.699C110.03 73.6842 112.219 75.8977 112.219 80.2496C112.219 90.153 112.281 100.056 112.175 109.955C112.158 112.22 111.814 114.47 111.153 116.636C108.742 124.321 101.88 129.868 93.7838 130.165C85.0836 130.479 76.3523 130.524 67.661 130.125C57.8904 129.682 49.8075 120.943 49.7054 111.208C49.5899 100.641 49.6565 90.0733 49.6832 79.5103C49.6832 76.0394 52.0636 73.755 55.5721 73.6886C56.3449 73.6886 57.1177 73.6886 58.0992 73.6886C58.1391 72.9316 58.1702 72.241 58.2146 71.5548C58.4678 67.4863 58.1613 63.285 59.0807 59.367C61.621 48.5605 72.4574 41.2647 83.2317 42.5972C94.9741 44.0493 103.51 53.3418 103.661 64.8477C103.696 67.7342 103.665 70.5808 103.665 73.6842ZM55.7898 113.298C55.7887 113.555 55.8065 113.813 55.8431 114.068C57.1754 119.686 62.3849 124.339 68.1983 124.498C76.6365 124.733 85.0747 124.72 93.4907 124.498C99.0955 124.365 103.959 120.355 105.735 115.029C105.899 114.528 105.988 114.006 106.179 113.258H103.479C102.591 113.258 101.702 113.293 100.814 113.236C98.5936 113.09 97.1858 110.836 98.4426 109.145C99.0333 108.353 100.299 107.817 101.334 107.658C102.995 107.414 104.714 107.591 106.454 107.591V102.212C106.259 102.115 106.166 102.026 106.073 102.022C104.909 102 103.745 101.987 102.582 101.973C102.027 101.973 101.471 101.973 100.916 101.973C99.1976 101.885 98.0207 100.747 98.0163 99.1842C98.0162 98.8089 98.0909 98.4374 98.2359 98.091C98.3809 97.7447 98.5934 97.4305 98.861 97.1666C99.1287 96.9027 99.4462 96.6943 99.7952 96.5535C100.144 96.4127 100.518 96.3424 100.894 96.3465C102.746 96.2756 104.607 96.3465 106.454 96.3465V90.6798C104.638 90.6798 102.928 90.6798 101.218 90.6798C99.282 90.6488 98.0029 89.4977 98.0163 87.8376C98.0296 86.1774 99.3131 85.0618 101.263 85.0352C102.968 85.0131 104.674 85.0352 106.446 85.0352V79.4483H55.4833V84.8803C55.5741 84.9148 55.6677 84.9415 55.7631 84.96C57.3708 84.96 58.9785 84.96 60.5862 84.9998C62.5714 85.0308 63.8327 86.0977 63.8815 87.7579C63.9304 89.4181 62.6203 90.6267 60.564 90.6488C58.8675 90.6488 57.171 90.6488 55.4922 90.6488V96.3066H58.1125C58.943 96.3066 59.7779 96.3066 60.6084 96.3066C62.5847 96.3553 63.8549 97.4444 63.8904 99.0957C63.926 100.747 62.6247 101.933 60.5462 101.956C58.8497 101.956 57.1532 101.956 55.4522 101.956V107.627C57.2953 107.627 59.0585 107.582 60.8171 107.627C62.6691 107.689 63.8771 108.853 63.886 110.456C63.8949 112.058 62.6824 113.214 60.8349 113.262C59.1739 113.333 57.5174 113.298 55.7898 113.298ZM97.9807 73.6134C97.9807 70.5454 98.034 67.6191 97.9807 64.6972C97.8913 61.1877 96.7103 57.7926 94.6012 54.9812C92.4921 52.1698 89.559 50.0809 86.2072 49.0032C82.8806 47.9438 79.3092 47.9194 75.9683 48.9333C72.6275 49.9471 69.6756 51.9512 67.5055 54.6787C62.9 60.3941 64.0192 67.0391 63.9526 73.6134H97.9807Z" fill="black"/>
<path d="M79.2346 25.9249C61.9141 41.8093 41.094 47.6575 17.3693 44.9348C17.2405 47.6353 17.054 50.2119 17.0007 52.784C16.6499 70.3463 19.5855 87.24 27.4419 103.107C31.3046 110.903 36.2208 118.135 42.0533 124.6C43.9763 126.738 44.1673 128.341 42.6928 129.616C41.2183 130.891 39.6373 130.431 37.7542 128.319C24.524 113.466 16.339 96.2226 13.0436 76.646C11.1051 65.238 10.7584 53.6175 12.0133 42.1148C12.2798 39.671 13.47 38.7457 15.926 39.0645C28.9385 40.7601 41.7157 40.158 54.0621 35.2262C62.4905 31.8877 70.1575 26.8904 76.6054 20.5327C78.9681 18.2085 80.1273 18.2306 82.4633 20.5327C89.5791 27.6529 98.2618 33.0218 107.822 36.2135C108.138 36.3197 108.457 36.4171 108.764 36.5411C110.46 37.2184 111.202 38.6793 110.642 40.2421C110.123 41.703 108.662 42.4025 106.974 41.8845C101.594 40.3 96.4687 37.9565 91.7542 34.9252C87.4907 32.1273 83.4937 29.0017 79.2346 25.9249Z" fill="black"/>
<path d="M141.673 45.0941C138.249 45.2446 135.011 45.4217 131.729 45.5147C129.593 45.5767 128.34 44.4964 128.327 42.7478C128.314 40.9991 129.579 39.9897 131.68 39.8569C135.606 39.6045 139.537 39.3256 143.458 38.9714C145.528 38.7899 146.936 39.5912 147.051 41.6675C147.415 48.1754 147.966 54.7053 147.779 61.2087C147.408 75.1824 144.276 88.9459 138.564 101.712C130.206 120.434 117.104 135.176 100.046 146.39C94.1391 150.273 87.7438 153.407 81.575 156.896C80.9598 157.277 80.2499 157.479 79.5254 157.479C78.801 157.479 78.091 157.277 77.4758 156.896C71.7023 153.686 65.9288 150.534 60.2086 147.284C58.259 146.178 57.7838 144.5 58.7386 143.003C59.6935 141.507 61.31 141.388 63.2686 142.508C68.2649 145.368 73.279 148.196 78.333 150.963C78.6594 151.126 79.0158 151.22 79.3802 151.24C79.7446 151.26 80.1092 151.205 80.4514 151.078C98.4559 142.41 113.884 130.621 125.196 113.949C133.696 101.42 138.795 87.5764 141.002 72.6394C142.244 64.2031 142.554 55.6564 141.926 47.1527C141.868 46.4842 141.744 45.7714 141.673 45.0941Z" fill="black"/>
<path d="M89.4315 96.9132C89.356 99.6979 87.8327 102.226 84.8349 103.824C84.0311 104.267 83.7024 104.683 83.7424 105.595C83.8134 107.193 83.8001 108.8 83.7424 110.403C83.6802 112.173 82.5966 113.271 80.98 113.289C79.3634 113.307 78.2131 112.231 78.1066 110.478C78.0202 109.042 78.0202 107.602 78.1066 106.166C78.1776 104.948 77.8579 104.24 76.6809 103.58C73.5988 101.854 72.1465 99.0294 72.4929 95.5408C72.8616 91.8442 74.9489 89.3164 78.5462 88.2096C83.9733 86.5362 89.4315 90.6268 89.4315 96.9132ZM83.7335 96.3422C83.7448 95.9702 83.6791 95.5999 83.5405 95.2544C83.4019 94.9088 83.1934 94.5955 82.928 94.3338C82.6626 94.0721 82.3459 93.8677 81.9978 93.7334C81.6496 93.5991 81.2775 93.5377 80.9045 93.5531C80.1796 93.5571 79.4843 93.8396 78.9631 94.3418C78.4419 94.844 78.1351 95.5272 78.1066 96.2492C78.1024 96.9995 78.3902 97.7223 78.9095 98.2655C79.4288 98.8087 80.1391 99.1301 80.8912 99.1622C81.2641 99.1651 81.634 99.0943 81.9793 98.9538C82.3246 98.8133 82.6385 98.6058 82.9028 98.3436C83.1672 98.0813 83.3767 97.7694 83.5193 97.4258C83.6619 97.0823 83.7347 96.7139 83.7335 96.3422Z" fill="black"/>
</g>
<defs>
<clipPath id="clip0_508_85">
<rect width="162" height="170" fill="white"/>
</clipPath>
</defs>
</svg>
