<svg width="33" height="33" viewBox="0 0 33 33" fill="none" xmlns="http://www.w3.org/2000/svg">
<path d="M17.188 32.6262C25.7142 32.6262 32.6262 25.7142 32.6262 17.188C32.6262 8.66167 25.7142 1.74976 17.188 1.74976C8.66167 1.74976 1.74976 8.66167 1.74976 17.188C1.74976 25.7142 8.66167 32.6262 17.188 32.6262Z" fill="#3BD4B5"/>
<path d="M11.6265 13.6265C10.4265 12.4265 9.79313 12.1265 9.62646 12.1265L6.12646 15.6265L8.12646 18.1265L14.1265 23.6265L17.6265 20.6265L25.1265 12.1265L22.6265 8.62646H21.1265L14.1265 15.6265C13.7931 15.4598 12.8265 14.8265 11.6265 13.6265Z" fill="white"/>
<path d="M15.9885 30.977C24.2664 30.977 30.977 24.2664 30.977 15.9885C30.977 7.71058 24.2664 1 15.9885 1C7.71058 1 1 7.71058 1 15.9885C1 24.2664 7.71058 30.977 15.9885 30.977Z" stroke="#1F1F1F" stroke-linecap="round" stroke-linejoin="round"/>
<path d="M21.1248 8.98935L14.574 15.5401C14.5296 15.5846 14.4769 15.62 14.4188 15.644C14.3608 15.6681 14.2986 15.6805 14.2357 15.6805C14.1729 15.6805 14.1106 15.6681 14.0526 15.644C13.9945 15.62 13.9418 15.5846 13.8974 15.5401L10.8522 12.4963C10.7431 12.3871 10.6134 12.3005 10.4708 12.2414C10.3282 12.1823 10.1753 12.1519 10.0209 12.1519C9.86646 12.1519 9.71358 12.1823 9.57093 12.2414C9.42828 12.3005 9.29868 12.3871 9.1895 12.4963L6.88492 14.8009C6.77573 14.91 6.68912 15.0396 6.63003 15.1823C6.57094 15.3249 6.54053 15.4778 6.54053 15.6322C6.54053 15.7866 6.57094 15.9395 6.63003 16.0821C6.68912 16.2248 6.77573 16.3544 6.88492 16.4636L13.397 22.9863C13.5062 23.0957 13.6359 23.1825 13.7787 23.2417C13.9214 23.3009 14.0745 23.3314 14.229 23.3314C14.3836 23.3314 14.5366 23.3009 14.6794 23.2417C14.8222 23.1825 14.9519 23.0957 15.0611 22.9863L25.0921 12.9567C25.2013 12.8475 25.2879 12.7179 25.347 12.5752C25.4061 12.4326 25.4365 12.2797 25.4365 12.1253C25.4365 11.9709 25.4061 11.818 25.347 11.6754C25.2879 11.5327 25.2013 11.4031 25.0921 11.2939L22.7888 8.98935C22.6796 8.87996 22.5499 8.79318 22.4072 8.73397C22.2644 8.67476 22.1114 8.64429 21.9568 8.64429C21.8023 8.64429 21.6492 8.67476 21.5064 8.73397C21.3637 8.79318 21.234 8.87996 21.1248 8.98935Z" stroke="#1F1F1F" stroke-linecap="round" stroke-linejoin="round"/>
</svg>
