<svg width="149" height="45" viewBox="0 0 149 45" fill="none" xmlns="http://www.w3.org/2000/svg">
<circle cx="22.7931" cy="22.4886" r="21.8532" fill="white"/>
<path d="M44.6406 6.67792H45.1513C78.7537 6.67792 112.356 6.68047 145.958 6.68557C146.339 6.67646 146.719 6.7429 147.075 6.88106C147.799 7.19216 148.034 7.8424 148.045 8.58104C148.056 9.31968 148.045 10.0541 148.045 10.791C148.045 20.1409 148.045 29.4907 148.045 38.8406C148.051 39.0527 148.038 39.2648 148.007 39.4747C147.831 40.465 147.241 40.9707 146.231 41.0174C146.103 41.0234 145.975 41.0174 145.848 41.0174H42.3579C46.7438 36.2133 49.2171 30.6374 49.6214 24.2353C50.024 17.8612 48.4026 11.9954 44.6406 6.67792ZM104.664 19.5331C104.624 19.4481 104.579 19.347 104.532 19.2467C103.629 17.2322 102.71 15.2245 101.834 13.1999C101.626 12.7196 101.387 12.4561 100.833 12.5403C100.522 12.579 100.207 12.579 99.8965 12.5403C99.4573 12.4961 99.3475 12.6729 99.35 13.0962C99.3671 15.9139 99.3586 18.7324 99.3586 21.5502C99.3586 22.7299 99.3586 22.7257 100.567 22.6279C100.84 22.6058 100.975 22.5123 100.973 22.2149C100.962 20.4588 100.973 18.7027 100.955 16.9449C100.955 16.4664 100.897 15.9878 100.87 15.5093C101.932 17.7261 102.927 19.9471 103.904 22.1749C104.052 22.5098 104.25 22.6543 104.614 22.6313C104.979 22.6084 105.351 22.6313 105.721 22.6254C106.286 22.6254 106.323 22.5854 106.323 22.0219C106.323 19.2039 106.323 16.3859 106.323 13.5679C106.323 12.3779 106.421 12.5564 105.308 12.5479C104.68 12.5411 104.668 12.5564 104.668 13.1897C104.663 15.3002 104.664 17.409 104.664 19.5331ZM58.3369 20.5472C58.3369 21.0708 58.3548 21.5952 58.331 22.118C58.3148 22.4579 58.4161 22.5948 58.7787 22.5803C59.4596 22.554 60.1405 22.5735 60.8214 22.5727C62.6598 22.5727 64.042 21.5213 64.5433 19.749C64.8879 18.5042 64.9374 17.1964 64.688 15.9292C64.3876 14.3244 63.5815 13.0307 61.8572 12.6992C60.869 12.5105 59.8289 12.5981 58.8135 12.542C58.4356 12.5207 58.325 12.6635 58.3318 13.0316C58.3522 14.1213 58.3471 15.2109 58.3318 16.3006C58.3318 16.4375 58.1701 16.6916 58.0995 16.6865C57.6084 16.6483 57.5743 16.9339 57.5888 17.2977C57.6024 17.5943 57.5956 17.8927 57.5888 18.1893C57.5888 18.4401 57.6671 18.6075 57.9565 18.5744C58.262 18.5404 58.3488 18.6908 58.3412 18.9755C58.3259 19.5 58.3361 20.0236 58.3369 20.5472ZM123.18 17.324C123.433 17.1894 123.651 16.9973 123.816 16.7631C123.981 16.5289 124.088 16.2593 124.13 15.9759C124.184 15.6418 124.21 15.3038 124.207 14.9653C124.207 13.7405 123.628 12.9194 122.432 12.7366C121.348 12.5709 120.233 12.6168 119.134 12.5428C118.694 12.5131 118.585 12.6771 118.587 13.0996C118.604 15.9462 118.587 18.7945 118.6 21.6411C118.6 22.7044 118.38 22.6356 119.595 22.6296C120.416 22.6296 121.238 22.6109 122.059 22.5676C123.491 22.4919 124.442 21.2476 124.399 19.562C124.377 18.6211 124.197 17.7805 123.18 17.324ZM97.9057 17.579C97.9653 16.559 97.841 15.5237 97.4316 14.5386C96.8477 13.1319 95.766 12.4043 94.262 12.4043C92.873 12.4043 91.7265 12.8896 91.0397 14.5157C90.7925 15.1308 90.634 15.7779 90.569 16.4375C90.4073 17.8825 90.4558 19.3274 91.0516 20.6874C91.5972 21.9344 92.5513 22.656 93.9284 22.741C95.4425 22.8345 96.6077 22.2633 97.3031 20.871C97.8155 19.84 97.9551 18.7409 97.9057 17.5748V17.579ZM140.207 17.5416C140.275 16.5539 140.128 15.563 139.774 14.6381C139.22 13.2126 138.106 12.3949 136.586 12.4017C135.198 12.4077 134.019 12.882 133.335 14.5352C133.081 15.1634 132.92 15.8251 132.858 16.4995C132.721 17.9139 132.761 19.33 133.344 20.6645C133.895 21.9284 134.853 22.6585 136.251 22.7393C137.767 22.8243 138.924 22.2455 139.613 20.8506C140.121 19.8196 140.256 18.7205 140.206 17.5374L140.207 17.5416ZM137.213 25.665H58.8884V26.1987H137.212L137.213 25.665ZM82.6799 17.562C82.6799 19.092 82.691 20.622 82.6723 22.152C82.6672 22.5319 82.8067 22.6619 83.1634 22.6398C83.4184 22.6234 83.6743 22.6234 83.9294 22.6398C84.3243 22.6687 84.4826 22.5285 84.4724 22.1077C84.4469 21.0181 84.4826 19.9267 84.4545 18.8378C84.4435 18.4129 84.5907 18.3015 84.9907 18.3202C85.6129 18.3491 86.2393 18.3491 86.8632 18.3202C87.2547 18.3024 87.3798 18.4299 87.3739 18.8242C87.3501 19.9292 87.3798 21.0342 87.3577 22.1392C87.35 22.5047 87.4581 22.6645 87.8301 22.6407C88.0701 22.6254 88.3118 22.6407 88.5527 22.6407C89.0846 22.6347 89.1229 22.5982 89.1238 22.0457C89.1238 19.8924 89.1238 17.7391 89.1238 15.5858C89.1238 14.7358 89.1161 13.8858 89.1238 13.0358C89.1238 12.6788 88.9953 12.5148 88.6208 12.5454C88.3374 12.5658 88.053 12.5658 87.7696 12.5454C87.4556 12.5258 87.3509 12.6499 87.3551 12.9636C87.3705 13.9972 87.3551 15.0308 87.3654 16.0643C87.3654 16.3593 87.2632 16.4655 86.9679 16.4596C86.287 16.4451 85.6061 16.4341 84.9252 16.4596C84.5345 16.4757 84.4469 16.3227 84.4537 15.964C84.4741 14.9729 84.4537 13.9819 84.4656 12.9891C84.4698 12.6627 84.36 12.5199 84.0238 12.5403C83.7266 12.56 83.4283 12.56 83.131 12.5403C82.7744 12.5148 82.6689 12.6635 82.6723 13.0086C82.6867 14.5284 82.6791 16.0431 82.6791 17.5578L82.6799 17.562ZM113.597 14.7571C113.727 14.355 113.87 13.8858 114.034 13.4243C114.131 13.1523 114.056 12.967 113.789 12.8981C113.179 12.7392 112.57 12.525 111.948 12.4731C110.137 12.3244 108.769 13.2441 108.123 14.9381C107.672 16.1179 107.596 17.3495 107.746 18.5727C107.856 19.409 108.077 20.2267 108.406 21.0036C108.799 21.9437 109.586 22.5038 110.61 22.6772C111.745 22.8693 112.837 22.6772 113.887 22.2437C114.013 22.1919 114.143 21.9675 114.143 21.8188C114.161 20.3041 114.151 18.7894 114.156 17.2756C114.156 16.9832 114.028 16.8761 113.743 16.8803C113.091 16.8905 112.439 16.8803 111.785 16.8803C110.827 16.8803 110.94 16.8004 110.934 17.715C110.929 18.7885 110.934 18.7885 111.985 18.82C112.013 18.82 112.052 18.8089 112.07 18.82C112.176 18.916 112.359 19.0112 112.367 19.1183C112.398 19.5561 112.398 19.9955 112.367 20.4333C112.359 20.5506 112.227 20.7401 112.126 20.7588C111.105 20.9475 110.254 20.8226 109.828 19.5875C109.639 19.0359 109.566 18.4316 109.529 17.8451C109.468 16.8727 109.604 15.9232 110.205 15.1064C110.58 14.5964 111.094 14.2709 111.728 14.3346C112.329 14.4026 112.908 14.5947 113.596 14.7528L113.597 14.7571ZM128.56 12.5471C128.39 12.5596 128.219 12.5596 128.049 12.5471C127.617 12.4825 127.429 12.6576 127.328 13.0851C127.094 14.0745 126.801 15.0494 126.535 16.0312C125.979 18.0763 125.428 20.1222 124.864 22.1638C124.768 22.5089 124.859 22.6424 125.205 22.6373C125.55 22.6322 125.886 22.6237 126.226 22.6373C126.566 22.6509 126.706 22.5064 126.768 22.1868C126.87 21.6607 127.013 21.1422 127.129 20.6186C127.183 20.378 127.294 20.2624 127.564 20.2701C128.215 20.2879 128.868 20.2905 129.522 20.2701C129.811 20.2607 129.926 20.3848 129.981 20.6407C130.098 21.1787 130.236 21.7125 130.347 22.2557C130.402 22.5217 130.539 22.6458 130.813 22.639C131.167 22.6311 131.521 22.6311 131.876 22.639C132.242 22.6475 132.337 22.52 132.234 22.1486C131.442 19.29 130.67 16.4256 129.887 13.5637C129.607 12.5428 129.6 12.5445 128.559 12.5445L128.56 12.5471ZM69.0475 12.5471C68.9059 12.5595 68.7635 12.5595 68.6219 12.5471C68.1334 12.4621 67.9299 12.6712 67.8142 13.1421C67.4976 14.4307 67.1273 15.7073 66.7792 16.9883C66.3085 18.7197 65.843 20.4528 65.3647 22.1809C65.2795 22.5013 65.3595 22.6373 65.6881 22.6347C66.0566 22.6347 66.4252 22.6262 66.7945 22.6347C67.0729 22.6432 67.2048 22.5089 67.261 22.2506C67.3784 21.7125 67.5112 21.1779 67.6286 20.6398C67.684 20.3848 67.7989 20.2514 68.0891 20.2684C68.4849 20.2922 68.8823 20.2743 69.2807 20.2743C70.3871 20.2743 70.3871 20.2743 70.6501 21.3598C70.9753 22.684 70.9753 22.684 72.3575 22.6347C72.8094 22.6177 72.8469 22.5693 72.7277 22.129C71.9481 19.2668 71.1676 16.4052 70.3863 13.5441C70.1114 12.5428 70.1046 12.5445 69.0466 12.5445L69.0475 12.5471ZM77.7689 18.497C77.7689 19.5578 77.7689 20.6189 77.7689 21.6802C77.7689 22.6959 77.6898 22.6322 78.7052 22.633C79.5903 22.633 79.5903 22.633 79.5903 21.7601C79.5903 19.4966 79.5972 17.2331 79.5844 14.9696C79.5844 14.6015 79.6942 14.4596 80.0704 14.4825C80.4798 14.5089 80.8917 14.4825 81.3028 14.4825C81.5479 14.4825 81.6645 14.3771 81.6594 14.123C81.6504 13.7127 81.6504 13.3024 81.6594 12.8922C81.6645 12.6312 81.5352 12.5471 81.2934 12.5471C79.5509 12.5505 77.8084 12.5505 76.0658 12.5471C75.7824 12.5471 75.6973 12.6814 75.7041 12.9406C75.7143 13.3223 75.7177 13.7056 75.7041 14.0864C75.6922 14.3856 75.8284 14.4919 76.1101 14.4859C76.5067 14.4783 76.905 14.5063 77.3017 14.4791C77.6983 14.4519 77.7877 14.61 77.7826 14.9721C77.757 16.1468 77.7681 17.3215 77.7681 18.4953L77.7689 18.497ZM122.592 30.9859C122.093 30.6459 121.702 30.2532 121.23 30.0883C119.795 29.5851 118.371 30.1444 117.763 31.7254C117.32 32.8797 117.303 34.0705 117.561 35.2732C117.716 35.9974 118.011 36.6519 118.574 37.1432C119.784 38.204 122.084 38.011 122.829 35.8682C123.281 34.5754 123.267 33.2647 122.889 31.9506C122.846 31.8019 122.839 31.5358 122.924 31.4746C123.423 31.1176 123.572 30.5983 123.668 30.0475C123.708 29.818 123.736 29.5817 123.39 29.5511C123.067 29.5222 123.026 29.7049 123.013 29.9676C122.997 30.3781 122.93 30.7844 122.591 30.9842L122.592 30.9859ZM62.0606 33.6659C62.1048 33.6183 62.121 33.5919 62.1457 33.5809C63.1381 33.0225 63.0938 32.3459 62.9875 31.467C62.8913 30.6765 62.3261 30.2073 61.5457 30.1299C60.7652 30.0526 59.9634 30.0721 59.171 30.0815C59.091 30.0815 58.9446 30.3076 58.9446 30.4291C58.931 32.7088 58.9378 34.9876 58.9301 37.2673C58.9301 37.5503 59.0374 37.6336 59.3063 37.6277C59.9438 37.6141 60.583 37.6277 61.2205 37.6226C62.2163 37.6158 62.9875 37.0276 63.1407 36.0433C63.3058 34.9664 63.2181 34.147 62.0606 33.6659ZM124.972 31.3267L126.015 33.1848C126.797 34.5796 127.571 35.9796 128.372 37.3633C128.457 37.5078 128.699 37.5605 128.868 37.6557C128.933 37.507 129.053 37.3591 129.054 37.2095C129.07 35.9634 129.063 34.7173 129.063 33.4695C129.063 32.436 129.069 31.4024 129.052 30.3688C129.052 30.2651 128.903 30.1631 128.823 30.0602C128.713 30.1554 128.557 30.2302 128.506 30.3509C128.455 30.4716 128.487 30.6569 128.487 30.8125C128.487 32.6626 128.487 34.5096 128.487 36.3536L126.932 33.5809C126.322 32.4946 125.708 31.4117 125.108 30.3203C124.975 30.0764 124.776 29.9846 124.554 30.0815C124.456 30.124 124.392 30.3518 124.392 30.4954C124.382 32.7471 124.385 35.0004 124.384 37.2494C124.384 37.4577 124.377 37.6625 124.674 37.6549C124.955 37.6481 124.974 37.4585 124.974 37.2435C124.972 35.2639 124.973 33.2842 124.973 31.3225L124.972 31.3267ZM89.5893 36.3519L89.2906 35.8206C88.2738 34.0073 87.2581 32.1912 86.2436 30.3722C86.1108 30.1342 85.9278 29.9591 85.6759 30.0823C85.5618 30.1384 85.4963 30.3968 85.4954 30.5634C85.4835 32.759 85.4878 34.9536 85.4878 37.1491C85.4878 37.2341 85.4588 37.3387 85.498 37.3999C85.5627 37.5002 85.6682 37.6379 85.7618 37.6387C85.8555 37.6396 86.0036 37.5248 86.0555 37.4237C86.1074 37.3225 86.0759 37.1746 86.0759 37.0471C86.0759 35.1296 86.0759 33.2111 86.0759 31.3284C86.1244 31.4134 86.201 31.5443 86.2751 31.6769C87.3339 33.5662 88.3915 35.4562 89.4481 37.3472C89.5723 37.5699 89.7383 37.7433 89.9809 37.6302C90.0881 37.5801 90.1571 37.3404 90.1579 37.1857C90.169 35.1321 90.1656 33.0785 90.1656 31.025C90.179 30.7847 90.1742 30.5437 90.1511 30.3042C90.1366 30.2115 89.9894 30.0738 89.9043 30.0747C89.8431 30.0849 89.7852 30.1091 89.7351 30.1456C89.685 30.182 89.6442 30.2296 89.6157 30.2846C89.5621 30.4045 89.5893 30.5626 89.5893 30.7037C89.5888 32.5861 89.5888 34.4688 89.5893 36.3519ZM78.403 33.8359C78.5732 34.5711 78.6635 35.337 78.9231 36.0459C79.3265 37.1415 80.1725 37.762 81.3607 37.7696C82.5233 37.7773 83.377 37.2035 83.8213 36.1351C84.1328 35.4118 84.2942 34.633 84.2955 33.8456C84.2968 33.0582 84.1381 32.2788 83.8289 31.5545C83.3872 30.4827 82.5395 29.9191 81.3751 29.9115C80.2329 29.9038 79.2873 30.56 78.8882 31.6965C78.6541 32.3654 78.5664 33.0879 78.403 33.8359ZM63.9211 33.8554C64.1058 34.6145 64.2148 35.4067 64.4965 36.1317C64.9067 37.1908 65.7604 37.7645 66.9077 37.7645C68.0287 37.7645 68.8721 37.2273 69.3215 36.1921C69.9888 34.6536 69.9948 33.082 69.3556 31.5358C68.9121 30.464 68.0576 29.8962 66.8933 29.9089C65.7085 29.9225 64.8591 30.5354 64.4522 31.631C64.1935 32.3221 64.0999 33.0709 63.9203 33.8554H63.9211ZM96.4384 30.8856C96.4945 30.7113 96.8256 30.4725 96.3958 30.2778C94.8723 29.5868 92.89 29.7865 91.9546 31.5843C91.4618 32.5312 91.3691 33.5545 91.484 34.5992C91.5691 35.337 91.7512 36.0442 92.1963 36.6595C93.222 38.0841 95.3625 37.9175 96.5371 37.331C96.5867 37.2957 96.6277 37.2497 96.6572 37.1965C96.6866 37.1432 96.7038 37.0841 96.7073 37.0233C96.7201 36.0323 96.7133 35.0403 96.7167 34.0484C96.7167 33.8146 96.6094 33.7143 96.3822 33.7152C95.7722 33.7152 95.1625 33.7152 94.5531 33.7152C94.3029 33.7152 94.2127 33.8707 94.2688 34.0722C94.3046 34.1929 94.451 34.3561 94.5599 34.3663C94.9565 34.3954 95.3544 34.3996 95.7515 34.379C96.0222 34.3697 96.1379 34.464 96.1311 34.7454C96.1183 35.3404 96.1141 35.9354 96.1311 36.5304C96.1396 36.8176 96.0085 36.9655 95.7549 36.997C95.3226 37.0615 94.8864 37.0967 94.4493 37.1024C93.5292 37.0896 92.8134 36.6604 92.4645 35.8172C91.9291 34.5235 91.9053 33.1822 92.5044 31.9073C92.9207 31.0173 93.6628 30.5031 94.6799 30.5711C95.2476 30.6059 95.8077 30.7683 96.4375 30.8856H96.4384ZM135.335 30.8856C135.392 30.7096 135.72 30.4708 135.291 30.277C133.765 29.5868 131.785 29.7882 130.85 31.5851C130.358 32.532 130.265 33.5554 130.38 34.6009C130.465 35.3387 130.648 36.0459 131.094 36.6612C132.121 38.0867 134.264 37.9175 135.434 37.331C135.484 37.2956 135.525 37.2495 135.554 37.1961C135.584 37.1427 135.601 37.0834 135.605 37.0225C135.617 36.0314 135.622 35.0395 135.599 34.0475C135.599 33.9362 135.422 33.7381 135.319 33.733C134.697 33.7033 134.073 33.7186 133.447 33.7169C133.197 33.7169 133.106 33.8741 133.164 34.0756C133.199 34.1963 133.347 34.3578 133.456 34.368C133.853 34.3971 134.251 34.4014 134.648 34.3807C134.919 34.3714 135.033 34.4657 135.027 34.7488C135.014 35.3438 135.01 35.9388 135.027 36.5338C135.035 36.821 134.902 36.9681 134.649 36.9995C134.216 37.0641 133.78 37.0993 133.343 37.1049C132.423 37.0922 131.707 36.6621 131.359 35.8189C130.825 34.5252 130.8 33.184 131.4 31.909C131.817 31.019 132.559 30.5056 133.576 30.5736C134.146 30.6059 134.706 30.7691 135.334 30.8856H135.335ZM116.206 31.0309L116.035 30.9774C116.035 30.7717 116.045 30.5651 116.035 30.3594C116.02 30.0917 115.78 29.9344 115.579 30.0874C115.487 30.1588 115.454 30.3535 115.453 30.492C115.445 32.0348 115.458 33.5783 115.444 35.1211C115.435 36.2065 114.8 37.0344 113.96 37.1066C112.717 37.2137 112.088 36.7242 111.846 35.4415C111.808 35.2335 111.788 35.0224 111.788 34.8108C111.783 33.3811 111.788 31.9515 111.783 30.5218C111.783 30.3144 111.868 30.0398 111.485 30.0517C111.102 30.0636 111.201 30.3373 111.199 30.543C111.189 31.223 111.185 31.903 111.199 32.583C111.217 33.6285 111.188 34.6799 111.295 35.7169C111.422 36.9613 112.267 37.7263 113.508 37.7569C114.578 37.7849 115.531 37.3727 115.906 35.9719C115.988 35.6579 116.032 35.3351 116.036 35.0106C116.053 34.0342 116.053 33.0576 116.036 32.0807C116.036 31.8044 116.121 31.6497 116.371 31.518C116.95 31.2171 117.343 30.413 117.222 29.8001C117.208 29.7384 117.175 29.6826 117.127 29.641C117.08 29.5993 117.02 29.5738 116.957 29.5684C116.894 29.5629 116.831 29.5776 116.777 29.6104C116.722 29.6432 116.68 29.6924 116.656 29.7508C116.585 29.914 116.612 30.118 116.55 30.2872C116.455 30.5439 116.321 30.7853 116.206 31.0309ZM109.656 33.8571C109.656 32.7238 109.656 31.5905 109.656 30.4572C109.656 30.2625 109.693 30.0534 109.378 30.0475C109.045 30.0407 109.066 30.254 109.066 30.4725C109.066 31.2936 109.052 32.1147 109.072 32.9375C109.08 33.2774 108.958 33.3794 108.628 33.3726C107.764 33.3548 106.899 33.3488 106.035 33.3726C105.643 33.3845 105.555 33.2332 105.565 32.8763C105.587 32.0841 105.574 31.291 105.569 30.4963C105.569 30.2965 105.631 30.0551 105.285 30.0466C104.939 30.0381 104.98 30.2634 104.98 30.4716C104.98 32.7218 104.98 34.9723 104.98 37.2231C104.98 37.4237 104.956 37.6379 105.253 37.6481C105.568 37.6608 105.574 37.4517 105.573 37.2231C105.573 36.2881 105.589 35.3531 105.564 34.4181C105.554 34.0356 105.688 33.9319 106.054 33.9413C106.905 33.9642 107.757 33.9617 108.608 33.9413C108.953 33.9336 109.084 34.0348 109.076 34.396C109.055 35.331 109.069 36.266 109.069 37.201C109.069 37.4169 109.043 37.6464 109.367 37.6472C109.69 37.6481 109.661 37.4152 109.661 37.2018C109.658 36.0912 109.656 34.9771 109.656 33.8597V33.8571ZM77.5127 36.9171L76.7518 37.0692C75.3713 37.3463 74.2836 36.765 73.9363 35.4109C73.7473 34.6583 73.6877 33.8791 73.7601 33.1066C73.9755 30.8116 75.7177 30.067 77.317 30.8329C77.5153 30.9281 77.6506 30.9357 77.7477 30.6918C77.8447 30.4478 77.8013 30.322 77.5672 30.2234C76.0939 29.6055 74.1968 29.8596 73.4197 31.8155C73.0239 32.8108 73.0077 33.8444 73.1388 34.9009C73.4095 37.076 74.996 38.1674 77.1289 37.6285C77.5213 37.5333 77.6583 37.3591 77.5127 36.9205V36.9171ZM67.3197 12.0124C67.4678 11.9147 67.6959 11.8484 67.7504 11.7132C67.9946 11.1064 68.221 11.1072 68.7487 11.4506C68.8789 11.5356 69.0117 11.6206 69.1453 11.6954C69.4594 11.8798 69.7794 11.9818 70.1522 11.8569C70.7667 11.6503 71.4502 10.4289 71.2527 9.83817C71.2345 9.7961 71.2067 9.75883 71.1715 9.72933C71.1364 9.69983 71.0948 9.67889 71.0502 9.66818C70.7182 9.63588 70.3761 9.56533 70.2407 10.0354C70.1352 10.4026 69.8594 10.4527 69.5377 10.2615C69.2951 10.117 69.056 9.96397 68.8057 9.83647C68.2763 9.56108 67.6618 9.65288 67.3418 10.1535C67.1001 10.5318 66.9946 10.9993 66.8448 11.4285C66.7094 11.8263 66.8516 12.0073 67.3188 12.0184L67.3197 12.0124ZM94.2356 10.7324C94.491 11.0265 94.6808 11.25 94.8714 11.4752C95.2391 11.9104 95.7226 11.9852 96.2528 11.9334C96.566 11.9019 96.6213 11.7498 96.4724 11.5084C96.3234 11.267 96.1319 11.0214 95.9617 10.7783C95.6808 10.3779 95.4834 9.81947 95.0987 9.62057C94.714 9.42168 94.131 9.56788 93.6356 9.56448C93.5653 9.5563 93.4942 9.5583 93.4245 9.57043C93.3394 9.59763 93.2211 9.62738 93.1743 9.69537C92.7589 10.3011 92.3515 10.912 91.9521 11.5279C91.8031 11.7574 91.8797 11.9045 92.1563 11.9291C92.6772 11.9767 93.1734 11.9614 93.5386 11.4931C93.7216 11.2653 93.9386 11.0562 94.2348 10.7383L94.2356 10.7324ZM101.575 34.1759C101.575 35.2095 101.57 36.2431 101.582 37.2766C101.583 37.3407 101.597 37.4039 101.623 37.4624C101.649 37.5208 101.687 37.5733 101.734 37.6166C101.812 37.6693 102.033 37.6472 102.075 37.5818C102.151 37.467 102.16 37.2953 102.16 37.1466C102.165 35.1364 102.172 33.1253 102.155 31.1117C102.155 30.7317 102.276 30.6102 102.645 30.634C103.055 30.6612 103.467 30.6586 103.877 30.6263C103.946 30.6094 104.011 30.5762 104.064 30.5295C104.118 30.4827 104.16 30.4239 104.186 30.3577C104.252 30.124 104.093 30.0441 103.867 30.0449C102.534 30.0495 101.201 30.0495 99.8667 30.0449C99.642 30.0449 99.4803 30.1214 99.5458 30.356C99.5719 30.4222 99.6135 30.4812 99.6671 30.5281C99.7207 30.575 99.7848 30.6084 99.8539 30.6255C100.264 30.6576 100.676 30.6602 101.086 30.6331C101.453 30.6093 101.586 30.7266 101.577 31.1091C101.559 32.1359 101.574 33.1559 101.575 34.1759ZM130.825 9.57298C130.157 9.57298 129.595 9.56703 129.032 9.57978C128.986 9.58649 128.941 9.6028 128.901 9.62768C128.861 9.65255 128.826 9.68544 128.8 9.72427C128.423 10.3193 128.049 10.9219 127.7 11.5364C127.652 11.6214 127.743 11.8943 127.781 11.8968C128.192 11.9215 128.642 12.0906 128.991 11.7353C129.527 11.1905 130.048 10.6304 130.562 10.0677C130.664 9.95717 130.71 9.79567 130.825 9.57298ZM68.3359 29.5961C67.958 29.0012 67.6431 28.5107 67.3273 28.0177C67.1078 27.6777 66.7894 27.6726 66.5613 28.0177C66.3128 28.3943 66.0626 28.7708 65.8302 29.1584C65.7596 29.2766 65.7451 29.4296 65.7077 29.5664C65.8685 29.5282 66.0702 29.5366 66.1826 29.4415C66.4558 29.2086 66.6881 28.9315 66.9324 28.6705C67.3929 28.9536 67.5205 29.6565 68.3359 29.5961ZM81.4015 28.6816C81.8645 28.9128 81.9812 29.6854 82.7957 29.5766C82.3914 28.9485 82.0731 28.3866 81.6807 27.8766C81.5105 27.6514 81.2194 27.7194 81.0466 27.9905C80.8109 28.3594 80.5691 28.7241 80.3368 29.0955C80.2517 29.2307 80.1861 29.3768 80.0576 29.6208C80.8177 29.6055 80.987 28.968 81.4024 28.6816H81.4015ZM67.3997 38.7327C67.1801 38.5015 67.0448 38.232 66.8831 38.2159C66.5494 38.1819 66.4907 38.5185 66.5315 38.7539C66.5656 38.9494 66.7528 39.1177 66.872 39.2979L67.3997 38.7327Z" fill="#0084CB"/>
<path d="M19.7361 30.1563C19.588 30.0152 19.4655 29.9013 19.3472 29.784C16.9697 27.4109 14.5922 25.0374 12.2147 22.6637C10.6963 21.1498 8.79576 21.1107 7.22374 22.5702C6.70455 23.0521 6.22196 23.5723 5.71725 24.0704C4.42184 25.3454 4.50354 27.6403 5.77342 28.9026C9.8818 32.9723 13.9604 37.0727 18.0568 41.1552C19.1327 42.227 20.3923 42.193 21.5022 41.0855C29.0358 33.5636 36.5682 26.0415 44.0996 18.5191C44.2153 18.4035 44.3362 18.293 44.5447 18.0941C44.6681 19.0249 44.8205 19.8417 44.8775 20.6653C45.109 23.9803 44.7473 27.2358 43.5063 30.3289C40.4882 37.8496 35.0138 42.5831 27.0941 44.3928C25.5884 44.7328 24.0045 44.9402 22.4648 44.896C13.6812 44.641 7.03819 40.72 2.66852 33.0752C1.27353 30.6311 0.411511 27.9202 0.138978 25.1201C-0.607458 17.7006 1.64717 11.3231 7.04075 6.13054C10.4265 2.87084 14.4991 0.890362 19.1488 0.24522C25.7459 -0.670217 31.6748 0.976211 36.8522 5.2049C38.186 6.30939 39.3873 7.5644 40.4321 8.94485C40.6329 9.2058 40.6116 9.35455 40.3844 9.58065C33.5981 16.3443 26.8152 23.113 20.0357 29.8869C19.9566 29.9659 19.8689 30.0373 19.7361 30.1563ZM12.6837 10.8386C13.2846 11.1446 13.8182 11.4064 14.3417 11.6886C14.7187 11.8909 14.9239 11.5824 15.1511 11.4107C15.209 11.3673 15.1417 11.0792 15.0609 10.9466C14.7077 10.3669 14.3247 9.80504 13.9612 9.2313C13.8268 9.0188 13.7127 8.86665 13.431 9.0613C13.1757 9.2313 13.2335 9.3843 13.3697 9.58744C13.6148 9.95464 13.8438 10.332 14.1357 10.7868C13.5246 10.4748 13.0037 10.2198 12.4939 9.94359C12.1535 9.75999 11.9679 10.0286 11.7466 10.1748C11.6785 10.2198 11.6121 10.3924 11.6445 10.4451C12.1177 11.2101 12.6088 11.9674 13.0914 12.7154C13.7085 12.4485 13.7161 12.4273 13.4072 11.9504L12.6837 10.8386ZM7.49184 15.7524C8.1821 15.8595 8.77874 16.0006 9.37878 16.0202C9.58391 16.027 9.82222 15.7507 9.9933 15.5578C10.0342 15.5119 9.89967 15.2407 9.78647 15.1421C9.26303 14.6874 8.71321 14.2624 8.18381 13.8144C7.95996 13.6257 7.7991 13.6521 7.62121 13.8739C7.44333 14.0958 7.57695 14.2216 7.74463 14.3559C8.09444 14.6372 8.43829 14.9262 8.85705 15.2713C8.16678 15.154 7.58036 15.0512 6.99989 14.9568C6.61008 14.8939 6.50709 15.2407 6.359 15.4668C6.31814 15.5306 6.4722 15.7728 6.58795 15.874C7.12245 16.3381 7.67909 16.7758 8.2187 17.2339C8.42467 17.409 8.55319 17.3444 8.7098 17.1651C8.86641 16.9857 8.84002 16.8497 8.66299 16.7078C8.29615 16.4214 7.93783 16.1213 7.48929 15.7524H7.49184ZM32.8749 8.66606C32.8468 8.57171 32.8187 8.49606 32.8 8.41106C32.68 7.90107 32.5626 7.39107 32.4434 6.88788C32.3583 6.51644 32.0272 6.47394 31.748 6.45779C31.6442 6.45184 31.4731 6.68643 31.4212 6.84113C31.1991 7.49562 31.0152 8.16286 30.8067 8.82245C30.7326 9.05705 30.7803 9.18965 31.0288 9.26785C31.2774 9.34605 31.3897 9.2466 31.4544 9.01285C31.5838 8.56151 31.7293 8.11526 31.8919 7.59167C32.04 8.23596 32.1847 8.7944 32.2936 9.35965C32.3787 9.79824 32.7473 9.78464 33.0434 9.83734C33.1217 9.85094 33.2928 9.58999 33.3464 9.42935C33.566 8.774 33.7541 8.10761 33.9584 7.44717C34.0342 7.20153 33.9371 7.08678 33.7031 7.01368C33.469 6.94058 33.3626 7.01368 33.3022 7.23553C33.1694 7.70982 33.0205 8.17816 32.8732 8.66606H32.8749ZM7.77697 18.2123C7.77697 17.466 6.95904 16.7222 6.12494 16.7129C5.42531 16.7052 4.72313 17.4515 4.72739 18.1995C4.72739 18.8965 5.62703 19.6726 6.4356 19.6794C7.14884 19.6845 7.77442 19.0011 7.77697 18.2123ZM22.5865 8.8029C23.4947 8.8029 24.0283 8.30056 24.0249 7.45142C24.0249 6.47819 23.4828 5.83645 22.6699 5.8305C21.7226 5.8254 21.223 6.31584 21.223 7.25338C21.227 8.28866 21.6812 8.80517 22.5857 8.8029H22.5865ZM19.5761 8.39321C19.6497 8.37586 19.7258 8.37183 19.8008 8.38131C19.9118 8.4301 20.019 8.48692 20.1217 8.55131C20.0366 8.65416 19.9276 8.85475 19.8663 8.842C19.6382 8.79356 19.3455 8.7349 19.2203 8.57171C18.6977 7.89172 19.0442 7.16838 19.9012 7.11228C20.1847 7.09358 20.2766 6.96608 20.2774 6.71788C20.2774 6.41529 20.0536 6.42124 19.857 6.44759C19.6182 6.47831 19.3836 6.53532 19.1574 6.61758C18.3564 6.91593 18.056 7.61207 18.3326 8.48756C18.6092 9.36305 19.1786 9.69964 20.0459 9.4812C20.9285 9.25935 21.0349 9.0919 20.7864 8.23426C20.5311 7.33922 20.6162 7.50072 19.8297 7.71917C19.3642 7.83817 19.348 7.89257 19.5744 8.39321H19.5761ZM16.0014 9.70134C16.2048 9.59679 16.352 9.51689 16.5035 9.44635C16.6976 9.352 16.844 9.25765 16.7087 8.99585C16.5853 8.75446 16.4397 8.74681 16.2303 8.86155C16.0737 8.94655 15.9069 9.01795 15.7197 9.1072L15.5494 8.7043C15.7707 8.58786 15.9869 8.50626 16.1588 8.37026C16.244 8.30226 16.3223 8.08806 16.278 8.02176C16.2082 7.91552 15.9988 7.78887 15.9103 7.82457C15.4686 8.00137 15.0464 8.22831 14.5749 8.45781C14.9758 9.29335 15.346 10.0855 15.7435 10.8633C15.7818 10.9389 16.0142 10.984 16.1188 10.9483C16.4593 10.8199 16.7861 10.6397 17.1232 10.4901C17.33 10.3983 17.3981 10.2768 17.2934 10.0592C17.1887 9.84159 17.0644 9.79314 16.8542 9.90449C16.6695 10.0022 16.4755 10.0821 16.2533 10.185L16.0014 9.70134ZM28.4065 5.89254C28.3953 5.97135 28.3924 6.05113 28.398 6.13054C28.5282 6.89553 28.6806 7.65457 28.7887 8.42551C28.8278 8.70175 28.947 8.8267 29.1981 8.87515C29.4628 8.92615 29.65 8.86835 29.7853 8.60146C30.1258 7.93337 30.4892 7.27973 30.839 6.61758C30.8936 6.49664 30.9402 6.37228 30.9786 6.24529C30.3113 6.07019 30.3113 6.07019 30.0339 6.62268C29.8322 7.02303 29.6296 7.42252 29.3955 7.88492C29.3062 7.33242 29.2253 6.84878 29.1496 6.36599C29.0619 5.8203 28.9861 5.771 28.4074 5.89254H28.4065ZM24.2667 5.80245C24.2885 5.92877 24.317 6.05389 24.3518 6.17729C24.5943 6.88703 24.8488 7.59167 25.0837 8.30226C25.1688 8.56151 25.322 8.64226 25.5884 8.64226C25.8549 8.64226 26.0081 8.57426 26.0906 8.30226C26.3145 7.57297 26.563 6.85048 26.7962 6.12374C26.8213 6.01815 26.8378 5.9107 26.8456 5.80245C26.2183 5.67665 26.1859 5.6928 26.0208 6.22064C25.8795 6.67283 25.7425 7.12673 25.5791 7.66562C25.4089 7.13778 25.2454 6.70088 25.1339 6.25039C25.0225 5.7999 24.7739 5.64605 24.2684 5.80245H24.2667ZM10.624 14.0116C10.1567 13.5169 9.72349 13.0707 9.30729 12.6092C9.11068 12.3916 8.96684 12.4392 8.78044 12.6211C8.61533 12.7859 8.54638 12.9126 8.74214 13.1115C9.25849 13.6368 9.7652 14.1711 10.2623 14.7146C10.4563 14.9262 10.6206 14.9483 10.8282 14.7426C11.0989 14.4723 11.3781 14.2105 11.6615 13.9538C11.8317 13.8025 11.8513 13.6725 11.6938 13.4889C11.5117 13.2764 11.3645 13.3333 11.1968 13.4889C11.0291 13.6444 10.8444 13.8119 10.624 14.0116ZM10.9321 10.8539C10.7082 11.0477 10.2316 11.0851 10.5065 11.4863C10.9619 12.1476 11.4964 12.7537 12.0045 13.3784C12.1747 13.5849 12.345 13.4787 12.4624 13.3248C12.5424 13.2177 12.6326 12.9984 12.5807 12.9321C12.0547 12.236 11.4998 11.5611 10.9321 10.8539ZM17.4006 9.72259C17.6338 9.92489 17.7504 10.1102 17.8951 10.1348C18.1428 10.1773 18.3573 10.015 18.3071 9.74554C18.279 9.59679 18.0917 9.38005 17.9666 9.3724C17.8219 9.3639 17.6636 9.55004 17.4032 9.72259H17.4006ZM27.4499 8.89895C27.6465 8.64396 27.815 8.52411 27.838 8.37876C27.8516 8.32326 27.8505 8.26517 27.8348 8.21021C27.8191 8.15526 27.7894 8.10533 27.7485 8.06535C27.7076 8.02538 27.657 7.99673 27.6016 7.98223C27.5463 7.96773 27.4881 7.96788 27.4328 7.98267C27.2873 8.01157 27.0864 8.21301 27.0771 8.34816C27.0677 8.48331 27.2643 8.63886 27.4524 8.89895H27.4499Z" fill="#0084CB"/>
<path d="M104.664 19.5332C104.664 17.4082 104.664 15.3002 104.664 13.1914C104.664 12.5582 104.676 12.5429 105.304 12.5497C106.417 12.5616 106.318 12.3797 106.319 13.5696C106.319 16.3876 106.319 19.2056 106.319 22.0236C106.319 22.5872 106.281 22.6186 105.716 22.6271C105.348 22.6271 104.978 22.6093 104.61 22.6331C104.242 22.6569 104.047 22.5124 103.9 22.1766C102.923 19.9479 101.928 17.7278 100.866 15.511C100.897 15.9896 100.951 16.4681 100.951 16.9466C100.965 18.7027 100.958 20.4588 100.969 22.2166C100.969 22.5141 100.836 22.6076 100.563 22.6297C99.3542 22.7274 99.3542 22.7317 99.3542 21.5519C99.3542 18.7342 99.3627 15.9156 99.3457 13.0979C99.3457 12.6729 99.4529 12.4978 99.8921 12.542C100.203 12.5807 100.517 12.5807 100.828 12.542C101.383 12.457 101.622 12.7214 101.829 13.2016C102.707 15.2271 103.624 17.2348 104.527 19.2484C104.577 19.3479 104.624 19.4473 104.664 19.5332Z" fill="white"/>
<path d="M58.3366 20.5472C58.3366 20.0236 58.3256 19.5 58.3366 18.9764C58.3452 18.6916 58.2583 18.5412 57.9519 18.5752C57.6617 18.6075 57.5817 18.4409 57.5843 18.1902C57.5843 17.8927 57.5936 17.5952 57.5843 17.2985C57.5672 16.9339 57.6021 16.6491 58.0949 16.6874C58.1656 16.6925 58.3247 16.4383 58.3273 16.3015C58.3469 15.2118 58.3511 14.1221 58.3273 13.0324C58.3205 12.6644 58.4311 12.5224 58.809 12.5428C59.8244 12.5989 60.8645 12.5114 61.8526 12.7001C63.5745 13.029 64.3839 14.3227 64.6835 15.93C64.9329 17.1973 64.8834 18.5051 64.5388 19.7499C64.0366 21.5221 62.6553 22.571 60.8168 22.5735C60.1359 22.5735 59.455 22.5548 58.7741 22.5812C58.4098 22.5956 58.3103 22.4622 58.3264 22.1188C58.3545 21.5961 58.3366 21.0708 58.3366 20.5472ZM60.124 19.6343C60.124 19.8893 60.0985 20.1443 60.1359 20.3993C60.1529 20.5115 60.2832 20.6798 60.3828 20.6968C61.5045 20.8838 62.4067 20.333 62.7548 19.2458C63.04 18.3568 63.0655 17.4456 62.9293 16.5259C62.7097 15.0401 61.8909 14.3397 60.4679 14.412C60.2125 14.4247 60.1121 14.5131 60.1198 14.7673C60.1317 15.1344 60.1198 15.5033 60.1198 15.8722C60.1198 16.684 60.1198 16.6942 60.9488 16.7103C61.2203 16.7154 61.3309 16.7953 61.3181 17.0758C61.3003 17.4566 61.3054 17.8408 61.3181 18.2216C61.3249 18.4604 61.262 18.5752 60.9905 18.5871C60.1206 18.6262 60.1206 18.6372 60.1206 19.5127C60.1189 19.5501 60.1189 19.5918 60.1198 19.6343H60.124Z" fill="white"/>
<path d="M123.18 17.324C124.201 17.7805 124.377 18.6211 124.4 19.5612C124.44 21.2467 123.491 22.4911 122.059 22.5668C121.239 22.6101 120.416 22.6246 119.595 22.6288C118.38 22.6348 118.604 22.7045 118.6 21.6403C118.589 18.7937 118.604 15.9454 118.587 13.0988C118.587 12.6738 118.694 12.5123 119.134 12.542C120.233 12.616 121.347 12.5709 122.432 12.7358C123.629 12.9186 124.207 13.7396 124.207 14.9645C124.21 15.3029 124.184 15.641 124.13 15.9751C124.089 16.2586 123.981 16.5284 123.816 16.7628C123.651 16.9971 123.433 17.1894 123.18 17.324ZM120.379 19.4975V19.71C120.379 20.7231 120.379 20.7231 121.393 20.707C122.165 20.6951 122.556 20.31 122.594 19.523C122.63 18.7911 122.189 18.3236 121.424 18.3228C120.17 18.3228 120.403 18.163 120.38 19.2858C120.377 19.3564 120.379 19.4269 120.379 19.4975ZM120.379 15.4294C120.41 16.6245 120.145 16.4494 121.444 16.4562C121.529 16.4606 121.615 16.4531 121.699 16.4341C122.016 16.3491 122.253 16.1791 122.35 15.8391C122.584 15.0112 122.233 14.531 121.29 14.4205C120.416 14.3176 120.381 14.3482 120.381 15.2186L120.379 15.4294Z" fill="white"/>
<path d="M97.9059 17.5748C97.9586 18.741 97.8165 19.84 97.3041 20.8659C96.6096 22.2582 95.4444 22.8294 93.9294 22.7359C92.5514 22.6509 91.5973 21.9293 91.0526 20.6823C90.4568 19.3224 90.4083 17.8774 90.57 16.4324C90.635 15.7728 90.7935 15.1257 91.0407 14.5106C91.7267 12.8837 92.874 12.3992 94.263 12.3992C95.7661 12.3992 96.8479 13.1259 97.4326 14.5335C97.8403 15.5195 97.9654 16.5514 97.9059 17.5748ZM96.1636 17.6598C96.03 16.8888 95.9695 16.1816 95.7763 15.5127C95.5414 14.6976 95.0018 14.3295 94.2664 14.3227C93.4911 14.3159 92.954 14.6627 92.6833 15.483C92.2126 16.8574 92.2195 18.3501 92.7029 19.7201C92.9302 20.3704 93.3838 20.7665 94.12 20.8013C94.9039 20.8387 95.4708 20.5055 95.7031 19.7873C95.9295 19.0895 96.0215 18.3449 96.1636 17.6623V17.6598Z" fill="white"/>
<path d="M140.206 17.5373C140.259 18.7205 140.121 19.8196 139.61 20.8523C138.921 22.2471 137.764 22.8285 136.247 22.741C134.85 22.6602 133.892 21.9301 133.341 20.6662C132.758 19.33 132.717 17.9139 132.855 16.5012C132.917 15.8268 133.078 15.1651 133.331 14.5369C134.012 12.8837 135.195 12.4119 136.583 12.4034C138.102 12.3966 139.221 13.2143 139.771 14.6397C140.125 15.5627 140.273 16.5514 140.206 17.5373ZM138.469 17.6334C138.335 16.8684 138.274 16.1791 138.084 15.5229C137.847 14.7052 137.311 14.3329 136.58 14.3252C135.8 14.3167 135.264 14.6559 134.992 15.477C134.521 16.8956 134.513 18.3363 135.02 19.7533C135.253 20.4052 135.722 20.7809 136.457 20.8056C137.223 20.8311 137.778 20.497 138.003 19.7992C138.229 19.0835 138.322 18.3253 138.469 17.6334Z" fill="white"/>
<path d="M137.212 25.6607V26.1945H58.8882V25.6607H137.212Z" fill="white"/>
<path d="M82.6789 17.5578C82.6789 16.0431 82.6874 14.5276 82.6729 13.0129C82.6729 12.6669 82.7751 12.5191 83.1317 12.5446C83.429 12.5642 83.7273 12.5642 84.0245 12.5446C84.3607 12.5242 84.4705 12.6669 84.4663 12.9933C84.4527 13.9844 84.4748 14.9755 84.4544 15.9683C84.4467 16.327 84.5344 16.4783 84.9259 16.4638C85.6068 16.4349 86.2877 16.446 86.9686 16.4638C87.2631 16.4698 87.3695 16.3644 87.3661 16.0686C87.3541 15.035 87.3712 14.0014 87.3558 12.9678C87.3516 12.6542 87.4563 12.5301 87.7703 12.5497C88.0537 12.5701 88.3381 12.5701 88.6215 12.5497C88.996 12.5191 89.1321 12.6831 89.1245 13.0401C89.1151 13.8901 89.1245 14.7401 89.1245 15.5901C89.1245 17.7434 89.1245 19.8967 89.1245 22.05C89.1245 22.5991 89.0853 22.6356 88.5534 22.645C88.3125 22.645 88.0708 22.6322 87.8308 22.645C87.458 22.6696 87.3507 22.5098 87.3584 22.1435C87.3805 21.0385 87.3507 19.9335 87.3746 18.8285C87.3831 18.4341 87.258 18.3066 86.8639 18.3245C86.2417 18.3534 85.6153 18.3534 84.9914 18.3245C84.5914 18.3058 84.4441 18.4188 84.4552 18.8421C84.4833 19.9318 84.4475 21.0223 84.4731 22.112C84.4833 22.5328 84.325 22.6722 83.9301 22.6441C83.675 22.6276 83.4191 22.6276 83.164 22.6441C82.8074 22.6645 82.6687 22.5362 82.6729 22.1562C82.69 20.616 82.6789 19.0869 82.6789 17.5578Z" fill="white"/>
<path d="M113.596 14.7528C112.907 14.5947 112.328 14.4026 111.735 14.3431C111.101 14.2794 110.587 14.6058 110.213 15.1149C109.612 15.9317 109.476 16.8803 109.537 17.8536C109.573 18.4401 109.647 19.0435 109.836 19.596C110.261 20.8311 111.112 20.956 112.134 20.7673C112.234 20.7486 112.367 20.5591 112.374 20.4418C112.406 20.004 112.406 19.5646 112.374 19.1268C112.366 19.0198 112.184 18.9246 112.077 18.8285C112.061 18.8141 112.022 18.8285 111.992 18.8285C110.94 18.7954 110.937 18.7954 110.941 17.7235C110.941 16.8089 110.831 16.8922 111.792 16.8888C112.444 16.8888 113.096 16.8965 113.75 16.8888C114.036 16.8846 114.164 16.9917 114.164 17.2841C114.158 18.7988 114.169 20.3134 114.15 21.8273C114.15 21.9735 114.02 22.197 113.895 22.2523C112.844 22.6849 111.752 22.8778 110.617 22.6858C109.596 22.5158 108.806 21.9522 108.413 21.0121C108.085 20.2352 107.863 19.4175 107.754 18.5812C107.603 17.358 107.681 16.1264 108.13 14.9466C108.777 13.2509 110.145 12.3312 111.956 12.4816C112.577 12.5326 113.186 12.7468 113.797 12.9066C114.064 12.9763 114.137 13.1616 114.041 13.4328C113.871 13.8807 113.727 14.3508 113.596 14.7528Z" fill="white"/>
<path d="M128.559 12.5446C129.599 12.5446 129.607 12.5446 129.884 13.556C130.668 16.4171 131.439 19.2816 132.232 22.1409C132.335 22.5132 132.239 22.6407 131.873 22.6314C131.507 22.622 131.164 22.6229 130.81 22.6314C130.536 22.6373 130.4 22.5132 130.345 22.248C130.232 21.7091 130.095 21.1753 129.979 20.633C129.923 20.3781 129.808 20.2531 129.519 20.2625C128.868 20.2837 128.215 20.2812 127.561 20.2625C127.292 20.2548 127.18 20.3695 127.127 20.6109C127.01 21.1345 126.871 21.653 126.766 22.1792C126.704 22.4988 126.556 22.6467 126.223 22.6297C125.891 22.6127 125.543 22.6203 125.202 22.6297C124.862 22.639 124.764 22.5022 124.862 22.1562C125.429 20.1163 125.977 18.0678 126.532 16.0236C126.799 15.0418 127.092 14.0686 127.326 13.0775C127.427 12.6525 127.615 12.4749 128.047 12.5395C128.217 12.5538 128.388 12.5555 128.559 12.5446ZM128.55 14.5573L127.676 18.327C128.186 18.327 128.618 18.3177 129.051 18.327C129.37 18.3355 129.436 18.2182 129.358 17.9139C129.079 16.8098 128.823 15.698 128.55 14.5573H128.55Z" fill="white"/>
<path d="M69.046 12.5446C70.104 12.5446 70.1108 12.5446 70.3831 13.5382C71.1673 16.3992 71.9478 19.2609 72.7246 22.1231C72.8446 22.5634 72.8097 22.6118 72.3543 22.6288C70.9721 22.6807 70.9721 22.6807 70.647 21.3538C70.3806 20.2684 70.3806 20.2684 69.2775 20.2684C68.8809 20.2684 68.4826 20.2862 68.086 20.2624C67.7957 20.2446 67.6808 20.3789 67.6255 20.6339C67.508 21.1719 67.3753 21.7066 67.2578 22.2446C67.2016 22.4996 67.0697 22.6373 66.7914 22.6288C66.4229 22.6178 66.0543 22.6237 65.6849 22.6288C65.3564 22.6288 65.2721 22.4954 65.3615 22.1749C65.8415 20.446 66.3054 18.7129 66.7761 16.9823C67.1242 15.7014 67.4936 14.4247 67.811 13.1361C67.9268 12.6644 68.1302 12.4562 68.6188 12.5412C68.7608 12.5548 68.9038 12.5559 69.046 12.5446ZM69.0579 14.5641C68.7847 15.7278 68.5183 16.8778 68.2426 18.0261C68.183 18.2743 68.2979 18.3287 68.5056 18.327C68.846 18.327 69.1865 18.3168 69.5269 18.327C69.8461 18.3398 69.9525 18.2522 69.8674 17.902C69.5797 16.803 69.3269 15.6895 69.0579 14.5641Z" fill="white"/>
<path d="M77.7677 18.4953C77.7677 17.3215 77.7566 16.1468 77.7745 14.973C77.7796 14.6109 77.6766 14.4545 77.2936 14.48C76.9106 14.5055 76.5003 14.48 76.102 14.4868C75.8203 14.4927 75.6841 14.3865 75.696 14.0873C75.7114 13.7056 75.7079 13.3223 75.696 12.9415C75.6892 12.6814 75.7743 12.5471 76.0578 12.5479C77.8003 12.553 79.5428 12.553 81.2854 12.5479C81.5271 12.5479 81.6565 12.6329 81.6514 12.893C81.6428 13.3033 81.6428 13.7136 81.6514 14.1238C81.6573 14.3788 81.5399 14.4842 81.2947 14.4834C80.8836 14.4834 80.4717 14.5055 80.0623 14.4834C79.6861 14.4596 79.5738 14.6024 79.5763 14.9704C79.5891 17.2339 79.5831 19.4974 79.5823 21.761C79.5823 22.6339 79.5823 22.6347 78.6971 22.6339C77.686 22.6339 77.766 22.6968 77.7609 21.6811C77.7643 20.6186 77.7665 19.5567 77.7677 18.4953Z" fill="white"/>
<path d="M122.591 30.9842C122.931 30.7845 122.997 30.3782 123.016 29.9642C123.029 29.7016 123.07 29.518 123.393 29.5477C123.739 29.5792 123.712 29.8146 123.672 30.0441C123.575 30.5958 123.427 31.1143 122.928 31.4713C122.843 31.5325 122.849 31.7985 122.892 31.9473C123.27 33.2613 123.284 34.572 122.832 35.8648C122.082 38.0102 119.783 38.2032 118.577 37.1398C118.014 36.6468 117.72 35.9923 117.564 35.2699C117.309 34.068 117.324 32.8763 117.766 31.722C118.374 30.141 119.798 29.5817 121.233 30.0849C121.701 30.2515 122.091 30.6459 122.591 30.9842ZM117.973 33.8869C118.108 34.5142 118.181 35.1806 118.399 35.7951C118.718 36.691 119.42 37.1194 120.328 37.1084C121.199 37.0982 121.876 36.6417 122.201 35.7628C122.649 34.5588 122.664 33.2368 122.243 32.0229C121.928 31.0726 121.222 30.5779 120.316 30.5626C119.411 30.5473 118.649 31.0667 118.343 32.0195C118.156 32.6034 118.099 33.2282 117.973 33.8878V33.8869Z" fill="white"/>
<path d="M62.0604 33.6659C63.2179 34.1513 63.3056 34.9706 63.1387 36.0459C62.9855 37.0336 62.2136 37.6175 61.2186 37.6252C60.5803 37.6294 59.9419 37.6167 59.3044 37.6303C59.0355 37.6362 58.9274 37.5529 58.9282 37.2699C58.9359 34.9902 58.9282 32.7105 58.9427 30.4317C58.9427 30.3102 59.0891 30.0849 59.1691 30.0841C59.9606 30.0747 60.7573 30.0543 61.5437 30.1325C62.3302 30.2107 62.8902 30.6791 62.9855 31.4695C63.0919 32.3484 63.1362 33.025 62.1438 33.5835C62.1225 33.5877 62.1055 33.6141 62.0604 33.6659ZM59.5249 35.4934C59.5249 35.9031 59.5036 36.3145 59.5385 36.7208C59.5478 36.8296 59.7215 37.0047 59.8287 37.0123C60.2942 37.0444 60.7613 37.0464 61.2271 37.0183C62.0348 36.9681 62.5319 36.4233 62.5889 35.5622C62.6425 34.7556 62.2374 34.1819 61.4314 34.0518C60.8926 33.9668 60.336 33.9736 59.7879 33.9804C59.6985 33.9804 59.5453 34.1878 59.5325 34.3085C59.5044 34.7012 59.5249 35.0981 59.5249 35.4934ZM59.5249 31.9999C59.5249 32.3399 59.5334 32.6799 59.5249 33.0199C59.5164 33.2707 59.61 33.3829 59.8696 33.3752C60.2509 33.3633 60.6356 33.4024 61.0143 33.3642C61.5701 33.3089 62.1165 33.2095 62.3387 32.5677C62.6664 31.6217 62.2536 30.8678 61.2365 30.7105C60.7045 30.6255 60.1479 30.7046 59.6023 30.7105C59.5757 31.1389 59.5498 31.5687 59.5249 31.9999Z" fill="white"/>
<path d="M124.973 31.3225C124.973 33.2843 124.973 35.2647 124.973 37.2444C124.973 37.4594 124.954 37.649 124.673 37.6558C124.376 37.6634 124.382 37.4586 124.383 37.2503C124.383 34.9987 124.383 32.7454 124.391 30.4963C124.391 30.3527 124.454 30.1249 124.552 30.0824C124.774 29.9855 124.974 30.0773 125.107 30.3212C125.703 31.4126 126.322 32.4955 126.93 33.5818L128.485 36.351C128.485 34.51 128.485 32.6629 128.485 30.81C128.485 30.6544 128.448 30.481 128.504 30.3484C128.56 30.2158 128.711 30.1529 128.821 30.0577C128.901 30.1606 129.048 30.2617 129.05 30.3663C129.068 31.3998 129.061 32.4334 129.061 33.467C129.061 34.7131 129.068 35.9592 129.052 37.207C129.052 37.3566 128.931 37.5045 128.866 37.6532C128.696 37.558 128.454 37.5053 128.37 37.3608C127.569 35.977 126.795 34.5771 126.013 33.1823L124.973 31.3225Z" fill="white"/>
<path d="M89.5899 36.3519C89.5899 34.4677 89.5899 32.585 89.5899 30.7037C89.5899 30.5626 89.5635 30.4045 89.6163 30.2847C89.6447 30.2297 89.6856 30.1821 89.7357 30.1456C89.7858 30.1092 89.8437 30.0849 89.9048 30.0747C89.9899 30.0747 90.138 30.2116 90.1517 30.3042C90.1747 30.5438 90.1795 30.7847 90.1661 31.025C90.1661 33.0786 90.1661 35.1321 90.1585 37.1857C90.1585 37.3396 90.0887 37.5801 89.9814 37.6303C89.7397 37.7425 89.5729 37.5691 89.4486 37.3472C88.3949 35.4551 87.3373 33.5651 86.2756 31.6769C86.2016 31.5443 86.125 31.4126 86.0765 31.3285C86.0765 33.212 86.0765 35.1296 86.0765 37.0472C86.0765 37.1747 86.1088 37.3217 86.056 37.4237C86.0032 37.5257 85.8628 37.6396 85.7624 37.6388C85.662 37.6379 85.5632 37.5002 85.4985 37.3999C85.4594 37.3396 85.4883 37.2342 85.4883 37.1492C85.4883 34.9536 85.4883 32.759 85.496 30.5635C85.496 30.3935 85.5624 30.1385 85.6764 30.0824C85.9318 29.9591 86.1113 30.1342 86.2441 30.3722C87.2553 32.1906 88.2709 34.0068 89.2912 35.8206L89.5899 36.3519Z" fill="white"/>
<path d="M78.4028 33.8359C78.5671 33.0879 78.6539 32.3654 78.8888 31.6948C79.288 30.5558 80.2336 29.8988 81.3758 29.9098C82.541 29.9175 83.3879 30.481 83.8296 31.5528C84.1387 32.2771 84.2974 33.0566 84.2961 33.8439C84.2948 34.6313 84.1335 35.4102 83.8219 36.1334C83.3776 37.2019 82.524 37.7756 81.3613 37.768C80.1698 37.7603 79.3272 37.1398 78.9237 36.0442C78.6633 35.3361 78.5697 34.5711 78.4028 33.8359ZM79.0735 33.8827C79.2114 34.5116 79.2914 35.1908 79.5144 35.8189C79.8182 36.674 80.4889 37.1118 81.415 37.1092C82.2916 37.1092 82.9708 36.6553 83.2976 35.7807C83.7561 34.5648 83.7709 33.2264 83.3393 32.0008C83.021 31.0581 82.3001 30.5617 81.3962 30.5634C80.4923 30.5651 79.7553 31.0734 79.4531 32.0033C79.2633 32.5856 79.2037 33.2103 79.0727 33.8827H79.0735Z" fill="white"/>
<path d="M63.9199 33.8555C64.0995 33.0743 64.1931 32.3255 64.4502 31.6319C64.857 30.5371 65.7064 29.9234 66.8912 29.9098C68.0547 29.8962 68.9092 30.464 69.3535 31.5367C69.9935 33.0828 69.9867 34.6544 69.3195 36.1929C68.8701 37.2282 68.0274 37.7654 66.9057 37.7654C65.7584 37.7654 64.9047 37.1917 64.4944 36.1326C64.2144 35.4058 64.1055 34.6145 63.9199 33.8555ZM64.6008 33.8827C64.7387 34.5117 64.8187 35.1908 65.0417 35.8189C65.3456 36.674 66.0162 37.1118 66.9423 37.1092C67.8181 37.1092 68.4981 36.6545 68.8249 35.7807C69.2835 34.5648 69.2982 33.2265 68.8667 32.0008C68.5483 31.0581 67.8274 30.5618 66.9227 30.5635C66.0179 30.5652 65.2817 31.0735 64.9804 32.0042C64.794 32.5856 64.7344 33.2103 64.6034 33.8827H64.6008Z" fill="white"/>
<path d="M96.4371 30.8856C95.8073 30.7691 95.2455 30.6102 94.6795 30.5719C93.6582 30.5039 92.9203 31.0182 92.5041 31.9081C91.9083 33.1899 91.9278 34.5278 92.4641 35.8181C92.813 36.6612 93.5297 37.093 94.4489 37.1032C94.886 37.0976 95.3222 37.0624 95.7545 36.9978C96.0099 36.9664 96.1401 36.8185 96.1307 36.5312C96.112 35.9362 96.1162 35.3412 96.1307 34.7462C96.1367 34.4649 96.0209 34.3705 95.7511 34.3799C95.354 34.4005 94.9561 34.3962 94.5595 34.3671C94.4506 34.3569 94.3042 34.1971 94.2684 34.073C94.2089 33.8716 94.3034 33.7152 94.5527 33.716C95.1627 33.716 95.7724 33.716 96.3818 33.716C96.6091 33.716 96.718 33.8155 96.7163 34.0492C96.7163 35.0403 96.7163 36.0323 96.7069 37.0242C96.7034 37.0849 96.6862 37.1441 96.6568 37.1973C96.6273 37.2506 96.5863 37.2966 96.5367 37.3319C95.3596 37.9184 93.2173 38.085 92.196 36.6604C91.7508 36.0416 91.5653 35.3378 91.4836 34.6C91.3678 33.5545 91.4614 32.5311 91.9542 31.5851C92.8905 29.7874 94.8728 29.5876 96.3954 30.2787C96.8244 30.4725 96.4933 30.7105 96.4371 30.8856Z" fill="white"/>
<path d="M135.334 30.8856C134.705 30.7691 134.142 30.6093 133.577 30.5711C132.556 30.5031 131.818 31.0165 131.401 31.9064C130.801 33.1882 130.824 34.5261 131.36 35.8164C131.709 36.6596 132.424 37.0914 133.344 37.1024C133.781 37.0968 134.217 37.0616 134.649 36.997C134.905 36.9656 135.036 36.8194 135.027 36.5312C135.009 35.9362 135.013 35.3412 135.027 34.7462C135.033 34.4666 134.92 34.3688 134.649 34.3782C134.252 34.3988 133.854 34.3946 133.457 34.3654C133.347 34.3552 133.202 34.1954 133.164 34.073C133.104 33.8724 133.197 33.7144 133.448 33.7144C134.072 33.7144 134.696 33.7008 135.32 33.7305C135.422 33.7356 135.598 33.9328 135.6 34.045C135.622 35.0361 135.618 36.0272 135.605 37.02C135.602 37.0808 135.585 37.1401 135.555 37.1935C135.526 37.2469 135.485 37.293 135.435 37.3285C134.261 37.9142 132.116 38.0833 131.094 36.6587C130.648 36.0399 130.463 35.3361 130.381 34.5983C130.265 33.5529 130.359 32.5295 130.851 31.5826C131.787 29.7857 133.766 29.5834 135.292 30.2744C135.72 30.4716 135.391 30.7096 135.334 30.8856Z" fill="white"/>
<path d="M116.205 31.031C116.322 30.7828 116.455 30.5414 116.546 30.2847C116.607 30.1147 116.581 29.9115 116.651 29.7483C116.676 29.6899 116.718 29.6407 116.772 29.6079C116.826 29.5751 116.889 29.5603 116.952 29.5658C117.016 29.5713 117.075 29.5968 117.123 29.6384C117.171 29.6801 117.204 29.7359 117.217 29.7976C117.337 30.4088 116.944 31.2154 116.366 31.5154C116.111 31.6463 116.026 31.801 116.032 32.0781C116.046 33.0545 116.046 34.0311 116.032 35.008C116.027 35.3326 115.984 35.6553 115.902 35.9694C115.526 37.3736 114.574 37.7858 113.503 37.7543C112.264 37.722 111.419 36.9571 111.29 35.7144C111.184 34.6774 111.213 33.626 111.194 32.5805C111.182 31.9005 111.186 31.2205 111.194 30.5405C111.194 30.3348 111.109 30.0611 111.481 30.0492C111.853 30.0373 111.778 30.3127 111.779 30.5193C111.784 31.9489 111.779 33.3786 111.784 34.8083C111.784 35.0198 111.803 35.231 111.842 35.439C112.086 36.7216 112.712 37.2112 113.956 37.1041C114.795 37.0319 115.43 36.204 115.439 35.1185C115.453 33.5758 115.439 32.0322 115.449 30.4895C115.449 30.3501 115.482 30.1555 115.575 30.0849C115.773 29.9328 116.016 30.0849 116.031 30.3569C116.043 30.5626 116.031 30.7683 116.031 30.9749L116.205 31.031Z" fill="white"/>
<path d="M109.656 33.8597C109.656 34.9777 109.656 36.0957 109.656 37.2138C109.656 37.4271 109.69 37.6608 109.361 37.6591C109.033 37.6574 109.064 37.4288 109.064 37.2129C109.064 36.2779 109.049 35.3429 109.07 34.4079C109.079 34.0467 108.948 33.9456 108.602 33.9532C107.751 33.9728 106.9 33.9753 106.049 33.9532C105.683 33.943 105.548 34.0475 105.559 34.43C105.583 35.365 105.565 36.3 105.568 37.235C105.568 37.4645 105.562 37.6727 105.248 37.66C104.951 37.6481 104.975 37.4347 104.975 37.235C104.975 34.9848 104.975 32.7343 104.975 30.4836C104.975 30.2719 104.939 30.0475 105.279 30.0586C105.62 30.0696 105.562 30.3076 105.564 30.5082C105.569 31.3004 105.581 32.0934 105.559 32.8882C105.549 33.246 105.639 33.3982 106.029 33.3846C106.893 33.3582 107.758 33.365 108.623 33.3846C108.952 33.3914 109.075 33.2885 109.066 32.9494C109.046 32.1291 109.06 31.308 109.06 30.4844C109.06 30.2668 109.04 30.0535 109.372 30.0594C109.687 30.0662 109.651 30.2745 109.651 30.4691C109.655 31.5973 109.657 32.7275 109.656 33.8597Z" fill="white"/>
<path d="M77.5129 36.9205C77.6584 37.3583 77.5214 37.5334 77.1299 37.632C74.997 38.1709 73.4105 37.0795 73.1398 34.9044C73.0079 33.847 73.0249 32.8142 73.4207 31.8189C74.1978 29.8639 76.0941 29.6089 77.5682 30.2269C77.8031 30.3255 77.8406 30.4632 77.7487 30.6952C77.6567 30.9273 77.5163 30.9315 77.318 30.8363C75.7162 30.0713 73.9765 30.8142 73.7612 33.11C73.6887 33.8826 73.7483 34.6618 73.9373 35.4144C74.2872 36.7684 75.3715 37.3498 76.7529 37.0727L77.5129 36.9205Z" fill="white"/>
<path d="M67.3193 12.0184C66.852 12.0073 66.7099 11.8263 66.8452 11.437C66.9959 11.0044 67.1006 10.5369 67.3423 10.162C67.6623 9.66139 68.2785 9.56704 68.8062 9.84498C69.0564 9.97503 69.2948 10.128 69.5382 10.27C69.8599 10.4612 70.134 10.4111 70.2412 10.0439C70.3765 9.57384 70.7187 9.64439 71.0506 9.67668C71.0953 9.6874 71.1368 9.70834 71.172 9.73784C71.2071 9.76734 71.2349 9.8046 71.2532 9.84668C71.4507 10.4417 70.7672 11.6589 70.1527 11.8654C69.7799 11.9903 69.4599 11.8883 69.1458 11.7039C69.0122 11.6249 68.8794 11.5441 68.7492 11.4591C68.2215 11.1191 67.9942 11.1149 67.7508 11.7218C67.6955 11.8543 67.4674 11.9206 67.3193 12.0184Z" fill="white"/>
<path d="M94.2346 10.7383C93.9384 11.0605 93.7239 11.2653 93.5401 11.4982C93.175 11.9666 92.6788 11.9819 92.1579 11.9343C91.8813 11.9088 91.8047 11.7643 91.9536 11.5331C92.3508 10.9171 92.7582 10.3063 93.1758 9.7005C93.2226 9.6325 93.3367 9.60275 93.4261 9.57555C93.4958 9.56342 93.5669 9.56142 93.6371 9.5696C94.1325 9.5696 94.7078 9.4234 95.1002 9.6257C95.4926 9.828 95.6832 10.383 95.9632 10.7834C96.1335 11.0265 96.3164 11.2619 96.4739 11.5135C96.6314 11.7651 96.5675 11.9062 96.2543 11.9385C95.7215 11.9921 95.2406 11.9156 94.873 11.4804C94.6806 11.2551 94.4865 11.0324 94.2346 10.7383Z" fill="white"/>
<path d="M101.574 34.1759C101.574 33.1559 101.558 32.1359 101.582 31.116C101.591 30.7335 101.458 30.6162 101.091 30.64C100.68 30.667 100.269 30.6645 99.8585 30.6323C99.7893 30.6152 99.7253 30.5818 99.6717 30.5349C99.6181 30.488 99.5765 30.4291 99.5504 30.3629C99.4848 30.1283 99.6465 30.0509 99.8712 30.0518C101.204 30.0563 102.538 30.0563 103.872 30.0518C104.098 30.0518 104.257 30.1308 104.191 30.3646C104.164 30.4307 104.123 30.4896 104.069 30.5363C104.015 30.583 103.951 30.6162 103.882 30.6332C103.472 30.6654 103.06 30.668 102.649 30.6408C102.281 30.617 102.157 30.7386 102.16 31.1185C102.177 33.1287 102.169 35.1398 102.164 37.1534C102.164 37.3013 102.153 37.4739 102.079 37.5886C102.036 37.6541 101.814 37.6736 101.739 37.6235C101.691 37.5802 101.653 37.5276 101.627 37.4692C101.601 37.4107 101.587 37.3475 101.586 37.2835C101.57 36.2431 101.575 35.2095 101.574 34.1759Z" fill="white"/>
<path d="M130.826 9.57299C130.71 9.79568 130.664 9.95718 130.563 10.0677C130.048 10.6321 129.527 11.1905 128.991 11.7354C128.642 12.0898 128.192 11.9207 127.781 11.8969C127.744 11.8969 127.653 11.6206 127.7 11.5365C128.049 10.9219 128.423 10.3218 128.8 9.72428C128.826 9.68545 128.861 9.65256 128.901 9.62769C128.941 9.60281 128.986 9.5865 129.032 9.57979C129.595 9.56789 130.157 9.57299 130.826 9.57299Z" fill="white"/>
<path d="M68.336 29.5962C67.5207 29.6557 67.393 28.9536 66.9342 28.6697C66.69 28.9247 66.4585 29.2077 66.1844 29.4406C66.072 29.5358 65.8703 29.5256 65.7095 29.5656C65.7486 29.4287 65.7614 29.2757 65.832 29.1576C66.0644 28.77 66.3146 28.3926 66.5631 28.0169C66.7904 27.6726 67.1087 27.6769 67.3292 28.0169C67.6441 28.5116 67.959 29.0046 68.336 29.5962Z" fill="white"/>
<path d="M81.4013 28.6816C80.9868 28.968 80.8166 29.6055 80.0557 29.6217C80.1842 29.3777 80.2506 29.2315 80.3348 29.0964C80.5672 28.7258 80.8089 28.3611 81.0447 27.9914C81.2149 27.7203 81.5051 27.6514 81.6788 27.8775C82.0711 28.3875 82.3895 28.9485 82.7937 29.5775C81.9818 29.6854 81.8686 28.9119 81.4013 28.6816Z" fill="white"/>
<path d="M67.3995 38.7327L66.8727 39.2971C66.7535 39.1169 66.5654 38.9486 66.5322 38.7531C66.4905 38.5177 66.5493 38.1811 66.8838 38.2151C67.048 38.2321 67.1834 38.5015 67.3995 38.7327Z" fill="white"/>
<path d="M12.6842 10.8386L13.4 11.9436C13.709 12.4213 13.7013 12.4426 13.0843 12.7086C12.6042 11.9606 12.114 11.205 11.6373 10.4383C11.605 10.3856 11.6714 10.213 11.7395 10.168C11.9608 10.0218 12.1472 9.75319 12.4868 9.93679C12.9974 10.213 13.5183 10.468 14.1286 10.78C13.8409 10.3244 13.6119 9.94699 13.3626 9.58065C13.2264 9.3775 13.1711 9.2262 13.4239 9.05451C13.7056 8.86326 13.8196 9.01541 13.9541 9.2245C14.3175 9.79824 14.7005 10.3601 15.0538 10.9398C15.1346 11.0724 15.2019 11.3605 15.144 11.4039C14.9167 11.5739 14.7108 11.8841 14.3346 11.6818C13.8188 11.4064 13.2851 11.1412 12.6842 10.8386Z" fill="white"/>
<path d="M7.48957 15.7524C7.93811 16.1213 8.29643 16.4213 8.65986 16.7137C8.8369 16.8557 8.86924 16.984 8.70668 17.171C8.54411 17.358 8.4224 17.415 8.21558 17.2399C7.67596 16.7817 7.11933 16.3431 6.58482 15.8799C6.46822 15.7788 6.31502 15.5399 6.35587 15.4728C6.50397 15.2424 6.61121 14.8956 6.99677 14.9628C7.58064 15.0563 8.16366 15.16 8.85392 15.2773C8.43517 14.9322 8.08791 14.6432 7.7415 14.3618C7.57128 14.2275 7.43169 14.1119 7.61809 13.8799C7.80448 13.6478 7.95854 13.6317 8.18068 13.8204C8.71093 14.2683 9.25991 14.6933 9.78335 15.1481C9.89655 15.2467 10.031 15.5178 9.99017 15.5637C9.81994 15.7567 9.58078 16.0329 9.37566 16.0261C8.77647 16.0006 8.17983 15.8595 7.48957 15.7524Z" fill="white"/>
<path d="M32.8739 8.66606C33.0212 8.17817 33.1701 7.70982 33.2995 7.23723C33.3625 7.01283 33.4697 6.94399 33.7004 7.01538C33.931 7.08678 34.0315 7.20323 33.9557 7.44888C33.7514 8.10932 33.5633 8.77571 33.3437 9.43105C33.2901 9.59085 33.1182 9.85604 33.0408 9.83904C32.7446 9.78804 32.3752 9.79994 32.2909 9.36135C32.182 8.79611 32.0356 8.23767 31.8892 7.59338C31.7266 8.11697 31.5811 8.56321 31.4517 9.01456C31.3853 9.2466 31.2815 9.3486 31.0261 9.26955C30.7708 9.1905 30.73 9.05875 30.804 8.82416C31.0125 8.16457 31.1972 7.49733 31.4185 6.84284C31.4713 6.68814 31.6415 6.45354 31.7453 6.45949C32.0254 6.47564 32.3539 6.51814 32.4407 6.88959C32.5599 7.39958 32.6773 7.90957 32.7973 8.41276C32.8178 8.49351 32.8441 8.57256 32.8739 8.66606Z" fill="white"/>
<path d="M7.77761 18.2122C7.77761 19.001 7.14948 19.6844 6.43623 19.6785C5.62767 19.6717 4.73399 18.8956 4.72803 18.1986C4.72803 17.4515 5.4268 16.7044 6.12557 16.712C6.95968 16.7222 7.77931 17.4659 7.77761 18.2122ZM6.51198 18.9194C6.6682 18.9131 6.81604 18.8472 6.925 18.7352C7.03396 18.6232 7.09572 18.4738 7.09756 18.3176C7.09756 17.9428 6.52986 17.4838 6.05748 17.4676C5.90038 17.4653 5.74858 17.5243 5.63443 17.6321C5.52027 17.7399 5.45279 17.888 5.44638 18.0448C5.43276 18.4179 6.04557 18.9186 6.51198 18.9194Z" fill="white"/>
<path d="M22.5859 8.80292C21.6781 8.80292 21.2241 8.28641 21.2241 7.25338C21.2241 6.3184 21.7195 5.82625 22.671 5.8305C23.4839 5.8305 24.0226 6.47819 24.026 7.45143C24.0277 8.30142 23.4941 8.80207 22.5859 8.80292ZM21.9612 7.23128C21.9978 7.40978 21.9867 7.62228 22.0838 7.75828C22.2123 7.93763 22.4183 8.16032 22.6038 8.17307C22.7893 8.18582 23.0711 8.00307 23.1579 7.82798C23.2566 7.62823 23.2268 7.33753 23.1826 7.09954C23.0923 6.61844 22.8651 6.45099 22.4642 6.50454C22.0344 6.56744 21.9723 6.87344 21.9612 7.23128Z" fill="white"/>
<path d="M19.5744 8.39322C19.3481 7.89258 19.3642 7.83818 19.8298 7.70813C20.6188 7.48883 20.5269 7.32818 20.7864 8.22322C21.035 9.08086 20.9277 9.24746 20.046 9.47016C19.1787 9.6886 18.6135 9.36051 18.3327 8.47652C18.0518 7.59253 18.3573 6.90829 19.1574 6.60654C19.3836 6.52427 19.6182 6.46726 19.857 6.43654C20.0536 6.41019 20.2775 6.40424 20.2775 6.70684C20.2775 6.95419 20.1856 7.08254 19.9013 7.10123C19.0416 7.15733 18.6944 7.88153 19.2204 8.56067C19.3463 8.72472 19.6383 8.78336 19.8664 8.83096C19.9285 8.84371 20.0366 8.64311 20.1217 8.54027C20.019 8.47588 19.9118 8.41906 19.8008 8.37027C19.7246 8.36418 19.6479 8.37196 19.5744 8.39322Z" fill="white"/>
<path d="M16.0032 9.70135L16.2585 10.1782C16.4806 10.0753 16.6747 9.99544 16.8594 9.89769C17.0705 9.78634 17.1998 9.84329 17.2986 10.0524C17.3973 10.2615 17.336 10.3924 17.1283 10.4833C16.7879 10.6329 16.4679 10.8123 16.124 10.9415C16.0193 10.9806 15.7836 10.9355 15.7487 10.8565C15.3512 10.0787 14.9827 9.28655 14.5801 8.45101C15.0516 8.22152 15.4729 7.99457 15.9155 7.81777C16.0006 7.78207 16.2134 7.90872 16.2832 8.01497C16.3266 8.08127 16.25 8.29547 16.164 8.36346C15.9938 8.49946 15.7759 8.58106 15.5546 8.69751L15.7248 9.1004C15.9121 9.01115 16.0781 8.94146 16.2355 8.85476C16.4449 8.73916 16.5904 8.74766 16.7139 8.98906C16.8475 9.25085 16.7036 9.3452 16.5087 9.43955C16.3538 9.5169 16.2057 9.5968 16.0032 9.70135Z" fill="white"/>
<path d="M28.4076 5.89252C28.9864 5.77098 29.0613 5.81942 29.1498 6.36087C29.229 6.84366 29.3064 7.3273 29.3958 7.87979C29.6298 7.4174 29.8324 7.01791 30.0341 6.61756C30.3124 6.06592 30.3116 6.06507 30.9789 6.24017C30.9405 6.36716 30.8938 6.49152 30.8393 6.61246C30.4903 7.2746 30.1235 7.92824 29.7856 8.59633C29.6503 8.86323 29.463 8.92103 29.1983 8.87003C28.943 8.82158 28.8272 8.70003 28.7889 8.42038C28.6817 7.6554 28.5285 6.89041 28.3983 6.12542C28.3933 6.04767 28.3965 5.96962 28.4076 5.89252Z" fill="white"/>
<path d="M24.2686 5.80245C24.7741 5.64605 25.0252 5.79225 25.1376 6.24784C25.2499 6.70344 25.4142 7.13608 25.5827 7.66307C25.747 7.12758 25.8831 6.67284 26.0244 6.21809C26.1895 5.69025 26.2219 5.6741 26.8492 5.7999C26.842 5.90984 26.8258 6.01901 26.8006 6.1263C26.5674 6.85304 26.3189 7.57127 26.0951 8.30481C26.01 8.57426 25.8542 8.63886 25.5929 8.64481C25.3316 8.65076 25.1742 8.56746 25.0882 8.30481C24.8533 7.59337 24.5979 6.88789 24.3562 6.17985C24.3205 6.05565 24.2912 5.92968 24.2686 5.80245Z" fill="white"/>
<path d="M10.6246 14.0116C10.845 13.8119 11.0238 13.6538 11.1983 13.4906C11.3727 13.3274 11.5132 13.2772 11.6953 13.4906C11.8528 13.6742 11.8306 13.8034 11.663 13.9555C11.3796 14.2105 11.1004 14.474 10.8297 14.7443C10.6229 14.9509 10.4578 14.9279 10.2637 14.7163C9.7661 14.1734 9.25939 13.639 8.74361 13.1132C8.54785 12.9143 8.61679 12.7876 8.78191 12.6227C8.96661 12.4383 9.11215 12.3932 9.30876 12.6108C9.72411 13.0707 10.1573 13.5212 10.6246 14.0116Z" fill="white"/>
<path d="M10.9325 10.8539C11.5003 11.5603 12.0552 12.236 12.582 12.9313C12.6322 12.9976 12.5429 13.2169 12.4637 13.324C12.3497 13.4778 12.1735 13.5841 12.0058 13.3775C11.4951 12.7528 10.9632 12.1467 10.5078 11.4855C10.2321 11.0851 10.7087 11.0486 10.9325 10.8539Z" fill="white"/>
<path d="M17.4038 9.7226C17.6643 9.5526 17.8226 9.36391 17.9698 9.37326C18.0958 9.38091 18.283 9.59765 18.3102 9.7464C18.3605 10.0158 18.146 10.1782 17.8983 10.1357C17.7536 10.1102 17.6362 9.9249 17.4038 9.7226Z" fill="white"/>
<path d="M27.4532 8.89899C27.2659 8.63889 27.071 8.48675 27.0804 8.34905C27.0898 8.21135 27.2906 8.00905 27.4362 7.98355C27.4914 7.96877 27.5496 7.96862 27.605 7.98312C27.6603 7.99761 27.7109 8.02626 27.7518 8.06624C27.7927 8.10622 27.8225 8.15614 27.8382 8.2111C27.8539 8.26606 27.8549 8.32415 27.8413 8.37965C27.8183 8.525 27.6524 8.64654 27.4532 8.89899Z" fill="white"/>
<path d="M60.1189 19.6343C60.1189 19.5918 60.1189 19.5493 60.1189 19.5068C60.1189 18.6313 60.1189 18.6203 60.9888 18.5812C61.2603 18.5693 61.3233 18.4545 61.3165 18.2157C61.3054 17.834 61.3003 17.4507 61.3165 17.0699C61.3292 16.7894 61.2186 16.7095 60.9471 16.7044C60.1172 16.6891 60.1181 16.678 60.1181 15.8663C60.1181 15.4982 60.1274 15.1302 60.1181 14.7613C60.1104 14.5063 60.2108 14.4213 60.4662 14.406C61.8884 14.3338 62.7072 15.0341 62.9276 16.5199C63.0638 17.4405 63.0383 18.3525 62.7532 19.2399C62.4042 20.327 61.5029 20.8778 60.3811 20.6908C60.2815 20.6738 60.1513 20.5064 60.1343 20.3933C60.0934 20.1511 60.1198 19.8893 60.1189 19.6343Z" fill="#0084CB"/>
<path d="M120.379 19.4975C120.379 19.4269 120.379 19.3555 120.379 19.285C120.405 18.1621 120.17 18.3211 121.423 18.3219C122.189 18.3219 122.629 18.7903 122.594 19.5221C122.555 20.3092 122.168 20.6943 121.393 20.7062C120.378 20.7223 120.378 20.7223 120.378 19.7091L120.379 19.4975Z" fill="#0084CB"/>
<path d="M120.379 15.4294V15.2212C120.379 14.3508 120.413 14.3202 121.288 14.423C122.23 14.5335 122.581 15.0129 122.347 15.8417C122.25 16.1817 122.013 16.3517 121.696 16.4367C121.612 16.4557 121.526 16.4631 121.441 16.4588C120.144 16.4469 120.41 16.6245 120.379 15.4294Z" fill="#0084CB"/>
<path d="M96.1633 17.6623C96.0211 18.3423 95.9301 19.0894 95.7028 19.7873C95.4705 20.5047 94.9036 20.8387 94.1197 20.8013C93.3826 20.7665 92.9281 20.3704 92.7026 19.7201C92.2192 18.3501 92.2123 16.8574 92.683 15.4829C92.9537 14.661 93.4907 14.3159 94.2661 14.3227C95.0006 14.3295 95.5428 14.6975 95.776 15.5127C95.9692 16.1842 96.0297 16.8914 96.1633 17.6623Z" fill="#0084CB"/>
<path d="M138.469 17.6334C138.326 18.3253 138.233 19.0835 138.003 19.7984C137.778 20.4962 137.226 20.8311 136.457 20.8047C135.721 20.7801 135.253 20.4044 135.02 19.7525C134.509 18.3364 134.521 16.8956 134.992 15.4762C135.264 14.6551 135.799 14.3159 136.58 14.3244C137.311 14.3321 137.846 14.7044 138.084 15.5221C138.27 16.1791 138.332 16.8718 138.469 17.6334Z" fill="#0084CB"/>
<path d="M128.55 14.5573C128.823 15.698 129.079 16.8107 129.359 17.9165C129.436 18.2208 129.371 18.3415 129.052 18.3296C128.618 18.3177 128.184 18.3296 127.676 18.3296L128.55 14.5573Z" fill="#0084CB"/>
<path d="M69.0586 14.5641C69.3275 15.6895 69.5803 16.803 69.8646 17.908C69.9497 18.2548 69.8433 18.3423 69.5242 18.333C69.1837 18.3194 68.8433 18.3279 68.5028 18.333C68.2951 18.333 68.1802 18.2794 68.2398 18.0321C68.5198 16.8778 68.7862 15.7312 69.0586 14.5641Z" fill="#0084CB"/>
<path d="M117.973 33.8878C118.099 33.2282 118.156 32.6034 118.343 32.0178C118.649 31.0649 119.41 30.5465 120.316 30.5609C121.223 30.5754 121.928 31.0709 122.243 32.0212C122.664 33.2351 122.649 34.5571 122.201 35.7611C121.876 36.64 121.2 37.0965 120.328 37.1067C119.424 37.1177 118.719 36.6885 118.399 35.7934C118.18 35.1814 118.108 34.5159 117.973 33.8878Z" fill="#0084CB"/>
<path d="M59.5249 35.4934C59.5249 35.0981 59.5045 34.7012 59.5368 34.3085C59.547 34.1878 59.6994 33.9812 59.7922 33.9804C60.3403 33.9736 60.8986 33.9651 61.4357 34.0518C62.2417 34.1818 62.6468 34.7556 62.5932 35.5622C62.5362 36.4207 62.0391 36.9681 61.2314 37.0182C60.7657 37.0464 60.2985 37.0444 59.833 37.0123C59.7258 37.0046 59.5522 36.8304 59.5428 36.7207C59.5045 36.3145 59.5249 35.9031 59.5249 35.4934Z" fill="#0084CB"/>
<path d="M59.525 31.9999C59.55 31.5687 59.575 31.1375 59.5999 30.7062C60.1455 30.702 60.7064 30.6263 61.2341 30.7062C62.2554 30.8626 62.664 31.6174 62.3363 32.5635C62.1141 33.2044 61.5703 33.3038 61.0119 33.3599C60.634 33.3973 60.2459 33.3599 59.8672 33.371C59.6118 33.3786 59.514 33.2664 59.5225 33.0157C59.5335 32.6782 59.525 32.3391 59.525 31.9999Z" fill="#0084CB"/>
<path d="M79.0728 33.8826C79.2038 33.2103 79.2626 32.5856 79.4524 32.0033C79.7545 31.0734 80.4992 30.5652 81.3955 30.5635C82.2917 30.5618 83.0203 31.0581 83.3386 32.0008C83.7701 33.2264 83.7554 34.5648 83.2969 35.7807C82.97 36.6553 82.2908 37.1067 81.4142 37.1092C80.4882 37.1092 79.8175 36.674 79.5136 35.8189C79.2906 35.1908 79.2106 34.5159 79.0728 33.8826Z" fill="#0084CB"/>
<path d="M64.604 33.8826C64.7351 33.2103 64.7938 32.5855 64.9836 32.0033C65.2858 31.0734 66.0305 30.5651 66.9259 30.5626C67.8212 30.56 68.5507 31.0573 68.8698 31.9999C69.3014 33.2256 69.2866 34.5639 68.8281 35.7798C68.5013 36.6536 67.8221 37.1066 66.9454 37.1083C66.0194 37.1083 65.3487 36.6731 65.0449 35.8181C64.8219 35.1908 64.7419 34.5159 64.604 33.8826Z" fill="#0084CB"/>
<path d="M6.51163 18.9195C6.04521 18.9195 5.43241 18.4171 5.44602 18.0474C5.45244 17.8906 5.51992 17.7425 5.63407 17.6347C5.74823 17.5269 5.90003 17.4679 6.05713 17.4702C6.53035 17.483 7.0938 17.942 7.0972 18.3202C7.09472 18.4759 7.03267 18.6247 6.92377 18.7362C6.81488 18.8476 6.66741 18.9132 6.51163 18.9195Z" fill="#0084CB"/>
<path d="M21.9614 7.23127C21.9725 6.87173 22.0363 6.56573 22.4644 6.50623C22.8653 6.45098 23.0926 6.61843 23.1828 7.10123C23.2271 7.33922 23.2577 7.62992 23.1581 7.82967C23.073 7.99966 22.7879 8.18751 22.604 8.17476C22.4202 8.16201 22.2125 7.93931 22.084 7.75997C21.987 7.62397 21.998 7.41147 21.9614 7.23127Z" fill="#0084CB"/>
</svg>
