<svg width="24" height="24" viewBox="0 0 24 24" fill="none" xmlns="http://www.w3.org/2000/svg">
<g clip-path="url(#clip0_244_220)">
<path d="M18.965 8.46398L23.994 3.43498L22.565 2.00598L17.519 7.05098L15.313 4.89498C14.951 4.54313 14.4699 4.3403 13.9652 4.32678C13.4606 4.31325 12.9693 4.49002 12.589 4.82198C10.7328 6.50283 8.57326 7.81456 6.22599 8.68698L-0.00601196 10.514V11.27C0.0351393 14.6829 1.42804 17.9403 3.86727 20.3278C6.30649 22.7152 9.59295 24.038 13.006 24.006H14.247L14.508 23.824C16.5469 22.5169 18.2384 20.735 19.4377 18.6309C20.637 16.5268 21.3083 14.1633 21.394 11.743C21.4016 11.4643 21.3512 11.187 21.246 10.9288C21.1408 10.6706 20.9832 10.4371 20.783 10.243L18.965 8.46398ZM13.9 6.33998L19.377 11.681C19.3471 12.7007 19.194 13.713 18.921 14.696L11.941 7.89998C12.62 7.41345 13.2738 6.89278 13.9 6.33998ZM13.606 21.985H13.006C11.5323 21.9851 10.0732 21.6931 8.71299 21.126C10.4607 20.2479 11.9568 18.9404 13.061 17.326L13.579 16.566L11.91 15.43L11.392 16.191C10.4791 17.5224 9.24315 18.6004 7.79999 19.324L6.57099 19.942C5.57175 19.2386 4.6979 18.3722 3.98599 17.379C5.6171 16.8267 7.10524 15.9192 8.34299 14.722L6.93199 13.277C5.81441 14.3596 4.45068 15.1547 2.95799 15.594C2.44025 14.4668 2.12833 13.256 2.03699 12.019L6.79199 10.625C7.99449 10.2389 9.14431 9.70482 10.215 9.03498L18.126 16.735C17.0799 18.8334 15.5271 20.6379 13.608 21.985H13.606Z" fill="white" fill-opacity="0.7"/>
</g>
<defs>
<clipPath id="clip0_244_220">
<rect width="24" height="24" fill="white"/>
</clipPath>
</defs>
</svg>
