<svg width="16" height="16" viewBox="0 0 16 16" fill="none" xmlns="http://www.w3.org/2000/svg">
<path d="M15.8807 7.454C15.2954 6.174 13 2 8.00004 2C3.00004 2 0.704703 6.174 0.11937 7.454C0.0407951 7.62553 0.00012207 7.81199 0.00012207 8.00067C0.00012207 8.18934 0.0407951 8.3758 0.11937 8.54733C0.704703 9.826 3.00004 14 8.00004 14C13 14 15.2954 9.826 15.8807 8.546C15.9591 8.37466 15.9997 8.18843 15.9997 8C15.9997 7.81157 15.9591 7.62534 15.8807 7.454ZM8.00004 12.6667C3.79537 12.6667 1.83337 9.08933 1.33337 8.00733C1.83337 6.91067 3.79537 3.33333 8.00004 3.33333C12.1947 3.33333 14.1574 6.89533 14.6667 8C14.1574 9.10467 12.1947 12.6667 8.00004 12.6667Z" fill="white"/>
<path d="M8.00008 4.66675C7.34081 4.66675 6.69635 4.86224 6.14818 5.22851C5.60002 5.59479 5.17278 6.11538 4.92048 6.72447C4.66819 7.33355 4.60218 8.00377 4.7308 8.65037C4.85942 9.29698 5.17689 9.89092 5.64306 10.3571C6.10924 10.8233 6.70318 11.1407 7.34978 11.2694C7.99639 11.398 8.66661 11.332 9.27569 11.0797C9.88478 10.8274 10.4054 10.4001 10.7716 9.85197C11.1379 9.30381 11.3334 8.65934 11.3334 8.00007C11.3324 7.11635 10.9808 6.26912 10.3559 5.64423C9.73104 5.01934 8.88381 4.66781 8.00008 4.66675ZM8.00008 10.0001C7.60452 10.0001 7.21784 9.88277 6.88894 9.66301C6.56004 9.44325 6.3037 9.13089 6.15232 8.76544C6.00095 8.39999 5.96134 7.99786 6.03851 7.60989C6.11568 7.22193 6.30616 6.86557 6.58587 6.58586C6.86557 6.30616 7.22194 6.11568 7.6099 6.03851C7.99786 5.96134 8.4 6.00094 8.76545 6.15232C9.1309 6.30369 9.44326 6.56004 9.66302 6.88894C9.88278 7.21783 10.0001 7.60451 10.0001 8.00007C10.0001 8.53051 9.78937 9.03921 9.4143 9.41429C9.03922 9.78936 8.53052 10.0001 8.00008 10.0001Z" fill="white"/>
</svg>
