<svg width="16" height="16" viewBox="0 0 16 16" fill="none" xmlns="http://www.w3.org/2000/svg">
<g clip-path="url(#clip0_1246_916)">
<path d="M9.9999 16L5.9999 13V9.58666L0.666565 3.58666V2C0.666565 1.46956 0.877279 0.960854 1.25235 0.585782C1.62742 0.210709 2.13613 -4.76837e-06 2.66656 -4.76837e-06L13.3332 -4.76837e-06C13.8637 -4.76837e-06 14.3724 0.210709 14.7474 0.585782C15.1225 0.960854 15.3332 1.46956 15.3332 2V3.58666L9.9999 9.58666V16ZM7.33323 12.3333L8.66656 13.3333V9.08L13.9999 3.08V2C13.9999 1.82318 13.9297 1.65361 13.8046 1.52859C13.6796 1.40357 13.51 1.33333 13.3332 1.33333H2.66656C2.48975 1.33333 2.32018 1.40357 2.19516 1.52859C2.07014 1.65361 1.9999 1.82318 1.9999 2V3.08L7.33323 9.08V12.3333Z" fill="white"/>
</g>
<defs>
<clipPath id="clip0_1246_916">
<rect width="16" height="16" fill="white"/>
</clipPath>
</defs>
</svg>
