<svg width="24" height="24" viewBox="0 0 24 24" fill="none" xmlns="http://www.w3.org/2000/svg">
<path d="M21.7517 24H12.1416C12.1214 23.9884 12.0998 23.9792 12.0773 23.9728C10.8843 23.7853 10.1525 23.0958 9.84593 21.9342C9.81204 21.8345 9.74736 21.7482 9.66122 21.6877C8.96695 21.1833 8.26565 20.6883 7.56762 20.1877C7.01445 19.7911 7.01399 19.2722 7.56762 18.8752C8.25252 18.3844 8.93648 17.8908 9.62606 17.4075C9.74607 17.3231 9.80186 17.2402 9.80045 17.0864C9.79202 16.2042 9.79623 15.322 9.79623 14.4398V14.2055H9.4798C7.19994 14.2055 4.92023 14.2055 2.64068 14.2055C1.71435 14.2055 0.962888 13.8356 0.458942 13.0631C0.244238 12.735 0.150481 12.3248 0.00187515 11.9522C0.000625049 8.71844 0 5.48438 0 2.25C0.0173473 2.21663 0.0313238 2.18161 0.041722 2.14547C0.190796 1.33781 0.622549 0.722812 1.33979 0.332812C1.6206 0.18 1.94546 0.108281 2.25018 0H11.8603C11.8805 0.0116445 11.9021 0.0207747 11.9245 0.0271875C13.1176 0.214687 13.8494 0.904219 14.1559 2.06578C14.1898 2.16546 14.2545 2.2518 14.3407 2.31234C15.0349 2.81672 15.7362 3.31172 16.4343 3.81234C16.9874 4.20891 16.9879 4.72781 16.4343 5.12484C15.7494 5.61562 15.0654 6.10922 14.3758 6.5925C14.2558 6.67688 14.2 6.75984 14.2014 6.91359C14.2099 7.79578 14.2056 8.67797 14.2056 9.56016V9.79453H14.5221C16.8019 9.79453 19.0816 9.79453 21.3612 9.79453C22.2875 9.79453 23.039 10.1644 23.5429 10.9369C23.7576 11.265 23.8514 11.6752 24 12.0478V21.75C23.9827 21.7834 23.9687 21.8184 23.9583 21.8545C23.8092 22.6622 23.3775 23.2772 22.6602 23.6672C22.3817 23.82 22.0564 23.8917 21.7517 24ZM9.07618 19.5258C9.1554 19.5867 9.21681 19.6355 9.27729 19.6805C9.79295 20.0484 10.3049 20.4178 10.8243 20.782C11.0413 20.9348 11.174 21.1284 11.2021 21.3975C11.2832 22.1995 11.7197 22.5938 12.5274 22.5938C15.4411 22.5938 18.3547 22.5938 21.2684 22.5938C22.1267 22.5938 22.5955 22.118 22.5955 21.2545C22.5955 18.3483 22.5955 15.442 22.5955 12.5358C22.5955 11.6705 22.1267 11.1984 21.2698 11.1984C18.3561 11.1984 15.4425 11.1984 12.5288 11.1984C11.6653 11.1984 11.2017 11.6644 11.2012 12.5311C11.2012 14.1558 11.1913 15.7805 11.2073 17.4061C11.2115 17.8336 11.0666 18.1294 10.7113 18.3656C10.1605 18.7327 9.63075 19.1302 9.07618 19.5258ZM12.8012 9.80062C12.8012 8.69531 12.8119 7.63359 12.7955 6.57234C12.789 6.16406 12.9301 5.87766 13.2704 5.64984C13.8269 5.27484 14.3641 4.87547 14.9257 4.47422C14.8488 4.41516 14.7897 4.36594 14.7274 4.32141C14.2117 3.95344 13.6998 3.58406 13.1832 3.22031C12.9666 3.06797 12.8316 2.87578 12.803 2.60672C12.7154 1.79109 12.2822 1.40625 11.4557 1.40625C8.54926 1.40625 5.64419 1.40625 2.74053 1.40625C1.88124 1.40625 1.40636 1.88016 1.40636 2.73797C1.40636 5.65047 1.40636 8.56313 1.40636 11.4759C1.40636 12.3248 1.87749 12.7997 2.71896 12.8002C4.99133 12.8002 7.26385 12.8002 9.53653 12.8002C9.61856 12.8002 9.7006 12.7936 9.79951 12.7889C9.73576 11.9203 9.93828 11.1652 10.5477 10.5539C11.1571 9.94266 11.9264 9.73453 12.8012 9.80062Z" fill="white" fill-opacity="0.7"/>
<path d="M16.0372 18.4716C15.9491 18.7777 15.8661 19.0772 15.777 19.3748C15.695 19.65 15.5108 19.7283 15.1868 19.6317C14.8713 19.538 14.7649 19.3655 14.8488 19.0842C15.3089 17.5789 15.7698 16.0737 16.2318 14.5687C16.3255 14.257 16.5308 14.122 16.8881 14.1192C17.2537 14.1164 17.4651 14.2547 17.5641 14.5753C18.0266 16.08 18.4876 17.5852 18.947 19.0908C19.0314 19.3669 18.9174 19.5412 18.6001 19.6331C18.2827 19.725 18.0947 19.6472 18.0131 19.3683C17.941 19.1217 17.8814 18.8705 17.7999 18.6272C17.7792 18.5648 17.6981 18.4795 17.6428 18.4786C17.1107 18.4687 16.5824 18.4716 16.0372 18.4716ZM16.9157 15.4716L16.8717 15.4645L16.2435 17.6878H17.5439L16.9157 15.4716Z" fill="white" fill-opacity="0.7"/>
<path d="M5.49092 6.47672C5.29449 6.47672 5.13089 6.48235 4.96822 6.47672C4.71836 6.46594 4.55522 6.31031 4.5524 6.09047C4.54959 5.87063 4.71039 5.70281 4.96025 5.6925C5.32684 5.67703 5.69437 5.68641 6.06096 5.68547H6.70601C6.70601 5.38969 6.6896 5.10281 6.71304 4.81969C6.72429 4.68375 6.77867 4.515 6.87477 4.43297C6.96009 4.36031 7.16261 4.33125 7.25496 4.3861C7.31665 4.42734 7.36927 4.48076 7.40957 4.54307C7.44988 4.60538 7.47703 4.67526 7.48935 4.74844C7.52357 5.0475 7.50014 5.35313 7.50014 5.68594C7.98533 5.68594 8.45083 5.68594 8.91634 5.68594C9.04864 5.68158 9.18109 5.68754 9.31246 5.70375C9.53279 5.73938 9.66734 5.90813 9.65562 6.10781C9.6439 6.3075 9.49529 6.46125 9.27121 6.47391C9.09354 6.48375 8.91446 6.47391 8.72414 6.47391C8.61491 7.30594 8.30223 8.02453 7.73969 8.64844C8.09034 8.88281 8.47052 8.99813 8.8718 9.05344C9.00307 9.07172 9.1362 9.07688 9.2684 9.09141C9.51123 9.1186 9.66968 9.28781 9.65796 9.50344C9.64577 9.72844 9.45685 9.88828 9.20417 9.87844C8.53147 9.84797 7.89157 9.69516 7.32012 9.32485C7.16964 9.22734 7.05854 9.21797 6.90196 9.31969C6.33192 9.69141 5.69249 9.84703 5.01932 9.87797C4.7643 9.88969 4.57584 9.73969 4.55569 9.51375C4.53553 9.28781 4.70429 9.10828 4.95978 9.09188C5.4881 9.05906 5.99345 8.9536 6.47349 8.65547C5.92454 8.03485 5.58795 7.32141 5.49092 6.47672ZM7.10448 8.15625C7.54936 7.68422 7.82125 7.14047 7.90517 6.49781H6.30426C6.38578 7.12227 6.66639 7.70382 7.10448 8.15625Z" fill="white" fill-opacity="0.7"/>
</svg>
