<svg width="16" height="16" viewBox="0 0 16 16" fill="none" xmlns="http://www.w3.org/2000/svg">
<g clip-path="url(#clip0_1246_1111)">
<path d="M8.00019 1.33338C8.88453 1.33628 9.75951 1.51454 10.5745 1.85783C11.3895 2.20113 12.1283 2.70266 12.7482 3.33338H10.0002V4.66671H13.4289C13.7571 4.66636 14.0718 4.53581 14.3039 4.30372C14.536 4.07163 14.6665 3.75694 14.6669 3.42871V4.31268e-05H13.3335V2.05204C12.1852 1.01795 10.7615 0.339147 9.23513 0.0979156C7.70874 -0.143315 6.14514 0.0633811 4.73387 0.692952C3.32259 1.32252 2.12422 2.34794 1.28402 3.64491C0.443822 4.94187 -0.00213967 6.45471 0.000192204 8.00004H1.33353C1.33547 6.23253 2.03847 4.53796 3.28829 3.28814C4.53811 2.03832 6.23268 1.33532 8.00019 1.33338Z" fill="white"/>
<path d="M14.6668 7.99999C14.6687 9.32355 14.276 10.6176 13.539 11.717C12.8019 12.8163 11.7539 13.671 10.5288 14.1719C9.30363 14.6727 7.957 14.7971 6.66088 14.529C5.36476 14.2608 4.17797 13.6125 3.2521 12.6667H6.0001V11.3333H2.57144C2.24321 11.3337 1.92852 11.4642 1.69643 11.6963C1.46433 11.9284 1.33379 12.2431 1.33344 12.5713V16H2.66677V13.948C3.81512 14.9821 5.23877 15.6609 6.76516 15.9021C8.29155 16.1433 9.85515 15.9367 11.2664 15.3071C12.6777 14.6775 13.8761 13.6521 14.7163 12.3551C15.5565 11.0582 16.0024 9.54533 16.0001 7.99999H14.6668Z" fill="white"/>
</g>
<defs>
<clipPath id="clip0_1246_1111">
<rect width="16" height="16" fill="white"/>
</clipPath>
</defs>
</svg>
